SplineFontDB: 3.0
FontName: IranianSerif-Regular
FullName: IranianSerif Regular
FamilyName: Iranian Serif Regular
Weight: Regular
Copyright: (c) 2007 by Iranian National Initiative for Free and Open Source Software (www.foss.ir), All rights reserved.
Version: 1.000
ItalicAngle: 0
UnderlinePosition: -147
UnderlineWidth: 133
Ascent: 1556
Descent: 492
InvalidEm: 0
sfntRevision: 0x00010000
LayerCount: 2
Layer: 0 1 "Back" 1
Layer: 1 1 "Fore" 0
XUID: [1021 107 -802105209 13616]
FSType: 0
OS2Version: 3
OS2_WeightWidthSlopeOnly: 0
OS2_UseTypoMetrics: 1
CreationTime: 1159090200
ModificationTime: 1410205599
PfmFamily: 81
TTFWeight: 400
TTFWidth: 5
LineGap: 0
VLineGap: 0
Panose: 1 0 5 0 0 0 0 2 0 2
OS2TypoAscent: 1556
OS2TypoAOffset: 0
OS2TypoDescent: -492
OS2TypoDOffset: 0
OS2TypoLinegap: 410
OS2WinAscent: 1901
OS2WinAOffset: 0
OS2WinDescent: 483
OS2WinDOffset: 0
HheadAscent: 1901
HheadAOffset: 0
HheadDescent: -483
HheadDOffset: 0
OS2SubXSize: 1351
OS2SubYSize: 1228
OS2SubXOff: 0
OS2SubYOff: -446
OS2SupXSize: 1351
OS2SupYSize: 1228
OS2SupXOff: 0
OS2SupYOff: 595
OS2StrikeYSize: 133
OS2StrikeYPos: 614
OS2Vendor: 'Nvis'
OS2CodePages: 00000040.20080000
OS2UnicodeRanges: 80002003.80002042.00000008.00000000
Lookup: 4 1 0 "'ccmp' Glyph Composition/Decomposition in Arabic lookup 0" { "'ccmp' Glyph Composition/Decomposition in Arabic lookup 0 subtable"  } ['ccmp' ('arab' <'ARA ' 'dflt' > ) ]
Lookup: 4 1 1 "'rlig' Required Ligatures in Arabic lookup 1" { "'rlig' Required Ligatures in Arabic lookup 1 subtable"  } ['rlig' ('arab' <'dflt' > ) ]
Lookup: 4 9 1 "'rlig' Required Ligatures in Arabic lookup 2" { "'rlig' Required Ligatures in Arabic lookup 2 subtable"  } ['rlig' ('arab' <'ARA ' 'dflt' > ) ]
Lookup: 1 9 0 "'init' Initial Forms in Arabic lookup 3" { "'init' Initial Forms in Arabic lookup 3 subtable"  } ['init' ('arab' <'ARA ' 'dflt' > ) ]

StartChar: .notdef
Encoding: 65536 -1 0
Width: 1229
GlyphClass: 2
Flags: W
LayerCount: 2
Fore
SplineSet
1126 -362 m 1,0,-1
 102 -362 l 1,1,-1
 102 1444 l 1,2,-1
 1126 1444 l 1,3,-1
 1126 -362 l 1,0,-1
1012 -248 m 1,4,-1
 1012 1329 l 1,5,-1
 217 1329 l 1,6,-1
 217 -248 l 1,7,-1
 1012 -248 l 1,4,-1
EndSplineSet
Validated: 1
EndChar

StartChar: exclam
Encoding: 33 33 4
Width: 823
GlyphClass: 2
Flags: W
LayerCount: 2
Fore
SplineSet
545 104 m 0,0,1
 545 49 545 49 506 10 c 128,-1,2
 467 -29 467 -29 412 -29 c 0,3,4
 355 -29 355 -29 317 9.5 c 128,-1,5
 279 48 279 48 279 104 c 256,6,7
 279 160 279 160 317 199 c 128,-1,8
 355 238 355 238 412 238 c 0,9,10
 467 238 467 238 506 199 c 128,-1,11
 545 160 545 160 545 104 c 0,0,1
473 420 m 1,12,-1
 350 420 l 1,13,-1
 350 672 l 1,14,-1
 283 1493 l 1,15,-1
 541 1493 l 1,16,-1
 473 672 l 1,17,-1
 473 420 l 1,12,-1
EndSplineSet
Validated: 1
Substitution2: "'calt' Contextual Alternates in Arabic lookup 9 subtable" exclam.fa
EndChar

StartChar: quotedbl
Encoding: 34 34 5
Width: 942
GlyphClass: 2
Flags: W
LayerCount: 2
Fore
SplineSet
360 938 m 1,0,-1
 201 938 l 1,1,-1
 201 1493 l 1,2,-1
 360 1493 l 1,3,-1
 360 938 l 1,0,-1
741 938 m 1,4,-1
 582 938 l 1,5,-1
 582 1493 l 1,6,-1
 741 1493 l 1,7,-1
 741 938 l 1,4,-1
EndSplineSet
Validated: 1
EndChar

StartChar: numbersign
Encoding: 35 35 6
Width: 1716
GlyphClass: 2
Flags: W
LayerCount: 2
Fore
SplineSet
961 567 m 1,0,-1
 1042 901 l 1,1,-1
 760 901 l 1,2,-1
 676 567 l 1,3,-1
 961 567 l 1,0,-1
1444 414 m 1,4,-1
 1092 414 l 1,5,-1
 989 0 l 1,6,-1
 817 0 l 1,7,-1
 922 414 l 1,8,-1
 639 414 l 1,9,-1
 535 0 l 1,10,-1
 365 0 l 1,11,-1
 467 414 l 1,12,-1
 158 414 l 1,13,-1
 158 567 l 1,14,-1
 506 567 l 1,15,-1
 588 901 l 1,16,-1
 272 901 l 1,17,-1
 272 1055 l 1,18,-1
 627 1055 l 1,19,-1
 731 1470 l 1,20,-1
 901 1470 l 1,21,-1
 799 1055 l 1,22,-1
 1081 1055 l 1,23,-1
 1184 1470 l 1,24,-1
 1356 1470 l 1,25,-1
 1251 1055 l 1,26,-1
 1559 1055 l 1,27,-1
 1559 901 l 1,28,-1
 1212 901 l 1,29,-1
 1130 567 l 1,30,-1
 1444 567 l 1,31,-1
 1444 414 l 1,4,-1
EndSplineSet
Validated: 1
EndChar

StartChar: dollar
Encoding: 36 36 7
Width: 1303
GlyphClass: 2
Flags: W
LayerCount: 2
Fore
SplineSet
690 68 m 1,0,1
 803 78 803 78 862.5 133 c 128,-1,2
 922 188 922 188 922 283 c 0,3,4
 922 369 922 369 863 429 c 128,-1,5
 804 489 804 489 690 520 c 1,6,-1
 690 68 l 1,0,1
590 1187 m 1,7,8
 487 1180 487 1180 430 1127.5 c 128,-1,9
 373 1075 373 1075 373 987 c 0,10,11
 373 907 373 907 425.5 854 c 128,-1,12
 478 801 478 801 590 768 c 1,13,-1
 590 1187 l 1,7,8
690 -301 m 1,14,-1
 590 -301 l 1,15,-1
 590 -31 l 1,16,17
 494 -29 494 -29 391 -3.5 c 128,-1,18
 288 22 288 22 176 72 c 1,19,-1
 176 348 l 1,20,-1
 284 348 l 1,21,22
 288 211 288 211 364 141 c 128,-1,23
 440 71 440 71 590 68 c 1,24,-1
 590 553 l 1,25,26
 360 617 360 617 267 700.5 c 128,-1,27
 174 784 174 784 174 922 c 0,28,29
 174 1082 174 1082 284 1179 c 128,-1,30
 394 1276 394 1276 590 1288 c 1,31,-1
 590 1556 l 1,32,-1
 690 1556 l 1,33,-1
 690 1288 l 1,34,35
 791 1280 791 1280 884.5 1255.5 c 128,-1,36
 978 1231 978 1231 1067 1190 c 1,37,-1
 1067 928 l 1,38,-1
 958 928 l 1,39,40
 946 1044 946 1044 877 1111 c 128,-1,41
 808 1178 808 1178 690 1187 c 1,42,-1
 690 735 l 1,43,44
 936 668 936 668 1034.5 581.5 c 128,-1,45
 1133 495 1133 495 1133 350 c 0,46,47
 1133 184 1133 184 1017 84 c 128,-1,48
 901 -16 901 -16 690 -31 c 1,49,-1
 690 -301 l 1,14,-1
EndSplineSet
Validated: 1
EndChar

StartChar: percent
Encoding: 37 37 8
Width: 1946
GlyphClass: 2
Flags: W
LayerCount: 2
Fore
SplineSet
459 797 m 0,0,1
 544 797 544 797 593.5 880.5 c 128,-1,2
 643 964 643 964 643 1112 c 256,3,4
 643 1260 643 1260 593.5 1343.5 c 128,-1,5
 544 1427 544 1427 459 1427 c 0,6,7
 371 1427 371 1427 321.5 1344 c 128,-1,8
 272 1261 272 1261 272 1112 c 0,9,10
 272 965 272 965 322.5 881 c 128,-1,11
 373 797 373 797 459 797 c 0,0,1
1489 63 m 256,12,13
 1575 63 1575 63 1624 146.5 c 128,-1,14
 1673 230 1673 230 1673 377 c 0,15,16
 1673 525 1673 525 1623.5 609.5 c 128,-1,17
 1574 694 1574 694 1489 694 c 0,18,19
 1402 694 1402 694 1352.5 610 c 128,-1,20
 1303 526 1303 526 1303 377 c 0,21,22
 1303 230 1303 230 1353 146.5 c 128,-1,23
 1403 63 1403 63 1489 63 c 256,12,13
1739 80 m 0,24,25
 1646 -29 1646 -29 1489 -29 c 0,26,27
 1329 -29 1329 -29 1236 80.5 c 128,-1,28
 1143 190 1143 190 1143 377 c 0,29,30
 1143 565 1143 565 1236.5 674.5 c 128,-1,31
 1330 784 1330 784 1489 784 c 0,32,33
 1647 784 1647 784 1740 674 c 128,-1,34
 1833 564 1833 564 1833 377 c 256,35,36
 1833 190 1833 190 1739 80 c 0,24,25
582 -29 m 1,37,-1
 430 -29 l 1,38,-1
 1364 1520 l 1,39,-1
 1516 1520 l 1,40,-1
 582 -29 l 1,37,-1
709 816 m 0,41,42
 616 707 616 707 457 707 c 256,43,44
 298 707 298 707 205.5 816.5 c 128,-1,45
 113 926 113 926 113 1114 c 0,46,47
 113 1300 113 1300 206 1410 c 128,-1,48
 299 1520 299 1520 457 1520 c 256,49,50
 615 1520 615 1520 709 1410.5 c 128,-1,51
 803 1301 803 1301 803 1114 c 0,52,53
 803 925 803 925 709 816 c 0,41,42
EndSplineSet
Validated: 1
EndChar

StartChar: ampersand
Encoding: 38 38 9
Width: 1823
GlyphClass: 2
Flags: W
LayerCount: 2
Fore
SplineSet
524 844 m 1,0,1
 437 766 437 766 393.5 675.5 c 128,-1,2
 350 585 350 585 350 483 c 0,3,4
 350 317 350 317 465 204.5 c 128,-1,5
 580 92 580 92 752 92 c 0,6,7
 854 92 854 92 944.5 127.5 c 128,-1,8
 1035 163 1035 163 1106 231 c 1,9,-1
 524 844 l 1,0,1
1726 0 m 1,10,-1
 1325 0 l 1,11,-1
 1188 145 l 1,12,13
 1083 57 1083 57 964 14 c 128,-1,14
 845 -29 845 -29 707 -29 c 0,15,16
 449 -29 449 -29 298 103 c 128,-1,17
 147 235 147 235 147 461 c 0,18,19
 147 594 147 594 223.5 709.5 c 128,-1,20
 300 825 300 825 455 926 c 1,21,22
 404 987 404 987 380 1047.5 c 128,-1,23
 356 1108 356 1108 356 1174 c 0,24,25
 356 1333 356 1333 470.5 1426.5 c 128,-1,26
 585 1520 585 1520 782 1520 c 0,27,28
 849 1520 849 1520 938.5 1503 c 128,-1,29
 1028 1486 1028 1486 1143 1452 c 1,30,-1
 1143 1194 l 1,31,-1
 1030 1194 l 1,32,33
 1016 1301 1016 1301 952 1357 c 128,-1,34
 888 1413 888 1413 778 1413 c 0,35,36
 675 1413 675 1413 611 1356.5 c 128,-1,37
 547 1300 547 1300 547 1210 c 0,38,39
 547 1149 547 1149 581 1088.5 c 128,-1,40
 615 1028 615 1028 723 915 c 2,41,-1
 1239 371 l 1,42,43
 1308 451 1308 451 1347.5 543.5 c 128,-1,44
 1387 636 1387 636 1397 741 c 1,45,-1
 1217 741 l 1,46,-1
 1217 848 l 1,47,-1
 1690 848 l 1,48,-1
 1690 741 l 1,49,-1
 1518 741 l 1,50,51
 1501 611 1501 611 1451.5 498 c 128,-1,52
 1402 385 1402 385 1319 289 c 1,53,-1
 1491 106 l 1,54,-1
 1726 106 l 1,55,-1
 1726 0 l 1,10,-1
EndSplineSet
Validated: 1
EndChar

StartChar: quotesingle
Encoding: 39 39 10
Width: 563
GlyphClass: 2
Flags: W
LayerCount: 2
Fore
SplineSet
360 938 m 1,0,-1
 201 938 l 1,1,-1
 201 1493 l 1,2,-1
 360 1493 l 1,3,-1
 360 938 l 1,0,-1
EndSplineSet
Validated: 1
EndChar

StartChar: parenleft
Encoding: 40 40 11
Width: 799
GlyphClass: 2
Flags: W
LayerCount: 2
Fore
SplineSet
653 -319 m 1,0,1
 410 -210 410 -210 286 26.5 c 128,-1,2
 162 263 162 263 162 618 c 0,3,4
 162 974 162 974 286 1210.5 c 128,-1,5
 410 1447 410 1447 653 1556 c 1,6,-1
 653 1458 l 1,7,8
 499 1352 499 1352 432 1159.5 c 128,-1,9
 365 967 365 967 365 618 c 0,10,11
 365 270 365 270 432 77.5 c 128,-1,12
 499 -115 499 -115 653 -221 c 1,13,-1
 653 -319 l 1,0,1
EndSplineSet
Validated: 1
EndChar

StartChar: parenright
Encoding: 41 41 12
Width: 799
GlyphClass: 2
Flags: W
LayerCount: 2
Fore
SplineSet
145 -221 m 1,0,1
 299 -115 299 -115 366.5 77.5 c 128,-1,2
 434 270 434 270 434 618 c 0,3,4
 434 967 434 967 366.5 1159.5 c 128,-1,5
 299 1352 299 1352 145 1458 c 1,6,-1
 145 1556 l 1,7,8
 389 1447 389 1447 513 1210.5 c 128,-1,9
 637 974 637 974 637 618 c 0,10,11
 637 263 637 263 513 26.5 c 128,-1,12
 389 -210 389 -210 145 -319 c 1,13,-1
 145 -221 l 1,0,1
EndSplineSet
Validated: 1
EndChar

StartChar: asterisk
Encoding: 42 42 13
Width: 1024
GlyphClass: 2
Flags: W
LayerCount: 2
Fore
SplineSet
915 752 m 1,0,-1
 567 969 l 1,1,-1
 580 588 l 1,2,-1
 444 588 l 1,3,-1
 457 969 l 1,4,-1
 109 752 l 1,5,-1
 33 870 l 1,6,-1
 424 1053 l 1,7,-1
 33 1237 l 1,8,-1
 109 1356 l 1,9,-1
 457 1139 l 1,10,-1
 444 1520 l 1,11,-1
 580 1520 l 1,12,-1
 567 1139 l 1,13,-1
 915 1356 l 1,14,-1
 991 1237 l 1,15,-1
 600 1055 l 1,16,-1
 991 870 l 1,17,-1
 915 752 l 1,0,-1
EndSplineSet
Validated: 1
EndChar

StartChar: plus
Encoding: 43 43 14
Width: 1716
GlyphClass: 2
Flags: W
LayerCount: 2
Fore
SplineSet
1499 561 m 1,0,-1
 938 561 l 1,1,-1
 938 0 l 1,2,-1
 778 0 l 1,3,-1
 778 561 l 1,4,-1
 217 561 l 1,5,-1
 217 723 l 1,6,-1
 778 723 l 1,7,-1
 778 1284 l 1,8,-1
 938 1284 l 1,9,-1
 938 723 l 1,10,-1
 1499 723 l 1,11,-1
 1499 561 l 1,0,-1
EndSplineSet
Validated: 1
EndChar

StartChar: comma
Encoding: 44 44 15
Width: 651
GlyphClass: 2
Flags: W
LayerCount: 2
Fore
SplineSet
74 -199 m 1,0,1
 168 -130 168 -130 212 -36.5 c 128,-1,2
 256 57 256 57 256 190 c 2,3,-1
 256 227 l 1,4,-1
 453 227 l 1,5,6
 445 56 445 56 372.5 -66.5 c 128,-1,7
 300 -189 300 -189 154 -279 c 1,8,-1
 74 -199 l 1,0,1
EndSplineSet
Validated: 1
EndChar

StartChar: hyphenminus
Encoding: 45 45 16
Width: 692
GlyphClass: 2
Flags: W
LayerCount: 2
Fore
SplineSet
602 471 m 1,0,-1
 90 471 l 1,1,-1
 90 627 l 1,2,-1
 602 627 l 1,3,-1
 602 471 l 1,0,-1
EndSplineSet
Validated: 1
EndChar

StartChar: period
Encoding: 46 46 17
Width: 651
GlyphClass: 2
Flags: W
LayerCount: 2
Fore
SplineSet
459 104 m 0,0,1
 459 49 459 49 420 10 c 128,-1,2
 381 -29 381 -29 326 -29 c 0,3,4
 269 -29 269 -29 231 9.5 c 128,-1,5
 193 48 193 48 193 104 c 256,6,7
 193 160 193 160 231 199 c 128,-1,8
 269 238 269 238 326 238 c 0,9,10
 381 238 381 238 420 199 c 128,-1,11
 459 160 459 160 459 104 c 0,0,1
EndSplineSet
Validated: 1
Substitution2: "'calt' Contextual Alternates in Arabic lookup 9 subtable" period.fa
EndChar

StartChar: slash
Encoding: 47 47 18
Width: 690
GlyphClass: 2
Flags: W
LayerCount: 2
Fore
SplineSet
160 -190 m 1,0,-1
 0 -190 l 1,1,-1
 530 1493 l 1,2,-1
 690 1493 l 1,3,-1
 160 -190 l 1,0,-1
EndSplineSet
Validated: 1
EndChar

StartChar: colon
Encoding: 58 58 19
Width: 690
GlyphClass: 2
Flags: W
LayerCount: 2
Fore
SplineSet
441 9 m 0,0,1
 403 -29 403 -29 346 -29 c 256,2,3
 289 -29 289 -29 251 9.5 c 128,-1,4
 213 48 213 48 213 104 c 256,5,6
 213 160 213 160 251.5 199 c 128,-1,7
 290 238 290 238 346 238 c 256,8,9
 402 238 402 238 440.5 199 c 128,-1,10
 479 160 479 160 479 104 c 256,11,12
 479 48 479 48 441 9 c 0,0,1
479 756 m 256,13,14
 479 699 479 699 441 661 c 128,-1,15
 403 623 403 623 346 623 c 0,16,17
 290 623 290 623 251.5 661.5 c 128,-1,18
 213 700 213 700 213 756 c 256,19,20
 213 812 213 812 251.5 850.5 c 128,-1,21
 290 889 290 889 346 889 c 0,22,23
 403 889 403 889 441 851 c 128,-1,24
 479 813 479 813 479 756 c 256,13,14
EndSplineSet
Validated: 1
Substitution2: "'calt' Contextual Alternates in Arabic lookup 9 subtable" colon.fa
EndChar

StartChar: semicolon
Encoding: 59 59 20
Width: 690
GlyphClass: 2
Flags: W
LayerCount: 2
Fore
SplineSet
74 -199 m 1,0,1
 168 -130 168 -130 212 -36.5 c 128,-1,2
 256 57 256 57 256 190 c 2,3,-1
 256 227 l 1,4,-1
 453 227 l 1,5,6
 445 56 445 56 372.5 -66.5 c 128,-1,7
 300 -189 300 -189 154 -279 c 1,8,-1
 74 -199 l 1,0,1
483 756 m 0,9,10
 483 700 483 700 444.5 661.5 c 128,-1,11
 406 623 406 623 350 623 c 256,12,13
 294 623 294 623 255.5 661.5 c 128,-1,14
 217 700 217 700 217 756 c 256,15,16
 217 812 217 812 255.5 850.5 c 128,-1,17
 294 889 294 889 350 889 c 256,18,19
 406 889 406 889 444.5 850 c 128,-1,20
 483 811 483 811 483 756 c 0,9,10
EndSplineSet
Validated: 1
EndChar

StartChar: less
Encoding: 60 60 21
Width: 1716
GlyphClass: 2
Flags: W
LayerCount: 2
Fore
SplineSet
1499 94 m 1,0,-1
 217 559 l 1,1,-1
 217 725 l 1,2,-1
 1499 1190 l 1,3,-1
 1499 1020 l 1,4,-1
 461 641 l 1,5,-1
 1499 264 l 1,6,-1
 1499 94 l 1,0,-1
EndSplineSet
Validated: 1
EndChar

StartChar: equal
Encoding: 61 61 22
Width: 1716
GlyphClass: 2
Flags: W
LayerCount: 2
Fore
SplineSet
1499 766 m 1,0,-1
 217 766 l 1,1,-1
 217 926 l 1,2,-1
 1499 926 l 1,3,-1
 1499 766 l 1,0,-1
1499 358 m 1,4,-1
 217 358 l 1,5,-1
 217 518 l 1,6,-1
 1499 518 l 1,7,-1
 1499 358 l 1,4,-1
EndSplineSet
Validated: 1
EndChar

StartChar: greater
Encoding: 62 62 23
Width: 1716
GlyphClass: 2
Flags: W
LayerCount: 2
Fore
SplineSet
1499 559 m 1,0,-1
 217 94 l 1,1,-1
 217 264 l 1,2,-1
 1255 641 l 1,3,-1
 217 1020 l 1,4,-1
 217 1190 l 1,5,-1
 1499 725 l 1,6,-1
 1499 559 l 1,0,-1
EndSplineSet
Validated: 1
EndChar

StartChar: question
Encoding: 63 63 24
Width: 1098
GlyphClass: 2
Flags: W
LayerCount: 2
Fore
SplineSet
627 104 m 0,0,1
 627 49 627 49 588 10 c 128,-1,2
 549 -29 549 -29 494 -29 c 0,3,4
 437 -29 437 -29 398.5 9.5 c 128,-1,5
 360 48 360 48 360 104 c 256,6,7
 360 160 360 160 398.5 199 c 128,-1,8
 437 238 437 238 494 238 c 0,9,10
 549 238 549 238 588 199 c 128,-1,11
 627 160 627 160 627 104 c 0,0,1
555 397 m 1,12,-1
 432 397 l 1,13,-1
 432 725 l 1,14,15
 609 768 609 768 698.5 869 c 128,-1,16
 788 970 788 970 788 1126 c 0,17,18
 788 1263 788 1263 715 1342 c 128,-1,19
 642 1421 642 1421 516 1421 c 0,20,21
 402 1421 402 1421 329.5 1355.5 c 128,-1,22
 257 1290 257 1290 236 1167 c 1,23,-1
 139 1167 l 1,24,-1
 139 1427 l 1,25,26
 245 1474 245 1474 340.5 1497 c 128,-1,27
 436 1520 436 1520 520 1520 c 0,28,29
 742 1520 742 1520 870.5 1413 c 128,-1,30
 999 1306 999 1306 999 1124 c 0,31,32
 999 938 999 938 888.5 820 c 128,-1,33
 778 702 778 702 555 651 c 1,34,-1
 555 397 l 1,12,-1
EndSplineSet
Validated: 1
EndChar

StartChar: at
Encoding: 64 64 25
Width: 2048
GlyphClass: 2
Flags: W
LayerCount: 2
Fore
SplineSet
1583 -170 m 1,0,1
 1475 -263 1475 -263 1338 -309.5 c 128,-1,2
 1201 -356 1201 -356 1038 -356 c 0,3,4
 855 -356 855 -356 688.5 -289.5 c 128,-1,5
 522 -223 522 -223 397 -100 c 0,6,7
 268 27 268 27 201.5 190.5 c 128,-1,8
 135 354 135 354 135 543 c 0,9,10
 135 727 135 727 202 890 c 128,-1,11
 269 1053 269 1053 397 1180 c 0,12,13
 524 1306 524 1306 696.5 1374 c 128,-1,14
 869 1442 869 1442 1063 1442 c 0,15,16
 1277 1442 1277 1442 1453.5 1359 c 128,-1,17
 1630 1276 1630 1276 1749 1120 c 0,18,19
 1825 1022 1825 1022 1864 907 c 128,-1,20
 1903 792 1903 792 1903 668 c 0,21,22
 1903 400 1903 400 1740 244.5 c 128,-1,23
 1577 89 1577 89 1295 86 c 1,24,-1
 1294 248 l 1,25,26
 1235 166 1235 166 1161.5 126 c 128,-1,27
 1088 86 1088 86 995 86 c 0,28,29
 820 86 820 86 711 211 c 128,-1,30
 602 336 602 336 602 537 c 256,31,32
 602 738 602 738 711 862.5 c 128,-1,33
 820 987 820 987 995 987 c 0,34,35
 1088 987 1088 987 1161.5 947 c 128,-1,36
 1235 907 1235 907 1294 825 c 1,37,-1
 1294 967 l 1,38,-1
 1450 967 l 1,39,-1
 1450 195 l 1,40,41
 1620 232 1620 232 1714 357 c 128,-1,42
 1808 482 1808 482 1808 670 c 0,43,44
 1808 781 1808 781 1774 880 c 128,-1,45
 1740 979 1740 979 1673 1063 c 0,46,47
 1567 1196 1567 1196 1414.5 1266.5 c 128,-1,48
 1262 1337 1262 1337 1083 1337 c 0,49,50
 993 1337 993 1337 905 1318 c 128,-1,51
 817 1299 817 1299 731 1260 c 0,52,53
 529 1167 529 1167 417 978.5 c 128,-1,54
 305 790 305 790 305 543 c 0,55,56
 305 376 305 376 355 235.5 c 128,-1,57
 405 95 405 95 500 -8 c 0,58,59
 609 -127 609 -127 758.5 -189.5 c 128,-1,60
 908 -252 908 -252 1081 -252 c 0,61,62
 1210 -252 1210 -252 1322 -214 c 128,-1,63
 1434 -176 1434 -176 1530 -100 c 1,64,-1
 1583 -170 l 1,0,1
1294 590 m 2,65,66
 1294 715 1294 715 1222.5 792.5 c 128,-1,67
 1151 870 1151 870 1036 870 c 0,68,69
 915 870 915 870 847.5 782.5 c 128,-1,70
 780 695 780 695 780 537 c 0,71,72
 780 378 780 378 848 290.5 c 128,-1,73
 916 203 916 203 1038 203 c 0,74,75
 1152 203 1152 203 1223 281.5 c 128,-1,76
 1294 360 1294 360 1294 485 c 2,77,-1
 1294 590 l 2,65,66
EndSplineSet
Validated: 1
EndChar

StartChar: bracketleft
Encoding: 91 91 26
Width: 799
GlyphClass: 2
Flags: W
LayerCount: 2
Fore
SplineSet
641 -270 m 1,0,-1
 176 -270 l 1,1,-1
 176 1556 l 1,2,-1
 641 1556 l 1,3,-1
 641 1450 l 1,4,-1
 367 1450 l 1,5,-1
 367 -164 l 1,6,-1
 641 -164 l 1,7,-1
 641 -270 l 1,0,-1
EndSplineSet
Validated: 1
EndChar

StartChar: backslash
Encoding: 92 92 27
Width: 690
GlyphClass: 2
Flags: W
LayerCount: 2
Fore
SplineSet
690 -190 m 1,0,-1
 530 -190 l 1,1,-1
 0 1493 l 1,2,-1
 160 1493 l 1,3,-1
 690 -190 l 1,0,-1
EndSplineSet
Validated: 1
EndChar

StartChar: bracketright
Encoding: 93 93 28
Width: 799
GlyphClass: 2
Flags: W
LayerCount: 2
Fore
SplineSet
623 -270 m 1,0,-1
 158 -270 l 1,1,-1
 158 -164 l 1,2,-1
 432 -164 l 1,3,-1
 432 1450 l 1,4,-1
 158 1450 l 1,5,-1
 158 1556 l 1,6,-1
 623 1556 l 1,7,-1
 623 -270 l 1,0,-1
EndSplineSet
Validated: 1
EndChar

StartChar: asciicircum
Encoding: 94 94 29
Width: 1716
GlyphClass: 2
Flags: W
LayerCount: 2
Fore
SplineSet
1499 936 m 1,0,-1
 1346 936 l 1,1,-1
 858 1317 l 1,2,-1
 371 936 l 1,3,-1
 217 936 l 1,4,-1
 760 1493 l 1,5,-1
 956 1493 l 1,6,-1
 1499 936 l 1,0,-1
EndSplineSet
Validated: 1
EndChar

StartChar: underscore
Encoding: 95 95 30
Width: 1024
GlyphClass: 2
Flags: W
LayerCount: 2
Fore
SplineSet
1024 -483 m 1,0,-1
 0 -483 l 1,1,-1
 0 -403 l 1,2,-1
 1024 -403 l 1,3,-1
 1024 -483 l 1,0,-1
EndSplineSet
Validated: 1
EndChar

StartChar: grave
Encoding: 96 96 31
Width: 1024
GlyphClass: 2
Flags: W
LayerCount: 2
Fore
SplineSet
627 1260 m 1,0,-1
 510 1260 l 1,1,-1
 170 1636 l 1,2,-1
 367 1636 l 1,3,-1
 627 1260 l 1,0,-1
EndSplineSet
Validated: 1
EndChar

StartChar: braceleft
Encoding: 123 123 32
Width: 1303
GlyphClass: 2
Flags: W
LayerCount: 2
Fore
SplineSet
1047 -334 m 1,0,-1
 985 -334 l 2,1,2
 736 -334 736 -334 651.5 -260 c 128,-1,3
 567 -186 567 -186 567 35 c 2,4,-1
 567 293 l 2,5,6
 567 443 567 443 513 501 c 128,-1,7
 459 559 459 559 317 559 c 2,8,-1
 256 559 l 1,9,-1
 256 664 l 1,10,-1
 317 664 l 2,11,12
 459 664 459 664 513 722 c 128,-1,13
 567 780 567 780 567 930 c 2,14,-1
 567 1188 l 2,15,16
 567 1409 567 1409 651.5 1482.5 c 128,-1,17
 736 1556 736 1556 985 1556 c 2,18,-1
 1047 1556 l 1,19,-1
 1047 1452 l 1,20,-1
 979 1452 l 2,21,22
 838 1452 838 1452 795 1408 c 128,-1,23
 752 1364 752 1364 752 1223 c 2,24,-1
 752 936 l 2,25,26
 752 778 752 778 702 710 c 128,-1,27
 652 642 652 642 522 612 c 1,28,29
 654 578 654 578 703 511 c 128,-1,30
 752 444 752 444 752 287 c 2,31,-1
 752 0 l 2,32,33
 752 -141 752 -141 795 -185 c 128,-1,34
 838 -229 838 -229 979 -229 c 2,35,-1
 1047 -229 l 1,36,-1
 1047 -334 l 1,0,-1
EndSplineSet
Validated: 1
EndChar

StartChar: bar
Encoding: 124 124 33
Width: 690
GlyphClass: 2
Flags: W
LayerCount: 2
Fore
SplineSet
426 -483 m 1,0,-1
 264 -483 l 1,1,-1
 264 1565 l 1,2,-1
 426 1565 l 1,3,-1
 426 -483 l 1,0,-1
EndSplineSet
Validated: 1
EndChar

StartChar: braceright
Encoding: 125 125 34
Width: 1303
GlyphClass: 2
Flags: W
LayerCount: 2
Fore
SplineSet
735 35 m 2,0,1
 735 -186 735 -186 651.5 -260 c 128,-1,2
 568 -334 568 -334 319 -334 c 2,3,-1
 256 -334 l 1,4,-1
 256 -229 l 1,5,-1
 326 -229 l 2,6,7
 466 -229 466 -229 508.5 -185.5 c 128,-1,8
 551 -142 551 -142 551 0 c 2,9,-1
 551 287 l 2,10,11
 551 444 551 444 600 511 c 128,-1,12
 649 578 649 578 780 612 c 1,13,14
 650 642 650 642 600.5 710 c 128,-1,15
 551 778 551 778 551 936 c 2,16,-1
 551 1223 l 2,17,18
 551 1365 551 1365 508.5 1408.5 c 128,-1,19
 466 1452 466 1452 326 1452 c 2,20,-1
 256 1452 l 1,21,-1
 256 1556 l 1,22,-1
 319 1556 l 2,23,24
 568 1556 568 1556 651.5 1482.5 c 128,-1,25
 735 1409 735 1409 735 1188 c 2,26,-1
 735 930 l 2,27,28
 735 780 735 780 789 722 c 128,-1,29
 843 664 843 664 985 664 c 2,30,-1
 1047 664 l 1,31,-1
 1047 559 l 1,32,-1
 985 559 l 2,33,34
 843 559 843 559 789 501 c 128,-1,35
 735 443 735 443 735 293 c 2,36,-1
 735 35 l 2,0,1
EndSplineSet
Validated: 1
EndChar

StartChar: asciitilde
Encoding: 126 126 35
Width: 1716
GlyphClass: 2
Flags: W
LayerCount: 2
Fore
SplineSet
1499 659 m 1,0,1
 1399 571 1399 571 1309 529 c 128,-1,2
 1219 487 1219 487 1126 487 c 0,3,4
 1030 487 1030 487 856 553 c 2,5,-1
 846 557 l 2,6,7
 835 561 835 561 813 570 c 0,8,9
 666 627 666 627 571 627 c 0,10,11
 479 627 479 627 392.5 590.5 c 128,-1,12
 306 554 306 554 217 477 c 1,13,-1
 217 629 l 1,14,15
 317 716 317 716 406.5 756.5 c 128,-1,16
 496 797 496 797 590 797 c 0,17,18
 686 797 686 797 860 731 c 2,19,-1
 870 727 l 2,20,21
 881 723 881 723 901 715 c 0,22,23
 1046 657 1046 657 1143 657 c 0,24,25
 1235 657 1235 657 1323 694 c 128,-1,26
 1411 731 1411 731 1499 807 c 1,27,-1
 1499 659 l 1,0,1
EndSplineSet
Validated: 1
EndChar

StartChar: currency
Encoding: 164 164 36
Width: 1303
GlyphClass: 2
Flags: W
LayerCount: 2
Fore
SplineSet
1200 190 m 1,0,-1
 1104 96 l 1,1,-1
 897 301 l 1,2,3
 841 257 841 257 781.5 236 c 128,-1,4
 722 215 722 215 653 215 c 0,5,6
 589 215 589 215 526.5 235.5 c 128,-1,7
 464 256 464 256 403 297 c 1,8,-1
 199 92 l 1,9,-1
 104 186 l 1,10,-1
 309 393 l 1,11,12
 268 455 268 455 247.5 516 c 128,-1,13
 227 577 227 577 227 641 c 0,14,15
 227 711 227 711 248 770.5 c 128,-1,16
 269 830 269 830 313 887 c 1,17,-1
 106 1094 l 1,18,-1
 201 1188 l 1,19,-1
 408 981 l 1,20,21
 464 1025 464 1025 524 1046 c 128,-1,22
 584 1067 584 1067 653 1067 c 0,23,24
 719 1067 719 1067 780 1047 c 128,-1,25
 841 1027 841 1027 901 985 c 1,26,-1
 1110 1192 l 1,27,-1
 1204 1098 l 1,28,-1
 995 889 l 1,29,30
 1038 829 1038 829 1058.5 768 c 128,-1,31
 1079 707 1079 707 1079 641 c 0,32,33
 1079 572 1079 572 1058.5 513 c 128,-1,34
 1038 454 1038 454 993 397 c 1,35,-1
 1200 190 l 1,0,-1
653 373 m 256,36,37
 766 373 766 373 844 451.5 c 128,-1,38
 922 530 922 530 922 643 c 0,39,40
 922 755 922 755 844.5 832 c 128,-1,41
 767 909 767 909 653 909 c 0,42,43
 541 909 541 909 463 832 c 128,-1,44
 385 755 385 755 385 643 c 0,45,46
 385 529 385 529 462.5 451 c 128,-1,47
 540 373 540 373 653 373 c 256,36,37
EndSplineSet
Validated: 1
EndChar

StartChar: section
Encoding: 167 167 37
Width: 1024
GlyphClass: 2
Flags: W
LayerCount: 2
Fore
SplineSet
651 401 m 1,0,1
 709 439 709 439 738.5 487 c 128,-1,2
 768 535 768 535 768 592 c 0,3,4
 768 667 768 667 698.5 734 c 128,-1,5
 629 801 629 801 379 936 c 1,6,7
 311 890 311 890 283.5 848.5 c 128,-1,8
 256 807 256 807 256 754 c 0,9,10
 256 622 256 622 619 419 c 2,11,-1
 651 401 l 1,0,1
252 69 m 1,12,13
 254 -11 254 -11 308 -51.5 c 128,-1,14
 362 -92 362 -92 469 -92 c 0,15,16
 573 -92 573 -92 633.5 -43 c 128,-1,17
 694 6 694 6 694 90 c 0,18,19
 694 203 694 203 466 330 c 0,20,21
 445 342 445 342 434 348 c 0,22,23
 218 470 218 470 155 545 c 128,-1,24
 92 620 92 620 92 719 c 0,25,26
 92 813 92 813 151 879.5 c 128,-1,27
 210 946 210 946 319 977 c 1,28,29
 237 1026 237 1026 197.5 1089 c 128,-1,30
 158 1152 158 1152 158 1231 c 0,31,32
 158 1361 158 1361 258 1440.5 c 128,-1,33
 358 1520 358 1520 524 1520 c 0,34,35
 602 1520 602 1520 678 1506 c 128,-1,36
 754 1492 754 1492 829 1464 c 1,37,-1
 829 1262 l 1,38,-1
 737 1262 l 1,39,40
 735 1334 735 1334 683 1375.5 c 128,-1,41
 631 1417 631 1417 543 1417 c 0,42,43
 443 1417 443 1417 385.5 1368.5 c 128,-1,44
 328 1320 328 1320 328 1237 c 0,45,46
 328 1140 328 1140 574 1003 c 0,47,48
 600 988 600 988 612 981 c 0,49,50
 807 872 807 872 869.5 797 c 128,-1,51
 932 722 932 722 932 623 c 0,52,53
 932 528 932 528 879.5 465 c 128,-1,54
 827 402 827 402 713 358 c 1,55,56
 791 311 791 311 827.5 248 c 128,-1,57
 864 185 864 185 864 94 c 0,58,59
 864 -37 864 -37 762 -116 c 128,-1,60
 660 -195 660 -195 487 -195 c 0,61,62
 397 -195 397 -195 317 -181.5 c 128,-1,63
 237 -168 237 -168 160 -139 c 1,64,-1
 160 70 l 1,65,-1
 252 69 l 1,12,13
EndSplineSet
Validated: 1
EndChar

StartChar: guillemotleft
Encoding: 171 171 38
Width: 1253
GlyphClass: 2
Flags: W
LayerCount: 2
Fore
SplineSet
1061 141 m 1,0,-1
 592 559 l 1,1,-1
 592 641 l 1,2,-1
 1061 1059 l 1,3,-1
 1061 944 l 1,4,-1
 764 600 l 1,5,-1
 1061 256 l 1,6,-1
 1061 141 l 1,0,-1
627 141 m 1,7,-1
 158 559 l 1,8,-1
 158 641 l 1,9,-1
 627 1059 l 1,10,-1
 627 944 l 1,11,-1
 330 600 l 1,12,-1
 627 256 l 1,13,-1
 627 141 l 1,7,-1
EndSplineSet
Validated: 1
Substitution2: "'calt' Contextual Alternates in Arabic lookup 9 subtable" guillemotleft.fa
EndChar

StartChar: logicalnot
Encoding: 172 172 39
Width: 1716
GlyphClass: 2
Flags: W
LayerCount: 2
Fore
SplineSet
1499 287 m 1,0,-1
 1339 287 l 1,1,-1
 1339 700 l 1,2,-1
 217 700 l 1,3,-1
 217 862 l 1,4,-1
 1499 862 l 1,5,-1
 1499 287 l 1,0,-1
EndSplineSet
Validated: 1
EndChar

StartChar: degree
Encoding: 176 176 40
Width: 1024
GlyphClass: 2
Flags: W
LayerCount: 2
Fore
SplineSet
640 1073 m 0,0,1
 692 1125 692 1125 692 1200 c 256,2,3
 692 1275 692 1275 639 1328.5 c 128,-1,4
 586 1382 586 1382 512 1382 c 0,5,6
 436 1382 436 1382 384 1329.5 c 128,-1,7
 332 1277 332 1277 332 1200 c 0,8,9
 332 1124 332 1124 383.5 1073 c 128,-1,10
 435 1022 435 1022 512 1022 c 0,11,12
 588 1022 588 1022 640 1073 c 0,0,1
635 1495 m 0,13,14
 694 1471 694 1471 737 1425 c 0,15,16
 783 1380 783 1380 806 1323 c 128,-1,17
 829 1266 829 1266 829 1200 c 0,18,19
 829 1068 829 1068 736.5 976.5 c 128,-1,20
 644 885 644 885 510 885 c 0,21,22
 375 885 375 885 285 975 c 128,-1,23
 195 1065 195 1065 195 1200 c 0,24,25
 195 1334 195 1334 287 1427 c 128,-1,26
 379 1520 379 1520 512 1520 c 0,27,28
 576 1520 576 1520 635 1495 c 0,13,14
EndSplineSet
Validated: 1
EndChar

StartChar: paragraph
Encoding: 182 182 41
Width: 1303
GlyphClass: 2
Flags: W
LayerCount: 2
Fore
SplineSet
1053 -197 m 1,0,-1
 946 -197 l 1,1,-1
 946 1386 l 1,2,-1
 715 1386 l 1,3,-1
 715 -197 l 1,4,-1
 608 -197 l 1,5,-1
 608 649 l 1,6,7
 393 666 393 666 275.5 776.5 c 128,-1,8
 158 887 158 887 158 1071 c 0,9,10
 158 1261 158 1261 288 1377 c 128,-1,11
 418 1493 418 1493 633 1493 c 2,12,-1
 1171 1493 l 1,13,-1
 1171 1386 l 1,14,-1
 1053 1386 l 1,15,-1
 1053 -197 l 1,0,-1
EndSplineSet
Validated: 1
EndChar

StartChar: periodcentered
Encoding: 183 183 42
Width: 651
GlyphClass: 2
Flags: W
LayerCount: 2
Fore
SplineSet
457 711 m 0,0,1
 457 655 457 655 418 616.5 c 128,-1,2
 379 578 379 578 324 578 c 0,3,4
 267 578 267 578 228.5 616 c 128,-1,5
 190 654 190 654 190 711 c 0,6,7
 190 767 190 767 228.5 805.5 c 128,-1,8
 267 844 267 844 324 844 c 0,9,10
 379 844 379 844 418 805 c 128,-1,11
 457 766 457 766 457 711 c 0,0,1
EndSplineSet
Validated: 1
EndChar

StartChar: guillemotright
Encoding: 187 187 43
Width: 1253
GlyphClass: 2
Flags: W
LayerCount: 2
Fore
SplineSet
1096 559 m 1,0,-1
 627 141 l 1,1,-1
 627 256 l 1,2,-1
 924 600 l 1,3,-1
 627 944 l 1,4,-1
 627 1059 l 1,5,-1
 1096 641 l 1,6,-1
 1096 559 l 1,0,-1
662 559 m 1,7,-1
 193 141 l 1,8,-1
 193 256 l 1,9,-1
 489 600 l 1,10,-1
 193 944 l 1,11,-1
 193 1059 l 1,12,-1
 662 641 l 1,13,-1
 662 559 l 1,7,-1
EndSplineSet
Validated: 1
Substitution2: "'calt' Contextual Alternates in Arabic lookup 9 subtable" guillemotright.fa
EndChar

StartChar: divide
Encoding: 247 247 44
Width: 1716
GlyphClass: 2
Flags: W
LayerCount: 2
Fore
SplineSet
991 1012 m 0,0,1
 991 956 991 956 952 917.5 c 128,-1,2
 913 879 913 879 858 879 c 0,3,4
 801 879 801 879 763 917 c 128,-1,5
 725 955 725 955 725 1012 c 0,6,7
 725 1068 725 1068 763.5 1106.5 c 128,-1,8
 802 1145 802 1145 858 1145 c 0,9,10
 913 1145 913 1145 952 1106 c 128,-1,11
 991 1067 991 1067 991 1012 c 0,0,1
991 272 m 0,12,13
 991 217 991 217 952 178 c 128,-1,14
 913 139 913 139 858 139 c 0,15,16
 801 139 801 139 763 177.5 c 128,-1,17
 725 216 725 216 725 272 c 256,18,19
 725 328 725 328 763.5 367 c 128,-1,20
 802 406 802 406 858 406 c 0,21,22
 913 406 913 406 952 367 c 128,-1,23
 991 328 991 328 991 272 c 0,12,13
1499 561 m 1,24,-1
 217 561 l 1,25,-1
 217 723 l 1,26,-1
 1499 723 l 1,27,-1
 1499 561 l 1,24,-1
EndSplineSet
Validated: 1
EndChar

StartChar: emdash
Encoding: 8212 8212 45
Width: 2048
GlyphClass: 2
Flags: W
LayerCount: 2
Fore
SplineSet
2048 477 m 1,0,-1
 0 477 l 1,1,-1
 0 610 l 1,2,-1
 2048 610 l 1,3,-1
 2048 477 l 1,0,-1
EndSplineSet
Validated: 1
EndChar

StartChar: bullet
Encoding: 8226 8226 46
Width: 1208
GlyphClass: 2
Flags: W
LayerCount: 2
Fore
SplineSet
814 550 m 0,0,1
 728 463 728 463 604 463 c 256,2,3
 480 463 480 463 393.5 549.5 c 128,-1,4
 307 636 307 636 307 762 c 0,5,6
 307 886 307 886 393.5 971.5 c 128,-1,7
 480 1057 480 1057 606 1057 c 0,8,9
 730 1057 730 1057 815.5 971.5 c 128,-1,10
 901 886 901 886 901 762 c 0,11,12
 901 637 901 637 814 550 c 0,0,1
EndSplineSet
Validated: 1
EndChar

StartChar: ellipsis
Encoding: 8230 8230 47
Width: 2048
GlyphClass: 2
Flags: W
LayerCount: 2
Fore
SplineSet
1839 104 m 0,0,1
 1839 49 1839 49 1800 10 c 128,-1,2
 1761 -29 1761 -29 1706 -29 c 0,3,4
 1649 -29 1649 -29 1611 9.5 c 128,-1,5
 1573 48 1573 48 1573 104 c 256,6,7
 1573 160 1573 160 1611.5 199 c 128,-1,8
 1650 238 1650 238 1706 238 c 0,9,10
 1761 238 1761 238 1800 199 c 128,-1,11
 1839 160 1839 160 1839 104 c 0,0,1
1157 104 m 0,12,13
 1157 49 1157 49 1118 10 c 128,-1,14
 1079 -29 1079 -29 1024 -29 c 0,15,16
 967 -29 967 -29 929 9.5 c 128,-1,17
 891 48 891 48 891 104 c 256,18,19
 891 160 891 160 929.5 199 c 128,-1,20
 968 238 968 238 1024 238 c 0,21,22
 1079 238 1079 238 1118 199 c 128,-1,23
 1157 160 1157 160 1157 104 c 0,12,13
475 104 m 0,24,25
 475 49 475 49 436 10 c 128,-1,26
 397 -29 397 -29 342 -29 c 0,27,28
 285 -29 285 -29 247 9.5 c 128,-1,29
 209 48 209 48 209 104 c 256,30,31
 209 160 209 160 247.5 199 c 128,-1,32
 286 238 286 238 342 238 c 0,33,34
 397 238 397 238 436 199 c 128,-1,35
 475 160 475 160 475 104 c 0,24,25
EndSplineSet
Validated: 1
Substitution2: "'calt' Contextual Alternates in Arabic lookup 9 subtable" ellipsis.fa
EndChar

StartChar: multiply
Encoding: 215 215 49
Width: 1716
GlyphClass: 2
Flags: W
LayerCount: 2
Fore
SplineSet
1434 180 m 1,0,-1
 1319 68 l 1,1,-1
 858 528 l 1,2,-1
 397 68 l 1,3,-1
 283 180 l 1,4,-1
 743 641 l 1,5,-1
 283 1104 l 1,6,-1
 397 1217 l 1,7,-1
 858 756 l 1,8,-1
 1319 1217 l 1,9,-1
 1434 1104 l 1,10,-1
 971 641 l 1,11,-1
 1434 180 l 1,0,-1
EndSplineSet
Validated: 1
EndChar

StartChar: uni200C
Encoding: 8204 8204 50
Width: 0
GlyphClass: 2
Flags: W
LayerCount: 2
Fore
SplineSet
45 -800 m 1,0,-1
 0 -800 l 1,1,-1
 0 1248 l 1,2,-1
 45 1248 l 1,3,-1
 45 -800 l 1,0,-1
EndSplineSet
Validated: 1
EndChar

StartChar: uni200D
Encoding: 8205 8205 51
Width: 0
GlyphClass: 2
Flags: W
LayerCount: 2
Fore
SplineSet
44 -800 m 1,0,-1
 0 -800 l 1,1,-1
 0 1057 l 1,2,-1
 -85 973 l 1,3,-1
 -115 1003 l 1,4,-1
 -8 1110 l 1,5,-1
 -115 1217 l 1,6,-1
 -85 1247 l 1,7,-1
 22 1140 l 1,8,-1
 129 1247 l 1,9,-1
 159 1217 l 1,10,-1
 52 1110 l 1,11,-1
 159 1003 l 1,12,-1
 129 973 l 1,13,-1
 44 1058 l 1,14,-1
 44 -800 l 1,0,-1
EndSplineSet
Validated: 1
EndChar

StartChar: uni200E
Encoding: 8206 8206 52
Width: 0
GlyphClass: 2
Flags: W
LayerCount: 2
Fore
SplineSet
45 -800 m 1,0,-1
 0 -800 l 1,1,-1
 0 1123 l 1,2,-1
 217 1123 l 1,3,-1
 135 1205 l 1,4,-1
 166 1236 l 1,5,-1
 303 1099 l 1,6,-1
 166 961 l 1,7,-1
 135 992 l 1,8,-1
 221 1078 l 1,9,-1
 45 1078 l 1,10,-1
 45 -800 l 1,0,-1
EndSplineSet
Validated: 1
EndChar

StartChar: uni200F
Encoding: 8207 8207 53
Width: 0
GlyphClass: 2
Flags: W
LayerCount: 2
Fore
SplineSet
45 -800 m 1,0,-1
 0 -800 l 1,1,-1
 0 1078 l 1,2,-1
 -176 1078 l 1,3,-1
 -90 992 l 1,4,-1
 -121 961 l 1,5,-1
 -258 1099 l 1,6,-1
 -121 1236 l 1,7,-1
 -90 1205 l 1,8,-1
 -172 1123 l 1,9,-1
 45 1123 l 1,10,-1
 45 -800 l 1,0,-1
EndSplineSet
Validated: 1
EndChar

StartChar: hyphen
Encoding: 8208 8208 54
Width: 692
GlyphClass: 2
Flags: W
LayerCount: 2
Fore
SplineSet
602 471 m 1,0,-1
 90 471 l 1,1,-1
 90 627 l 1,2,-1
 602 627 l 1,3,-1
 602 471 l 1,0,-1
EndSplineSet
Validated: 1
EndChar

StartChar: Euro
Encoding: 8364 8364 55
Width: 1303
GlyphClass: 2
Flags: W
LayerCount: 2
Fore
SplineSet
1137 395 m 1,0,1
 1094 190 1094 190 978.5 80.5 c 128,-1,2
 863 -29 863 -29 690 -29 c 0,3,4
 501 -29 501 -29 365 123 c 128,-1,5
 229 275 229 275 182 539 c 1,6,-1
 -8 539 l 1,7,-1
 37 643 l 1,8,-1
 172 643 l 1,9,10
 171 658 171 658 170 682 c 0,11,12
 168 731 168 731 168 745 c 0,13,14
 168 779 168 779 169 803 c 128,-1,15
 170 827 170 827 172 850 c 1,16,-1
 -8 850 l 1,17,-1
 37 954 l 1,18,-1
 182 954 l 1,19,20
 229 1218 229 1218 364.5 1369 c 128,-1,21
 500 1520 500 1520 690 1520 c 0,22,23
 789 1520 789 1520 888.5 1489 c 128,-1,24
 988 1458 988 1458 1112 1389 c 1,25,-1
 1112 1047 l 1,26,-1
 1006 1047 l 1,27,28
 986 1227 986 1227 909.5 1324 c 128,-1,29
 833 1421 833 1421 711 1421 c 0,30,31
 575 1421 575 1421 492.5 1302 c 128,-1,32
 410 1183 410 1183 389 954 c 1,33,-1
 893 954 l 1,34,-1
 846 850 l 1,35,-1
 383 850 l 1,36,37
 382 836 382 836 381 813 c 0,38,39
 379 762 379 762 379 745 c 0,40,41
 379 736 379 736 380 702 c 128,-1,42
 381 668 381 668 381 643 c 1,43,-1
 756 643 l 1,44,-1
 709 539 l 1,45,-1
 389 539 l 1,46,47
 412 309 412 309 494 189.5 c 128,-1,48
 576 70 576 70 711 70 c 0,49,50
 827 70 827 70 902.5 153.5 c 128,-1,51
 978 237 978 237 1004 395 c 1,52,-1
 1137 395 l 1,0,1
EndSplineSet
Validated: 1
EndChar

StartChar: minus
Encoding: 8722 8722 56
Width: 1716
GlyphClass: 2
Flags: W
LayerCount: 2
Fore
SplineSet
1499 561 m 1,0,-1
 217 561 l 1,1,-1
 217 723 l 1,2,-1
 1499 723 l 1,3,-1
 1499 561 l 1,0,-1
EndSplineSet
Validated: 1
EndChar

StartChar: uni2219
Encoding: 8729 8729 57
Width: 651
GlyphClass: 2
Flags: W
LayerCount: 2
Fore
SplineSet
457 711 m 0,0,1
 457 655 457 655 418 616.5 c 128,-1,2
 379 578 379 578 324 578 c 0,3,4
 267 578 267 578 228.5 616 c 128,-1,5
 190 654 190 654 190 711 c 0,6,7
 190 767 190 767 228.5 805.5 c 128,-1,8
 267 844 267 844 324 844 c 0,9,10
 379 844 379 844 418 805 c 128,-1,11
 457 766 457 766 457 711 c 0,0,1
EndSplineSet
Validated: 1
EndChar

StartChar: uni25CC
Encoding: 9676 9676 58
Width: 1526
GlyphClass: 2
Flags: W
AnchorPoint: "Anchor-5" 765 -390 basechar 0
AnchorPoint: "Anchor-4" 735 1380 basechar 0
LayerCount: 2
Fore
SplineSet
1121 934 m 1,0,1
 1087 961 1087 961 1049 982.5 c 128,-1,2
 1011 1004 1011 1004 969 1020 c 1,3,-1
 1004 1115 l 1,4,5
 1055 1095 1055 1095 1101.5 1068 c 128,-1,6
 1148 1041 1148 1041 1190 1007 c 1,7,-1
 1121 934 l 1,0,1
557 1021 m 1,8,9
 514 1004 514 1004 475 981.5 c 128,-1,10
 436 959 436 959 401 930 c 1,11,-1
 340 1010 l 1,12,13
 423 1078 423 1078 522 1116 c 1,14,-1
 557 1021 l 1,8,9
319 846 m 1,15,16
 261 775 261 775 229 691 c 1,17,-1
 134 727 l 1,18,19
 154 777 154 777 180 822.5 c 128,-1,20
 206 868 206 868 239 909 c 1,21,-1
 319 846 l 1,15,16
98 382 m 1,22,23
 94 408 94 408 92 433.5 c 128,-1,24
 90 459 90 459 90 486 c 256,25,26
 90 513 90 513 92 540 c 128,-1,27
 94 567 94 567 98 593 c 1,28,-1
 198 576 l 1,29,30
 195 554 195 554 193 531.5 c 128,-1,31
 191 509 191 509 191 486 c 256,32,33
 191 463 191 463 193 441 c 128,-1,34
 195 419 195 419 198 396 c 1,35,-1
 98 382 l 1,22,23
239 64 m 1,36,37
 172 147 172 147 134 246 c 1,38,-1
 229 281 l 1,39,40
 261 197 261 197 319 126 c 1,41,-1
 239 64 l 1,36,37
521 -141 m 1,42,43
 422 -103 422 -103 339 -36 c 1,44,-1
 403 42 l 1,45,46
 474 -15 474 -15 555 -46 c 1,47,-1
 521 -141 l 1,42,43
867 -178 m 1,48,49
 841 -182 841 -182 815 -184 c 128,-1,50
 789 -186 789 -186 762 -186 c 0,51,52
 736 -186 736 -186 710.5 -184 c 128,-1,53
 685 -182 685 -182 659 -178 c 1,54,-1
 671 -78 l 1,55,56
 693 -81 693 -81 716 -83 c 128,-1,57
 739 -85 739 -85 762 -85 c 256,58,59
 785 -85 785 -85 807.5 -83 c 128,-1,60
 830 -81 830 -81 851 -78 c 1,61,-1
 867 -178 l 1,48,49
1184 -37 m 1,62,63
 1143 -70 1143 -70 1098 -96.5 c 128,-1,64
 1053 -123 1053 -123 1003 -142 c 1,65,-1
 968 -47 l 1,66,67
 1010 -31 1010 -31 1048.5 -8.5 c 128,-1,68
 1087 14 1087 14 1122 43 c 1,69,-1
 1184 -37 l 1,62,63
1391 246 m 1,70,71
 1371 196 1371 196 1345 150.5 c 128,-1,72
 1319 105 1319 105 1285 63 c 1,73,-1
 1208 127 l 1,74,75
 1265 196 1265 196 1298 282 c 1,76,-1
 1391 246 l 1,70,71
1328 399 m 1,77,78
 1335 440 1335 440 1335 486 c 0,79,80
 1335 510 1335 510 1333 533 c 128,-1,81
 1331 556 1331 556 1328 578 c 1,82,-1
 1427 589 l 1,83,84
 1436 539 1436 539 1436 486 c 0,85,86
 1436 432 1436 432 1427 381 c 1,87,-1
 1328 399 l 1,77,78
1298 691 m 1,88,89
 1281 733 1281 733 1259 772.5 c 128,-1,90
 1237 812 1237 812 1209 846 c 1,91,-1
 1285 910 l 1,92,93
 1352 826 1352 826 1391 727 c 1,94,-1
 1298 691 l 1,88,89
854 1052 m 1,95,96
 831 1055 831 1055 808.5 1057 c 128,-1,97
 786 1059 786 1059 762 1059 c 0,98,99
 739 1059 739 1059 716 1057 c 128,-1,100
 693 1055 693 1055 671 1052 c 1,101,-1
 656 1152 l 1,102,103
 682 1156 682 1156 708.5 1158 c 128,-1,104
 735 1160 735 1160 762 1160 c 0,105,106
 788 1160 788 1160 814.5 1158 c 128,-1,107
 841 1156 841 1156 867 1152 c 1,108,-1
 854 1052 l 1,95,96
EndSplineSet
Validated: 1
EndChar

StartChar: uni060C
Encoding: 1548 1548 59
Width: 651
GlyphClass: 2
Flags: W
LayerCount: 2
Fore
SplineSet
74 0 m 1,0,1
 74 47 74 47 87.5 110.5 c 128,-1,2
 101 174 101 174 134.5 243 c 128,-1,3
 168 312 168 312 225 380.5 c 128,-1,4
 282 449 282 449 371 506 c 1,5,-1
 453 423 l 1,6,7
 402 385 402 385 368.5 337 c 128,-1,8
 335 289 335 289 314 235 c 128,-1,9
 293 181 293 181 283 121.5 c 128,-1,10
 273 62 273 62 269 0 c 1,11,-1
 74 0 l 1,0,1
EndSplineSet
Validated: 1
Substitution2: "'calt' Contextual Alternates in Arabic lookup 9 subtable" uni060C.fa
EndChar

StartChar: uni061B
Encoding: 1563 1563 60
Width: 690
GlyphClass: 2
Flags: W
LayerCount: 2
Fore
SplineSet
340 105 m 0,0,1
 340 78 340 78 330.5 54 c 128,-1,2
 321 30 321 30 304 11.5 c 128,-1,3
 287 -7 287 -7 262.5 -17.5 c 128,-1,4
 238 -28 238 -28 207 -28 c 0,5,6
 180 -28 180 -28 156 -17.5 c 128,-1,7
 132 -7 132 -7 113.5 11.5 c 128,-1,8
 95 30 95 30 84.5 54 c 128,-1,9
 74 78 74 78 74 105 c 0,10,11
 74 136 74 136 84.5 160.5 c 128,-1,12
 95 185 95 185 113.5 202 c 128,-1,13
 132 219 132 219 156 228.5 c 128,-1,14
 180 238 180 238 207 238 c 0,15,16
 269 238 269 238 304.5 202.5 c 128,-1,17
 340 167 340 167 340 105 c 0,0,1
104 634 m 1,18,19
 104 681 104 681 117.5 744.5 c 128,-1,20
 131 808 131 808 164.5 877 c 128,-1,21
 198 946 198 946 255 1014.5 c 128,-1,22
 312 1083 312 1083 401 1140 c 1,23,-1
 483 1057 l 1,24,25
 432 1019 432 1019 398.5 971 c 128,-1,26
 365 923 365 923 344 869 c 128,-1,27
 323 815 323 815 313 755.5 c 128,-1,28
 303 696 303 696 299 634 c 1,29,-1
 104 634 l 1,18,19
EndSplineSet
Validated: 1
Substitution2: "'calt' Contextual Alternates in Arabic lookup 9 subtable" uni061B.fa
EndChar

StartChar: uni061F
Encoding: 1567 1567 61
Width: 1098
GlyphClass: 2
Flags: W
LayerCount: 2
Fore
SplineSet
784 104 m 0,0,1
 784 77 784 77 774.5 53 c 128,-1,2
 765 29 765 29 748 11 c 128,-1,3
 731 -7 731 -7 706.5 -18 c 128,-1,4
 682 -29 682 -29 651 -29 c 0,5,6
 624 -29 624 -29 600 -18 c 128,-1,7
 576 -7 576 -7 557.5 11 c 128,-1,8
 539 29 539 29 528.5 53 c 128,-1,9
 518 77 518 77 518 104 c 0,10,11
 518 135 518 135 528.5 159.5 c 128,-1,12
 539 184 539 184 557.5 201.5 c 128,-1,13
 576 219 576 219 600 228.5 c 128,-1,14
 624 238 624 238 651 238 c 0,15,16
 713 238 713 238 748.5 202 c 128,-1,17
 784 166 784 166 784 104 c 0,0,1
712 402 m 1,18,-1
 579 402 l 1,19,-1
 579 648 l 1,20,21
 493 677 493 677 413.5 717 c 128,-1,22
 334 757 334 757 273 814 c 128,-1,23
 212 871 212 871 175.5 948.5 c 128,-1,24
 139 1026 139 1026 139 1130 c 0,25,26
 139 1230 139 1230 179.5 1303.5 c 128,-1,27
 220 1377 220 1377 287 1425 c 128,-1,28
 354 1473 354 1473 441 1496.5 c 128,-1,29
 528 1520 528 1520 620 1520 c 0,30,31
 659 1520 659 1520 713 1512.5 c 128,-1,32
 767 1505 767 1505 821.5 1492.5 c 128,-1,33
 876 1480 876 1480 924 1463.5 c 128,-1,34
 972 1447 972 1447 999 1428 c 1,35,-1
 999 1171 l 1,36,-1
 907 1171 l 1,37,38
 891 1287 891 1287 818.5 1352 c 128,-1,39
 746 1417 746 1417 630 1417 c 0,40,41
 565 1417 565 1417 515 1395 c 128,-1,42
 465 1373 465 1373 431.5 1335 c 128,-1,43
 398 1297 398 1297 381 1244 c 128,-1,44
 364 1191 364 1191 364 1130 c 0,45,46
 364 1049 364 1049 389.5 982.5 c 128,-1,47
 415 916 415 916 461.5 865 c 128,-1,48
 508 814 508 814 571.5 779.5 c 128,-1,49
 635 745 635 745 712 730 c 1,50,-1
 712 402 l 1,18,-1
EndSplineSet
Validated: 1
EndChar

StartChar: uni0621
Encoding: 1569 1569 62
Width: 769
GlyphClass: 2
Flags: W
AnchorPoint: "Anchor-1" 375 60 basechar 0
AnchorPoint: "Anchor-0" 360 975 basechar 0
LayerCount: 2
Fore
SplineSet
281 309 m 1,0,1
 205 329 205 329 166 369 c 128,-1,2
 127 409 127 409 127 463 c 0,3,4
 127 476 127 476 130.5 494 c 128,-1,5
 134 512 134 512 136 526 c 1,6,7
 193 583 193 583 232 624.5 c 128,-1,8
 271 666 271 666 302 693 c 128,-1,9
 333 720 333 720 362 733 c 128,-1,10
 391 746 391 746 427 746 c 0,11,12
 457 746 457 746 480.5 742.5 c 128,-1,13
 504 739 504 739 526 729 c 128,-1,14
 548 719 548 719 572 700.5 c 128,-1,15
 596 682 596 682 627 653 c 1,16,17
 599 629 599 629 570 605.5 c 128,-1,18
 541 582 541 582 512 559 c 1,19,20
 487 584 487 584 456.5 600 c 128,-1,21
 426 616 426 616 394 616 c 0,22,23
 374 616 374 616 352 609 c 128,-1,24
 330 602 330 602 310 589 c 128,-1,25
 290 576 290 576 272.5 557.5 c 128,-1,26
 255 539 255 539 243 516 c 1,27,28
 247 462 247 462 301 425 c 128,-1,29
 355 388 355 388 440 377 c 1,30,31
 465 386 465 386 500 396 c 128,-1,32
 535 406 535 406 571 415 c 128,-1,33
 607 424 607 424 639 431 c 128,-1,34
 671 438 671 438 689 441 c 1,35,36
 676 403 676 403 664 365 c 128,-1,37
 652 327 652 327 638 289 c 1,38,39
 569 283 569 283 494.5 265.5 c 128,-1,40
 420 248 420 248 346.5 221 c 128,-1,41
 273 194 273 194 204.5 159.5 c 128,-1,42
 136 125 136 125 80 85 c 1,43,44
 85 115 85 115 88.5 147 c 128,-1,45
 92 179 92 179 97 210 c 1,46,47
 140 237 140 237 186.5 263 c 128,-1,48
 233 289 233 289 281 304 c 1,49,-1
 281 309 l 1,0,1
EndSplineSet
Validated: 1
Substitution2: "'isol' Isolated Forms in Arabic lookup 6 subtable" uni0621.isol
EndChar

StartChar: uni0640
Encoding: 1600 1600 63
Width: 704
GlyphClass: 2
Flags: W
AnchorPoint: "Anchor-1" 300 -110 basechar 0
AnchorPoint: "Anchor-0" 315 1000 basechar 0
LayerCount: 2
Fore
SplineSet
704 96 m 1,0,-1
 0 96 l 2,1,2
 -11 96 -11 96 -23.5 98.5 c 128,-1,3
 -36 101 -36 101 -46.5 106 c 128,-1,4
 -57 111 -57 111 -63.5 117 c 128,-1,5
 -70 123 -70 123 -70 131 c 2,6,-1
 -70 288 l 1,7,-1
 704 288 l 1,8,-1
 704 96 l 1,0,-1
EndSplineSet
Validated: 1
EndChar

StartChar: uni0660
Encoding: 1632 1632 64
Width: 1303
GlyphClass: 2
Flags: W
LayerCount: 2
Fore
SplineSet
930 777 m 1,0,1
 900 757 900 757 862.5 719.5 c 128,-1,2
 825 682 825 682 789 637 c 128,-1,3
 753 592 753 592 723.5 546 c 128,-1,4
 694 500 694 500 679 463 c 1,5,6
 661 492 661 492 626.5 528.5 c 128,-1,7
 592 565 592 565 549 601 c 128,-1,8
 506 637 506 637 459.5 667 c 128,-1,9
 413 697 413 697 372 712 c 1,10,11
 408 735 408 735 443.5 768.5 c 128,-1,12
 479 802 479 802 511 842 c 128,-1,13
 543 882 543 882 569.5 926.5 c 128,-1,14
 596 971 596 971 614 1017 c 1,15,16
 643 980 643 980 682 943 c 128,-1,17
 721 906 721 906 763.5 873.5 c 128,-1,18
 806 841 806 841 849 816 c 128,-1,19
 892 791 892 791 930 777 c 1,0,1
EndSplineSet
Validated: 1
EndChar

StartChar: uni0661
Encoding: 1633 1633 65
Width: 1303
GlyphClass: 2
Flags: W
LayerCount: 2
Fore
SplineSet
803 -85 m 1,0,-1
 803 -34 l 2,1,2
 803 92 803 92 794.5 202.5 c 128,-1,3
 786 313 786 313 765.5 418 c 128,-1,4
 745 523 745 523 712 626.5 c 128,-1,5
 679 730 679 730 630 840.5 c 128,-1,6
 581 951 581 951 514.5 1073.5 c 128,-1,7
 448 1196 448 1196 362 1340 c 1,8,9
 395 1400 395 1400 427 1460.5 c 128,-1,10
 459 1521 459 1521 491 1583 c 1,11,12
 586 1412 586 1412 656 1274.5 c 128,-1,13
 726 1137 726 1137 776 1020 c 128,-1,14
 826 903 826 903 858 800.5 c 128,-1,15
 890 698 890 698 908 597 c 128,-1,16
 926 496 926 496 933 389.5 c 128,-1,17
 940 283 940 283 940 159 c 2,18,-1
 940 100 l 1,19,-1
 803 -85 l 1,0,-1
EndSplineSet
Validated: 1
EndChar

StartChar: uni0662
Encoding: 1634 1634 66
Width: 1303
GlyphClass: 2
Flags: W
LayerCount: 2
Fore
SplineSet
595 -85 m 1,0,1
 595 -71 595 -71 595.5 -57.5 c 128,-1,2
 596 -44 596 -44 596 -30 c 0,3,4
 593 97 593 97 583.5 207.5 c 128,-1,5
 574 318 574 318 554 422 c 128,-1,6
 534 526 534 526 502 628 c 128,-1,7
 470 730 470 730 422 840 c 128,-1,8
 374 950 374 950 308.5 1072.5 c 128,-1,9
 243 1195 243 1195 156 1340 c 1,10,11
 189 1400 189 1400 221 1460.5 c 128,-1,12
 253 1521 253 1521 286 1583 c 1,13,14
 347 1485 347 1485 400.5 1423.5 c 128,-1,15
 454 1362 454 1362 506 1327 c 128,-1,16
 558 1292 558 1292 611.5 1279 c 128,-1,17
 665 1266 665 1266 726 1266 c 256,18,19
 787 1266 787 1266 836.5 1281 c 128,-1,20
 886 1296 886 1296 925.5 1333.5 c 128,-1,21
 965 1371 965 1371 997 1433 c 128,-1,22
 1029 1495 1029 1495 1056 1590 c 1,23,24
 1078 1564 1078 1564 1100.5 1538 c 128,-1,25
 1123 1512 1123 1512 1146 1486 c 1,26,27
 1125 1382 1125 1382 1090 1300 c 128,-1,28
 1055 1218 1055 1218 1004.5 1161 c 128,-1,29
 954 1104 954 1104 887.5 1074 c 128,-1,30
 821 1044 821 1044 737 1044 c 0,31,32
 689 1044 689 1044 635.5 1058.5 c 128,-1,33
 582 1073 582 1073 536 1104 c 0,34,35
 534 1103 534 1103 533.5 1102 c 128,-1,36
 533 1101 533 1101 532 1100 c 0,37,38
 553 1055 553 1055 576 978.5 c 128,-1,39
 599 902 599 902 621.5 810.5 c 128,-1,40
 644 719 644 719 664.5 620.5 c 128,-1,41
 685 522 685 522 700.5 434 c 128,-1,42
 716 346 716 346 725.5 275.5 c 128,-1,43
 735 205 735 205 735 170 c 0,44,45
 735 131 735 131 721.5 97.5 c 128,-1,46
 708 64 708 64 687 33 c 128,-1,47
 666 2 666 2 641.5 -26.5 c 128,-1,48
 617 -55 617 -55 595 -85 c 1,0,1
EndSplineSet
Validated: 1
EndChar

StartChar: uni0663
Encoding: 1635 1635 67
Width: 1303
GlyphClass: 2
Flags: W
LayerCount: 2
Fore
SplineSet
523 -46 m 2,0,1
 523 -9 523 -9 512 56.5 c 128,-1,2
 501 122 501 122 482 207 c 128,-1,3
 463 292 463 292 436 392 c 128,-1,4
 409 492 409 492 377 597 c 128,-1,5
 345 702 345 702 309 808.5 c 128,-1,6
 273 915 273 915 235 1012.5 c 128,-1,7
 197 1110 197 1110 158 1194 c 128,-1,8
 119 1278 119 1278 82 1340 c 1,9,10
 114 1400 114 1400 146.5 1459 c 128,-1,11
 179 1518 179 1518 211 1578 c 1,12,13
 257 1488 257 1488 301 1429.5 c 128,-1,14
 345 1371 345 1371 387 1337 c 128,-1,15
 429 1303 429 1303 469.5 1289.5 c 128,-1,16
 510 1276 510 1276 549 1276 c 256,17,18
 588 1276 588 1276 621 1292.5 c 128,-1,19
 654 1309 654 1309 678.5 1343.5 c 128,-1,20
 703 1378 703 1378 717 1432.5 c 128,-1,21
 731 1487 731 1487 731 1562 c 1,22,-1
 830 1562 l 1,23,24
 830 1501 830 1501 841 1451 c 128,-1,25
 852 1401 852 1401 872.5 1365 c 128,-1,26
 893 1329 893 1329 922.5 1309.5 c 128,-1,27
 952 1290 952 1290 989 1290 c 0,28,29
 1017 1290 1017 1290 1041.5 1304 c 128,-1,30
 1066 1318 1066 1318 1083.5 1353 c 128,-1,31
 1101 1388 1101 1388 1111 1448 c 128,-1,32
 1121 1508 1121 1508 1122 1600 c 1,33,34
 1146 1583 1146 1583 1171 1566.5 c 128,-1,35
 1196 1550 1196 1550 1221 1532 c 1,36,37
 1221 1407 1221 1407 1204 1322 c 128,-1,38
 1187 1237 1187 1237 1155.5 1185 c 128,-1,39
 1124 1133 1124 1133 1079.5 1111 c 128,-1,40
 1035 1089 1035 1089 981 1089 c 0,41,42
 935 1089 935 1089 902.5 1104 c 128,-1,43
 870 1119 870 1119 848.5 1143 c 128,-1,44
 827 1167 827 1167 815 1197.5 c 128,-1,45
 803 1228 803 1228 797 1259 c 1,46,-1
 793 1259 l 1,47,48
 791 1226 791 1226 777 1190 c 128,-1,49
 763 1154 763 1154 737 1123.5 c 128,-1,50
 711 1093 711 1093 672.5 1073 c 128,-1,51
 634 1053 634 1053 582 1053 c 0,52,53
 547 1053 547 1053 521.5 1059.5 c 128,-1,54
 496 1066 496 1066 467 1080 c 1,55,56
 482 1047 482 1047 498 996 c 128,-1,57
 514 945 514 945 530.5 882.5 c 128,-1,58
 547 820 547 820 563.5 749 c 128,-1,59
 580 678 580 678 594.5 606.5 c 128,-1,60
 609 535 609 535 621.5 465 c 128,-1,61
 634 395 634 395 643 335 c 128,-1,62
 652 275 652 275 657 227 c 128,-1,63
 662 179 662 179 662 151 c 0,64,65
 662 120 662 120 647.5 89 c 128,-1,66
 633 58 633 58 612 28 c 128,-1,67
 591 -2 591 -2 566.5 -30.5 c 128,-1,68
 542 -59 542 -59 523 -85 c 1,69,-1
 523 -46 l 2,0,1
EndSplineSet
Validated: 1
EndChar

StartChar: uni0664
Encoding: 1636 1636 68
Width: 1303
GlyphClass: 2
Flags: W
LayerCount: 2
Fore
SplineSet
809 1323 m 1,0,1
 796 1321 796 1321 769 1311.5 c 128,-1,2
 742 1302 742 1302 708.5 1287.5 c 128,-1,3
 675 1273 675 1273 639.5 1253.5 c 128,-1,4
 604 1234 604 1234 574.5 1212.5 c 128,-1,5
 545 1191 545 1191 526 1168.5 c 128,-1,6
 507 1146 507 1146 507 1124 c 0,7,8
 507 1100 507 1100 531.5 1078 c 128,-1,9
 556 1056 556 1056 592.5 1035.5 c 128,-1,10
 629 1015 629 1015 671.5 995 c 128,-1,11
 714 975 714 975 750.5 955.5 c 128,-1,12
 787 936 787 936 811.5 917.5 c 128,-1,13
 836 899 836 899 836 881 c 0,14,15
 836 857 836 857 818.5 825.5 c 128,-1,16
 801 794 801 794 776 760 c 128,-1,17
 751 726 751 726 722.5 692.5 c 128,-1,18
 694 659 694 659 672 629 c 0,19,20
 651 601 651 601 624.5 563 c 128,-1,21
 598 525 598 525 575.5 488 c 128,-1,22
 553 451 553 451 537.5 420.5 c 128,-1,23
 522 390 522 390 522 376 c 0,24,25
 522 344 522 344 562 318 c 128,-1,26
 602 292 602 292 667.5 271 c 128,-1,27
 733 250 733 250 815.5 233.5 c 128,-1,28
 898 217 898 217 982 204 c 1,29,30
 953 136 953 136 931 81 c 0,31,32
 921 58 921 58 912 35.5 c 128,-1,33
 903 13 903 13 896 -4.5 c 128,-1,34
 889 -22 889 -22 884.5 -33 c 128,-1,35
 880 -44 880 -44 880 -45 c 1,36,37
 707 -11 707 -11 594.5 25.5 c 128,-1,38
 482 62 482 62 415.5 102.5 c 128,-1,39
 349 143 349 143 322.5 187.5 c 128,-1,40
 296 232 296 232 296 282 c 256,41,42
 296 332 296 332 317 384 c 128,-1,43
 338 436 338 436 369 485 c 128,-1,44
 400 534 400 534 437 578 c 128,-1,45
 474 622 474 622 505 657 c 128,-1,46
 536 692 536 692 557 715 c 128,-1,47
 578 738 578 738 578 745 c 0,48,49
 578 756 578 756 557.5 770 c 128,-1,50
 537 784 537 784 506.5 801 c 128,-1,51
 476 818 476 818 440 839.5 c 128,-1,52
 404 861 404 861 373.5 888 c 128,-1,53
 343 915 343 915 322.5 948.5 c 128,-1,54
 302 982 302 982 302 1024 c 0,55,56
 302 1083 302 1083 325.5 1141.5 c 128,-1,57
 349 1200 349 1200 389.5 1254.5 c 128,-1,58
 430 1309 430 1309 484.5 1357 c 128,-1,59
 539 1405 539 1405 602 1443.5 c 128,-1,60
 665 1482 665 1482 733 1509.5 c 128,-1,61
 801 1537 801 1537 868 1550 c 1,62,-1
 809 1323 l 1,0,1
EndSplineSet
Validated: 1
EndChar

StartChar: uni0665
Encoding: 1637 1637 69
Width: 1303
GlyphClass: 2
Flags: W
LayerCount: 2
Fore
SplineSet
981 380 m 0,0,1
 877 218 877 218 579 218 c 0,2,3
 514 218 514 218 449.5 232.5 c 128,-1,4
 385 247 385 247 333 275.5 c 128,-1,5
 281 304 281 304 249 347 c 128,-1,6
 217 390 217 390 217 446 c 0,7,8
 217 727 217 727 349 933 c 0,9,10
 484 1141 484 1141 631 1141 c 0,11,12
 707 1141 707 1141 781 1109 c 128,-1,13
 855 1077 855 1077 933 1012 c 0,14,15
 1085 885 1085 885 1085 735 c 0,16,17
 1085 541 1085 541 981 380 c 0,0,1
953 580 m 0,18,19
 953 631 953 631 914.5 683.5 c 128,-1,20
 876 736 876 736 800 794 c 0,21,22
 648 909 648 909 543 909 c 0,23,24
 508 909 508 909 476 881 c 128,-1,25
 444 853 444 853 419.5 811.5 c 128,-1,26
 395 770 395 770 380 723.5 c 128,-1,27
 365 677 365 677 365 640 c 0,28,29
 365 476 365 476 717 476 c 0,30,31
 953 476 953 476 953 580 c 0,18,19
EndSplineSet
Validated: 1
EndChar

StartChar: uni0666
Encoding: 1638 1638 70
Width: 1303
GlyphClass: 2
Flags: W
LayerCount: 2
Fore
SplineSet
1062 -62 m 1,0,1
 1001 -22 1001 -22 950 32 c 128,-1,2
 899 86 899 86 861.5 154 c 128,-1,3
 824 222 824 222 802.5 303.5 c 128,-1,4
 781 385 781 385 778 481 c 256,5,6
 775 577 775 577 773.5 659 c 128,-1,7
 772 741 772 741 771.5 813.5 c 128,-1,8
 771 886 771 886 770.5 951.5 c 128,-1,9
 770 1017 770 1017 770 1079 c 1,10,11
 728 1068 728 1068 692 1062 c 128,-1,12
 656 1056 656 1056 623 1053.5 c 128,-1,13
 590 1051 590 1051 557 1050.5 c 128,-1,14
 524 1050 524 1050 488 1050 c 0,15,16
 469 1050 469 1050 440.5 1057.5 c 128,-1,17
 412 1065 412 1065 380 1081 c 128,-1,18
 348 1097 348 1097 315 1123 c 128,-1,19
 282 1149 282 1149 253 1185 c 128,-1,20
 224 1221 224 1221 202 1269 c 128,-1,21
 180 1317 180 1317 170 1377 c 0,22,23
 170 1378 170 1378 177 1389 c 128,-1,24
 184 1400 184 1400 192 1413.5 c 128,-1,25
 200 1427 200 1427 207 1437.5 c 128,-1,26
 214 1448 214 1448 214 1447 c 0,27,28
 271 1380 271 1380 360.5 1349.5 c 128,-1,29
 450 1319 450 1319 581 1319 c 0,30,31
 644 1319 644 1319 739 1334 c 128,-1,32
 834 1349 834 1349 943 1379 c 1,33,34
 896 1173 896 1173 896 993 c 0,35,36
 896 565 896 565 954 434 c 0,37,38
 983 368 983 368 1016.5 320.5 c 128,-1,39
 1050 273 1050 273 1107 244 c 1,40,-1
 1062 -62 l 1,0,1
EndSplineSet
Validated: 1
EndChar

StartChar: uni0667
Encoding: 1639 1639 71
Width: 1303
GlyphClass: 2
Flags: W
LayerCount: 2
Fore
SplineSet
608 -18 m 1,0,1
 583 210 583 210 535 403 c 128,-1,2
 487 596 487 596 421 755 c 128,-1,3
 355 914 355 914 272.5 1040 c 128,-1,4
 190 1166 190 1166 96 1261 c 1,5,-1
 189 1583 l 1,6,7
 277 1490 277 1490 355.5 1355.5 c 128,-1,8
 434 1221 434 1221 496 1055 c 128,-1,9
 558 889 558 889 600 698.5 c 128,-1,10
 642 508 642 508 657 304 c 1,11,-1
 662 304 l 1,12,13
 681 513 681 513 725.5 704 c 128,-1,14
 770 895 770 895 834 1059.5 c 128,-1,15
 898 1224 898 1224 977 1357 c 128,-1,16
 1056 1490 1056 1490 1145 1583 c 1,17,-1
 1207 1258 l 1,18,19
 1130 1191 1130 1191 1056 1077 c 128,-1,20
 982 963 982 963 917 803 c 128,-1,21
 852 643 852 643 798.5 437.5 c 128,-1,22
 745 232 745 232 709 -18 c 1,23,-1
 608 -18 l 1,0,1
EndSplineSet
Validated: 1
EndChar

StartChar: uni0668
Encoding: 1640 1640 72
Width: 1303
GlyphClass: 2
Flags: W
LayerCount: 2
Fore
SplineSet
1119 -38 m 1,0,1
 1030 50 1030 50 951.5 182 c 128,-1,2
 873 314 873 314 811 478 c 128,-1,3
 749 642 749 642 706 834 c 128,-1,4
 663 1026 663 1026 647 1234 c 1,5,-1
 643 1234 l 1,6,7
 625 1028 625 1028 581 837.5 c 128,-1,8
 537 647 537 647 473 483 c 128,-1,9
 409 319 409 319 329.5 186 c 128,-1,10
 250 53 250 53 162 -38 c 1,11,-1
 96 286 l 1,12,13
 172 349 172 349 246 461.5 c 128,-1,14
 320 574 320 574 385.5 734.5 c 128,-1,15
 451 895 451 895 505 1102.5 c 128,-1,16
 559 1310 559 1310 596 1565 c 1,17,-1
 697 1565 l 1,18,19
 723 1332 723 1332 770.5 1138 c 128,-1,20
 818 944 818 944 883.5 786 c 128,-1,21
 949 628 949 628 1030.5 504.5 c 128,-1,22
 1112 381 1112 381 1207 289 c 1,23,-1
 1119 -38 l 1,0,1
EndSplineSet
Validated: 1
EndChar

StartChar: uni0669
Encoding: 1641 1641 73
Width: 1303
GlyphClass: 2
Flags: W
LayerCount: 2
Fore
SplineSet
1159 236 m 1,0,1
 1143 167 1143 167 1126.5 99.5 c 128,-1,2
 1110 32 1110 32 1093 -37 c 1,3,4
 1034 -2 1034 -2 986 38.5 c 128,-1,5
 938 79 938 79 899.5 132 c 128,-1,6
 861 185 861 185 831.5 253.5 c 128,-1,7
 802 322 802 322 781 413 c 128,-1,8
 760 504 760 504 746 621 c 128,-1,9
 732 738 732 738 725 888 c 1,10,11
 710 870 710 870 680.5 853.5 c 128,-1,12
 651 837 651 837 615 824 c 128,-1,13
 579 811 579 811 540.5 803 c 128,-1,14
 502 795 502 795 471 795 c 0,15,16
 374 795 374 795 291 840 c 128,-1,17
 208 885 208 885 144 964 c 1,18,19
 145 1062 145 1062 158 1151.5 c 128,-1,20
 171 1241 171 1241 197.5 1318.5 c 128,-1,21
 224 1396 224 1396 266 1459.5 c 128,-1,22
 308 1523 308 1523 367 1570 c 1,23,24
 383 1577 383 1577 410 1580 c 128,-1,25
 437 1583 437 1583 460 1583 c 0,26,27
 559 1583 559 1583 632 1541 c 128,-1,28
 705 1499 705 1499 753 1422 c 128,-1,29
 801 1345 801 1345 825 1237.5 c 128,-1,30
 849 1130 849 1130 850 1000 c 0,31,32
 851 842 851 842 870.5 717 c 128,-1,33
 890 592 890 592 928.5 497.5 c 128,-1,34
 967 403 967 403 1024 338 c 128,-1,35
 1081 273 1081 273 1159 236 c 1,0,1
282 1122 m 1,36,37
 329 1073 329 1073 382 1051.5 c 128,-1,38
 435 1030 435 1030 497 1030 c 0,39,40
 518 1030 518 1030 546.5 1033.5 c 128,-1,41
 575 1037 575 1037 604 1043.5 c 128,-1,42
 633 1050 633 1050 658 1059 c 128,-1,43
 683 1068 683 1068 696 1079 c 1,44,45
 690 1140 690 1140 665.5 1190 c 128,-1,46
 641 1240 641 1240 605.5 1275 c 128,-1,47
 570 1310 570 1310 527 1329 c 128,-1,48
 484 1348 484 1348 442 1348 c 0,49,50
 419 1348 419 1348 394 1346 c 128,-1,51
 369 1344 369 1344 350 1337 c 1,52,53
 319 1308 319 1308 300.5 1256.5 c 128,-1,54
 282 1205 282 1205 281 1147 c 2,55,-1
 282 1122 l 1,36,37
EndSplineSet
Validated: 1
EndChar

StartChar: uni066A
Encoding: 1642 1642 74
Width: 1276
GlyphClass: 2
Flags: W
LayerCount: 2
Fore
SplineSet
568 1432 m 1,0,1
 544 1416 544 1416 513 1385 c 128,-1,2
 482 1354 482 1354 450.5 1316 c 128,-1,3
 419 1278 419 1278 390.5 1236 c 128,-1,4
 362 1194 362 1194 344 1157 c 1,5,6
 324 1189 324 1189 293.5 1221 c 128,-1,7
 263 1253 263 1253 228 1281.5 c 128,-1,8
 193 1310 193 1310 155 1334 c 128,-1,9
 117 1358 117 1358 82 1374 c 1,10,11
 114 1397 114 1397 145.5 1429 c 128,-1,12
 177 1461 177 1461 204 1497 c 128,-1,13
 231 1533 231 1533 252.5 1571 c 128,-1,14
 274 1609 274 1609 288 1645 c 1,15,16
 312 1612 312 1612 344.5 1581 c 128,-1,17
 377 1550 377 1550 413.5 1522.5 c 128,-1,18
 450 1495 450 1495 489.5 1471.5 c 128,-1,19
 529 1448 529 1448 568 1432 c 1,0,1
207 -205 m 1,20,-1
 82 -205 l 1,21,-1
 1077 1691 l 1,22,-1
 1202 1691 l 1,23,-1
 207 -205 l 1,20,-1
1194 118 m 1,24,25
 1170 101 1170 101 1138.5 69.5 c 128,-1,26
 1107 38 1107 38 1075.5 -0.5 c 128,-1,27
 1044 -39 1044 -39 1016 -80 c 128,-1,28
 988 -121 988 -121 970 -158 c 1,29,30
 949 -125 949 -125 918.5 -93.5 c 128,-1,31
 888 -62 888 -62 853 -33.5 c 128,-1,32
 818 -5 818 -5 780 18.5 c 128,-1,33
 742 42 742 42 706 57 c 1,34,35
 739 81 739 81 770.5 113 c 128,-1,36
 802 145 802 145 829 181.5 c 128,-1,37
 856 218 856 218 877.5 256 c 128,-1,38
 899 294 899 294 912 330 c 1,39,40
 936 297 936 297 968.5 265.5 c 128,-1,41
 1001 234 1001 234 1038.5 206.5 c 128,-1,42
 1076 179 1076 179 1115.5 156 c 128,-1,43
 1155 133 1155 133 1194 118 c 1,24,25
EndSplineSet
Validated: 1
EndChar

StartChar: uni066B
Encoding: 1643 1643 75
Width: 651
GlyphClass: 2
Flags: W
LayerCount: 2
Fore
SplineSet
12 -413 m 1,0,-1
 -110 -413 l 1,1,-1
 486 1154 l 1,2,-1
 616 1154 l 1,3,-1
 12 -413 l 1,0,-1
EndSplineSet
Validated: 1
Substitution2: "'calt' Contextual Alternates in Arabic lookup 10 subtable" uni066B.ar
EndChar

StartChar: uni066C
Encoding: 1644 1644 76
Width: 651
GlyphClass: 2
Flags: W
LayerCount: 2
Fore
SplineSet
85 -146 m 1,0,1
 158 -116 158 -116 217.5 -71.5 c 128,-1,2
 277 -27 277 -27 318 20 c 128,-1,3
 359 67 359 67 381.5 111.5 c 128,-1,4
 404 156 404 156 404 186 c 2,5,-1
 403 196 l 1,6,7
 389 185 389 185 373.5 181.5 c 128,-1,8
 358 178 358 178 346 178 c 0,9,10
 322 178 322 178 302 188 c 128,-1,11
 282 198 282 198 267 214 c 128,-1,12
 252 230 252 230 243.5 250.5 c 128,-1,13
 235 271 235 271 235 293 c 0,14,15
 235 321 235 321 246 343 c 128,-1,16
 257 365 257 365 275.5 380.5 c 128,-1,17
 294 396 294 396 318 404 c 128,-1,18
 342 412 342 412 369 412 c 0,19,20
 388 412 388 412 412.5 406 c 128,-1,21
 437 400 437 400 459 381.5 c 128,-1,22
 481 363 481 363 496.5 328.5 c 128,-1,23
 512 294 512 294 512 238 c 0,24,25
 512 175 512 175 488 113 c 128,-1,26
 464 51 464 51 419.5 -6.5 c 128,-1,27
 375 -64 375 -64 311 -115 c 128,-1,28
 247 -166 247 -166 167 -207 c 1,29,-1
 85 -146 l 1,0,1
EndSplineSet
Validated: 1
Substitution2: "'calt' Contextual Alternates in Arabic lookup 10 subtable" uni066C.ar
EndChar

StartChar: uni066B.ar
Encoding: 65537 -1 77
Width: 651
GlyphClass: 2
Flags: W
LayerCount: 2
Fore
SplineSet
166 -311 m 1,0,1
 310 -233 310 -233 375 -155 c 128,-1,2
 440 -77 440 -77 440 -6 c 0,3,4
 440 5 440 5 439.5 15 c 128,-1,5
 439 25 439 25 436 33 c 1,6,7
 416 14 416 14 393.5 6 c 128,-1,8
 371 -2 371 -2 352 -2 c 0,9,10
 319 -2 319 -2 289.5 10.5 c 128,-1,11
 260 23 260 23 238 44.5 c 128,-1,12
 216 66 216 66 203 95.5 c 128,-1,13
 190 125 190 125 190 160 c 0,14,15
 190 193 190 193 203 222.5 c 128,-1,16
 216 252 216 252 238 274 c 128,-1,17
 260 296 260 296 289.5 309 c 128,-1,18
 319 322 319 322 352 322 c 0,19,20
 380 322 380 322 417 309 c 128,-1,21
 454 296 454 296 486 266.5 c 128,-1,22
 518 237 518 237 540.5 190 c 128,-1,23
 563 143 563 143 563 76 c 0,24,25
 563 10 563 10 546 -48.5 c 128,-1,26
 529 -107 529 -107 492.5 -161 c 128,-1,27
 456 -215 456 -215 399.5 -266 c 128,-1,28
 343 -317 343 -317 264 -369 c 1,29,-1
 166 -311 l 1,0,1
EndSplineSet
Validated: 1
EndChar

StartChar: uni066C.ar
Encoding: 65538 -1 78
Width: 651
GlyphClass: 2
Flags: W
LayerCount: 2
Fore
SplineSet
336 388 m 1,0,1
 433 441 433 441 476 493.5 c 128,-1,2
 519 546 519 546 519 595 c 0,3,4
 519 601 519 601 518.5 607 c 128,-1,5
 518 613 518 613 516 619 c 1,6,7
 501 607 501 607 486.5 602.5 c 128,-1,8
 472 598 472 598 461 598 c 0,9,10
 438 598 438 598 418.5 606.5 c 128,-1,11
 399 615 399 615 384 629 c 128,-1,12
 369 643 369 643 360.5 662.5 c 128,-1,13
 352 682 352 682 352 704 c 256,14,15
 352 726 352 726 360.5 746 c 128,-1,16
 369 766 369 766 384 781 c 128,-1,17
 399 796 399 796 418.5 804.5 c 128,-1,18
 438 813 438 813 461 813 c 0,19,20
 480 813 480 813 504.5 804.5 c 128,-1,21
 529 796 529 796 550 776.5 c 128,-1,22
 571 757 571 757 585.5 726 c 128,-1,23
 600 695 600 695 600 650 c 0,24,25
 600 560 600 560 553.5 489.5 c 128,-1,26
 507 419 507 419 401 351 c 1,27,-1
 336 388 l 1,0,1
EndSplineSet
Validated: 1
EndChar

StartChar: uni06F4
Encoding: 1780 1780 83
Width: 1303
GlyphClass: 2
Flags: W
LayerCount: 2
Fore
SplineSet
551 -85 m 1,0,-1
 551 -44 l 2,1,2
 551 7 551 7 549.5 53.5 c 128,-1,3
 548 100 548 100 545 147 c 0,4,5
 536 299 536 299 509.5 436 c 128,-1,6
 483 573 483 573 431.5 712.5 c 128,-1,7
 380 852 380 852 299 1003 c 128,-1,8
 218 1154 218 1154 101 1333 c 1,9,10
 134 1396 134 1396 168 1458 c 128,-1,11
 202 1520 202 1520 236 1583 c 1,12,13
 306 1488 306 1488 360 1423.5 c 128,-1,14
 414 1359 414 1359 458 1316 c 128,-1,15
 502 1273 502 1273 539.5 1248 c 128,-1,16
 577 1223 577 1223 614 1208 c 1,17,18
 608 1236 608 1236 602 1268 c 128,-1,19
 596 1300 596 1300 596 1327 c 2,20,-1
 596 1333 l 2,21,22
 597 1401 597 1401 615.5 1456 c 128,-1,23
 634 1511 634 1511 668.5 1550 c 128,-1,24
 703 1589 703 1589 753 1610 c 128,-1,25
 803 1631 803 1631 866 1631 c 0,26,27
 890 1631 890 1631 916 1627 c 128,-1,28
 942 1623 942 1623 966 1616.5 c 128,-1,29
 990 1610 990 1610 1011 1602 c 128,-1,30
 1032 1594 1032 1594 1047 1585 c 1,31,32
 1063 1541 1063 1541 1079 1497.5 c 128,-1,33
 1095 1454 1095 1454 1110 1410 c 1,34,35
 1090 1420 1090 1420 1063.5 1428.5 c 128,-1,36
 1037 1437 1037 1437 1007.5 1444 c 128,-1,37
 978 1451 978 1451 947 1455 c 128,-1,38
 916 1459 916 1459 887 1459 c 0,39,40
 809 1459 809 1459 762 1432.5 c 128,-1,41
 715 1406 715 1406 698 1360 c 1,42,43
 707 1318 707 1318 726 1283 c 128,-1,44
 745 1248 745 1248 772.5 1223 c 128,-1,45
 800 1198 800 1198 835 1184 c 128,-1,46
 870 1170 870 1170 912 1170 c 0,47,48
 936 1170 936 1170 975.5 1179.5 c 128,-1,49
 1015 1189 1015 1189 1057.5 1203.5 c 128,-1,50
 1100 1218 1100 1218 1139 1235.5 c 128,-1,51
 1178 1253 1178 1253 1202 1270 c 1,52,53
 1186 1221 1186 1221 1171 1173 c 128,-1,54
 1156 1125 1156 1125 1141 1076 c 1,55,56
 1118 1058 1118 1058 1075.5 1039.5 c 128,-1,57
 1033 1021 1033 1021 983.5 1006 c 128,-1,58
 934 991 934 991 883.5 982 c 128,-1,59
 833 973 833 973 794 973 c 0,60,61
 771 973 771 973 735.5 977.5 c 128,-1,62
 700 982 700 982 661.5 989.5 c 128,-1,63
 623 997 623 997 587 1008 c 128,-1,64
 551 1019 551 1019 526 1033 c 0,65,66
 521 1032 521 1032 517 1031 c 128,-1,67
 513 1030 513 1030 509 1030 c 1,68,69
 543 963 543 963 570 898 c 128,-1,70
 597 833 597 833 617.5 766 c 128,-1,71
 638 699 638 699 652 628 c 128,-1,72
 666 557 666 557 675 478 c 0,73,74
 683 406 683 406 686 323 c 128,-1,75
 689 240 689 240 689 149 c 2,76,-1
 689 100 l 1,77,-1
 551 -85 l 1,0,-1
EndSplineSet
Validated: 1
EndChar

StartChar: uni06F5
Encoding: 1781 1781 84
Width: 1303
GlyphClass: 2
Flags: W
LayerCount: 2
Fore
SplineSet
653 197 m 1,0,1
 644 153 644 153 618.5 114 c 128,-1,2
 593 75 593 75 558 45.5 c 128,-1,3
 523 16 523 16 482.5 -1 c 128,-1,4
 442 -18 442 -18 402 -18 c 0,5,6
 348 -18 348 -18 302 5 c 128,-1,7
 256 28 256 28 223 70 c 128,-1,8
 190 112 190 112 171 170.5 c 128,-1,9
 152 229 152 229 152 300 c 0,10,11
 152 466 152 466 245 702.5 c 128,-1,12
 338 939 338 939 526 1254 c 1,13,14
 517 1261 517 1261 505.5 1271.5 c 128,-1,15
 494 1282 494 1282 481 1293.5 c 128,-1,16
 468 1305 468 1305 455 1316.5 c 128,-1,17
 442 1328 442 1328 430 1337 c 1,18,-1
 539 1585 l 1,19,20
 705 1439 705 1439 821 1301 c 128,-1,21
 937 1163 937 1163 1010.5 1024.5 c 128,-1,22
 1084 886 1084 886 1117.5 743.5 c 128,-1,23
 1151 601 1151 601 1151 445 c 0,24,25
 1151 345 1151 345 1133 260 c 128,-1,26
 1115 175 1115 175 1079.5 113.5 c 128,-1,27
 1044 52 1044 52 992 17 c 128,-1,28
 940 -18 940 -18 873 -18 c 0,29,30
 838 -18 838 -18 804 -5 c 128,-1,31
 770 8 770 8 740.5 34 c 128,-1,32
 711 60 711 60 689 100.5 c 128,-1,33
 667 141 667 141 657 197 c 1,34,-1
 653 197 l 1,0,1
712 452 m 1,35,36
 712 401 712 401 721 356 c 128,-1,37
 730 311 730 311 749 277.5 c 128,-1,38
 768 244 768 244 797.5 224 c 128,-1,39
 827 204 827 204 868 204 c 0,40,41
 891 204 891 204 918 213 c 128,-1,42
 945 222 945 222 968.5 246 c 128,-1,43
 992 270 992 270 1007.5 311.5 c 128,-1,44
 1023 353 1023 353 1023 418 c 0,45,46
 1023 518 1023 518 991.5 624 c 128,-1,47
 960 730 960 730 905 832 c 128,-1,48
 850 934 850 934 775.5 1027.5 c 128,-1,49
 701 1121 701 1121 616 1195 c 1,50,51
 542 1075 542 1075 483.5 961 c 128,-1,52
 425 847 425 847 384.5 744.5 c 128,-1,53
 344 642 344 642 322.5 553 c 128,-1,54
 301 464 301 464 301 395 c 0,55,56
 301 304 301 304 337.5 254 c 128,-1,57
 374 204 374 204 449 204 c 0,58,59
 483 204 483 204 513 225 c 128,-1,60
 543 246 543 246 565 281 c 128,-1,61
 587 316 587 316 599.5 360.5 c 128,-1,62
 612 405 612 405 612 452 c 1,63,-1
 712 452 l 1,35,36
EndSplineSet
Validated: 1
EndChar

StartChar: uni06F6
Encoding: 1782 1782 85
Width: 1303
GlyphClass: 2
Flags: W
LayerCount: 2
Fore
SplineSet
1060 818 m 1,0,1
 925 783 925 783 797.5 698 c 128,-1,2
 670 613 670 613 549 492.5 c 128,-1,3
 428 372 428 372 313 224 c 128,-1,4
 198 76 198 76 89 -85 c 1,5,-1
 89 178 l 1,6,7
 114 223 114 223 151 278 c 128,-1,8
 188 333 188 333 231 391 c 128,-1,9
 274 449 274 449 320.5 507 c 128,-1,10
 367 565 367 565 411.5 615.5 c 128,-1,11
 456 666 456 666 495 705.5 c 128,-1,12
 534 745 534 745 563 766 c 1,13,14
 494 779 494 779 433.5 808 c 128,-1,15
 373 837 373 837 328 877 c 128,-1,16
 283 917 283 917 255.5 965.5 c 128,-1,17
 228 1014 228 1014 224 1066 c 1,18,19
 232 1106 232 1106 246.5 1154 c 128,-1,20
 261 1202 261 1202 280 1251.5 c 128,-1,21
 299 1301 299 1301 321 1347.5 c 128,-1,22
 343 1394 343 1394 367 1431 c 1,23,24
 433 1510 433 1510 516 1546.5 c 128,-1,25
 599 1583 599 1583 690 1583 c 0,26,27
 716 1583 716 1583 749 1577 c 128,-1,28
 782 1571 782 1571 816.5 1562 c 128,-1,29
 851 1553 851 1553 883 1541.5 c 128,-1,30
 915 1530 915 1530 938 1518 c 1,31,-1
 1002 1301 l 1,32,33
 963 1322 963 1322 922 1337.5 c 128,-1,34
 881 1353 881 1353 840.5 1363.5 c 128,-1,35
 800 1374 800 1374 761 1379.5 c 128,-1,36
 722 1385 722 1385 688 1385 c 0,37,38
 641 1385 641 1385 596 1372.5 c 128,-1,39
 551 1360 551 1360 509 1336 c 128,-1,40
 467 1312 467 1312 430 1277.5 c 128,-1,41
 393 1243 393 1243 363 1200 c 1,42,43
 374 1156 374 1156 409 1113.5 c 128,-1,44
 444 1071 444 1071 496 1037.5 c 128,-1,45
 548 1004 548 1004 613 983.5 c 128,-1,46
 678 963 678 963 749 963 c 0,47,48
 781 963 781 963 836 973.5 c 128,-1,49
 891 984 891 984 955.5 1002.5 c 128,-1,50
 1020 1021 1020 1021 1087.5 1045.5 c 128,-1,51
 1155 1070 1155 1070 1213 1099 c 1,52,-1
 1060 818 l 1,0,1
EndSplineSet
Validated: 1
EndChar

StartChar: As
Encoding: 65539 -1 89
Width: 720
GlyphClass: 2
Flags: W
LayerCount: 2
Fore
SplineSet
287 39 m 1,0,-1
 238 83 l 1,1,-1
 306 211 l 1,2,-1
 306 516 l 2,3,4
 306 646 306 646 299.5 739.5 c 128,-1,5
 293 833 293 833 281.5 904.5 c 128,-1,6
 270 976 270 976 255.5 1032.5 c 128,-1,7
 241 1089 241 1089 226 1143 c 1,8,-1
 387 1303 l 1,9,10
 396 1249 396 1249 403.5 1209.5 c 128,-1,11
 411 1170 411 1170 416.5 1133 c 128,-1,12
 422 1096 422 1096 426.5 1057 c 128,-1,13
 431 1018 431 1018 433.5 966 c 128,-1,14
 436 914 436 914 437.5 843 c 128,-1,15
 439 772 439 772 439 673 c 0,16,17
 439 643 439 643 438.5 607 c 128,-1,18
 438 571 438 571 436.5 532.5 c 128,-1,19
 435 494 435 494 433.5 454.5 c 128,-1,20
 432 415 432 415 431 378 c 0,21,22
 427 292 427 292 423 201 c 1,23,-1
 287 39 l 1,0,-1
EndSplineSet
Validated: 1
EndChar

StartChar: uniFE8D
Encoding: 65165 65165 90
Width: 608
GlyphClass: 2
Flags: W
AnchorPoint: "Anchor-1" 300 -110 basechar 0
AnchorPoint: "Anchor-0" 240 1800 basechar 0
LayerCount: 2
Fore
SplineSet
226 39 m 1,0,-1
 177 83 l 1,1,-1
 245 211 l 1,2,-1
 245 732 l 2,3,4
 245 862 245 862 238.5 980 c 128,-1,5
 232 1098 232 1098 220.5 1199 c 128,-1,6
 209 1300 209 1300 194.5 1381 c 128,-1,7
 180 1462 180 1462 165 1516 c 1,8,-1
 326 1676 l 1,9,10
 339 1596 339 1596 349 1519 c 128,-1,11
 359 1442 359 1442 365.5 1351.5 c 128,-1,12
 372 1261 372 1261 375 1149.5 c 128,-1,13
 378 1038 378 1038 378 889 c 0,14,15
 378 795 378 795 377 702 c 128,-1,16
 376 609 376 609 374 520.5 c 128,-1,17
 372 432 372 432 369 351 c 128,-1,18
 366 270 366 270 362 201 c 1,19,-1
 226 39 l 1,0,-1
EndSplineSet
Validated: 1
PairPos2: "'kern' Horizontal Kerning in Arabic lookup 0 subtable" uni06AF_uni06CC.isol dx=64 dy=0 dh=64 dv=0 dx=0 dy=0 dh=0 dv=0
PairPos2: "'kern' Horizontal Kerning in Arabic lookup 0 subtable" uni06A9_uni06CC.isol dx=64 dy=0 dh=64 dv=0 dx=0 dy=0 dh=0 dv=0
PairPos2: "'kern' Horizontal Kerning in Arabic lookup 0 subtable" uni0643.init dx=64 dy=0 dh=64 dv=0 dx=0 dy=0 dh=0 dv=0
PairPos2: "'kern' Horizontal Kerning in Arabic lookup 0 subtable" uni0623.isol dx=80 dy=0 dh=80 dv=0 dx=0 dy=0 dh=0 dv=0
PairPos2: "'kern' Horizontal Kerning in Arabic lookup 0 subtable" uni0622.isol dx=80 dy=0 dh=80 dv=0 dx=0 dy=0 dh=0 dv=0
PairPos2: "'kern' Horizontal Kerning in Arabic lookup 0 subtable" uni06A9.init dx=64 dy=0 dh=64 dv=0 dx=0 dy=0 dh=0 dv=0
PairPos2: "'kern' Horizontal Kerning in Arabic lookup 0 subtable" uni06A9.isol dx=64 dy=0 dh=64 dv=0 dx=0 dy=0 dh=0 dv=0
PairPos2: "'kern' Horizontal Kerning in Arabic lookup 0 subtable" uni0671.isol dx=80 dy=0 dh=80 dv=0 dx=0 dy=0 dh=0 dv=0
PairPos2: "'kern' Horizontal Kerning in Arabic lookup 0 subtable" uni06AF.init dx=64 dy=0 dh=64 dv=0 dx=0 dy=0 dh=0 dv=0
PairPos2: "'kern' Horizontal Kerning in Arabic lookup 0 subtable" uniFB92 dx=64 dy=0 dh=64 dv=0 dx=0 dy=0 dh=0 dv=0
EndChar

StartChar: Af
Encoding: 65540 -1 91
Width: 786
GlyphClass: 2
Flags: W
LayerCount: 2
Fore
SplineSet
786 96 m 1,0,-1
 644 96 l 2,1,2
 538 96 538 96 473 124 c 128,-1,3
 408 152 408 152 372 217.5 c 128,-1,4
 336 283 336 283 324 390.5 c 128,-1,5
 312 498 312 498 312 657 c 2,6,-1
 312 749 l 2,7,8
 312 844 312 844 309.5 914 c 128,-1,9
 307 984 307 984 298 1041 c 1,10,-1
 241 1023 l 1,11,-1
 208 1066 l 1,12,-1
 413 1303 l 1,13,14
 422 1269 422 1269 427 1232.5 c 128,-1,15
 432 1196 432 1196 435 1152 c 128,-1,16
 438 1108 438 1108 438.5 1054.5 c 128,-1,17
 439 1001 439 1001 439 935 c 2,18,-1
 439 514 l 2,19,20
 439 445 439 445 455 401 c 128,-1,21
 471 357 471 357 501.5 332 c 128,-1,22
 532 307 532 307 575.5 297.5 c 128,-1,23
 619 288 619 288 673 288 c 2,24,-1
 786 288 l 1,25,-1
 786 96 l 1,0,-1
EndSplineSet
Validated: 1
EndChar

StartChar: uniFE8E
Encoding: 65166 65166 92
Width: 660
GlyphClass: 2
Flags: W
AnchorPoint: "Anchor-1" 300 -110 basechar 0
AnchorPoint: "Anchor-0" 225 1800 basechar 0
LayerCount: 2
Fore
SplineSet
660 96 m 1,0,-1
 552 96 l 2,1,2
 446 96 446 96 381.5 124 c 128,-1,3
 317 152 317 152 282 217.5 c 128,-1,4
 247 283 247 283 235.5 390.5 c 128,-1,5
 224 498 224 498 224 657 c 2,6,-1
 224 1122 l 2,7,8
 224 1218 224 1218 221.5 1288 c 128,-1,9
 219 1358 219 1358 210 1415 c 1,10,-1
 153 1396 l 1,11,-1
 120 1439 l 1,12,-1
 325 1676 l 1,13,14
 334 1642 334 1642 339 1605.5 c 128,-1,15
 344 1569 344 1569 347 1525 c 128,-1,16
 350 1481 350 1481 350.5 1427.5 c 128,-1,17
 351 1374 351 1374 351 1308 c 2,18,-1
 351 514 l 2,19,20
 351 445 351 445 366.5 401 c 128,-1,21
 382 357 382 357 411.5 332 c 128,-1,22
 441 307 441 307 484 297.5 c 128,-1,23
 527 288 527 288 581 288 c 2,24,-1
 660 288 l 1,25,-1
 660 96 l 1,0,-1
EndSplineSet
Validated: 1
PairPos2: "'kern' Horizontal Kerning in Arabic lookup 0 subtable" uni06AF_uni06CC.isol dx=64 dy=0 dh=64 dv=0 dx=0 dy=0 dh=0 dv=0
PairPos2: "'kern' Horizontal Kerning in Arabic lookup 0 subtable" uni06A9_uni06CC.isol dx=64 dy=0 dh=64 dv=0 dx=0 dy=0 dh=0 dv=0
PairPos2: "'kern' Horizontal Kerning in Arabic lookup 0 subtable" uni0643.init dx=64 dy=0 dh=64 dv=0 dx=0 dy=0 dh=0 dv=0
PairPos2: "'kern' Horizontal Kerning in Arabic lookup 0 subtable" uni0623.isol dx=80 dy=0 dh=80 dv=0 dx=0 dy=0 dh=0 dv=0
PairPos2: "'kern' Horizontal Kerning in Arabic lookup 0 subtable" uni0622.isol dx=80 dy=0 dh=80 dv=0 dx=0 dy=0 dh=0 dv=0
PairPos2: "'kern' Horizontal Kerning in Arabic lookup 0 subtable" uni06A9.init dx=64 dy=0 dh=64 dv=0 dx=0 dy=0 dh=0 dv=0
PairPos2: "'kern' Horizontal Kerning in Arabic lookup 0 subtable" uni06A9.isol dx=64 dy=0 dh=64 dv=0 dx=0 dy=0 dh=0 dv=0
PairPos2: "'kern' Horizontal Kerning in Arabic lookup 0 subtable" uni0671.isol dx=80 dy=0 dh=80 dv=0 dx=0 dy=0 dh=0 dv=0
PairPos2: "'kern' Horizontal Kerning in Arabic lookup 0 subtable" uni06AF.init dx=64 dy=0 dh=64 dv=0 dx=0 dy=0 dh=0 dv=0
PairPos2: "'kern' Horizontal Kerning in Arabic lookup 0 subtable" uniFB92 dx=64 dy=0 dh=64 dv=0 dx=0 dy=0 dh=0 dv=0
EndChar

StartChar: Bs
Encoding: 65541 -1 93
Width: 2208
GlyphClass: 2
Flags: W
LayerCount: 2
Fore
SplineSet
1919 932 m 1,0,1
 1931 911 1931 911 1946.5 874.5 c 128,-1,2
 1962 838 1962 838 1978 794.5 c 128,-1,3
 1994 751 1994 751 2009.5 704 c 128,-1,4
 2025 657 2025 657 2037 615.5 c 128,-1,5
 2049 574 2049 574 2056.5 541.5 c 128,-1,6
 2064 509 2064 509 2064 495 c 0,7,8
 2061 479 2061 479 2047.5 443.5 c 128,-1,9
 2034 408 2034 408 2016 369 c 128,-1,10
 1998 330 1998 330 1980 295 c 128,-1,11
 1962 260 1962 260 1950 245 c 1,12,13
 1929 236 1929 236 1866 219 c 128,-1,14
 1803 202 1803 202 1711.5 181 c 128,-1,15
 1620 160 1620 160 1506.5 139 c 128,-1,16
 1393 118 1393 118 1271 100 c 128,-1,17
 1149 82 1149 82 1024.5 71 c 128,-1,18
 900 60 900 60 787 60 c 0,19,20
 613 60 613 60 491 87.5 c 128,-1,21
 369 115 369 115 291.5 164.5 c 128,-1,22
 214 214 214 214 179 281.5 c 128,-1,23
 144 349 144 349 144 429 c 0,24,25
 144 495 144 495 158 553 c 128,-1,26
 172 611 172 611 195 664.5 c 128,-1,27
 218 718 218 718 247 768 c 128,-1,28
 276 818 276 818 306 868 c 1,29,-1
 399 819 l 1,30,31
 380 788 380 788 361.5 755.5 c 128,-1,32
 343 723 343 723 328 688 c 128,-1,33
 313 653 313 653 304 615 c 128,-1,34
 295 577 295 577 295 535 c 0,35,36
 295 473 295 473 327 422.5 c 128,-1,37
 359 372 359 372 426.5 336.5 c 128,-1,38
 494 301 494 301 598.5 281.5 c 128,-1,39
 703 262 703 262 849 262 c 0,40,41
 963 262 963 262 1080 270 c 128,-1,42
 1197 278 1197 278 1309 291.5 c 128,-1,43
 1421 305 1421 305 1523.5 321.5 c 128,-1,44
 1626 338 1626 338 1710.5 355 c 128,-1,45
 1795 372 1795 372 1857.5 387.5 c 128,-1,46
 1920 403 1920 403 1952 414 c 1,47,48
 1950 423 1950 423 1941.5 447 c 128,-1,49
 1933 471 1933 471 1920.5 502.5 c 128,-1,50
 1908 534 1908 534 1892.5 569 c 128,-1,51
 1877 604 1877 604 1862 636 c 128,-1,52
 1847 668 1847 668 1833.5 693.5 c 128,-1,53
 1820 719 1820 719 1810 731 c 1,54,-1
 1919 932 l 1,0,1
EndSplineSet
Validated: 1
EndChar

StartChar: Bf
Encoding: 65542 -1 94
Width: 2338
GlyphClass: 2
Flags: W
LayerCount: 2
Fore
SplineSet
2338 96 m 1,0,-1
 2245 96 l 2,1,2
 2194 96 2194 96 2143.5 111 c 128,-1,3
 2093 126 2093 126 2051 155 c 128,-1,4
 2009 184 2009 184 1980 227.5 c 128,-1,5
 1951 271 1951 271 1943 327 c 1,6,7
 1920 286 1920 286 1856.5 250 c 128,-1,8
 1793 214 1793 214 1701 184.5 c 128,-1,9
 1609 155 1609 155 1496 131.5 c 128,-1,10
 1383 108 1383 108 1262 92.5 c 128,-1,11
 1141 77 1141 77 1019 68.5 c 128,-1,12
 897 60 897 60 787 60 c 0,13,14
 613 60 613 60 491 87.5 c 128,-1,15
 369 115 369 115 291.5 164.5 c 128,-1,16
 214 214 214 214 179 281.5 c 128,-1,17
 144 349 144 349 144 429 c 0,18,19
 144 495 144 495 158 553 c 128,-1,20
 172 611 172 611 195 664.5 c 128,-1,21
 218 718 218 718 247 768 c 128,-1,22
 276 818 276 818 306 868 c 1,23,-1
 399 819 l 1,24,25
 380 788 380 788 361.5 755.5 c 128,-1,26
 343 723 343 723 328 688 c 128,-1,27
 313 653 313 653 304 615 c 128,-1,28
 295 577 295 577 295 535 c 0,29,30
 295 473 295 473 327 422.5 c 128,-1,31
 359 372 359 372 426.5 336.5 c 128,-1,32
 494 301 494 301 599 281.5 c 128,-1,33
 704 262 704 262 849 262 c 0,34,35
 915 262 915 262 992.5 265 c 128,-1,36
 1070 268 1070 268 1154 275 c 128,-1,37
 1238 282 1238 282 1324 292.5 c 128,-1,38
 1410 303 1410 303 1491.5 318 c 128,-1,39
 1573 333 1573 333 1647 352.5 c 128,-1,40
 1721 372 1721 372 1781 397 c 0,41,42
 1832 418 1832 418 1864.5 452.5 c 128,-1,43
 1897 487 1897 487 1918.5 530 c 128,-1,44
 1940 573 1940 573 1954.5 620 c 128,-1,45
 1969 667 1969 667 1986 714 c 1,46,-1
 2085 679 l 1,47,48
 2078 663 2078 663 2067.5 629 c 128,-1,49
 2057 595 2057 595 2047.5 556.5 c 128,-1,50
 2038 518 2038 518 2031 481.5 c 128,-1,51
 2024 445 2024 445 2024 425 c 0,52,53
 2024 379 2024 379 2041 352 c 128,-1,54
 2058 325 2058 325 2090 310.5 c 128,-1,55
 2122 296 2122 296 2168.5 292 c 128,-1,56
 2215 288 2215 288 2274 288 c 2,57,-1
 2338 288 l 1,58,-1
 2338 96 l 1,0,-1
EndSplineSet
Validated: 1
EndChar

StartChar: Bi
Encoding: 65543 -1 95
Width: 651
GlyphClass: 2
Flags: W
LayerCount: 2
Fore
SplineSet
0 96 m 2,0,1
 -11 96 -11 96 -23.5 98.5 c 128,-1,2
 -36 101 -36 101 -46.5 106 c 128,-1,3
 -57 111 -57 111 -63.5 117 c 128,-1,4
 -70 123 -70 123 -70 131 c 2,5,-1
 -70 288 l 1,6,-1
 84 288 l 2,7,8
 151 288 151 288 202 296 c 128,-1,9
 253 304 253 304 290.5 319 c 128,-1,10
 328 334 328 334 353 356 c 128,-1,11
 378 378 378 378 394 406 c 1,12,13
 390 446 390 446 374 489 c 128,-1,14
 358 532 358 532 336.5 572 c 128,-1,15
 315 612 315 612 291 644.5 c 128,-1,16
 267 677 267 677 248 696 c 1,17,-1
 360 916 l 1,18,19
 381 886 381 886 400 848.5 c 128,-1,20
 419 811 419 811 434.5 770 c 128,-1,21
 450 729 450 729 463 686 c 128,-1,22
 476 643 476 643 485.5 602.5 c 128,-1,23
 495 562 495 562 501.5 526.5 c 128,-1,24
 508 491 508 491 511 464 c 1,25,26
 500 405 500 405 473.5 340.5 c 128,-1,27
 447 276 447 276 405 221.5 c 128,-1,28
 363 167 363 167 307 131.5 c 128,-1,29
 251 96 251 96 181 96 c 2,30,-1
 0 96 l 2,0,1
EndSplineSet
Validated: 1
EndChar

StartChar: Bm
Encoding: 65544 -1 96
Width: 704
GlyphClass: 2
Flags: W
LayerCount: 2
Fore
SplineSet
704 96 m 1,0,-1
 617 96 l 2,1,2
 566 96 566 96 520 113.5 c 128,-1,3
 474 131 474 131 439.5 157 c 128,-1,4
 405 183 405 183 384 214.5 c 128,-1,5
 363 246 363 246 360 273 c 1,6,7
 355 273 355 273 349 267 c 1,8,9
 341 230 341 230 314.5 198.5 c 128,-1,10
 288 167 288 167 248.5 144.5 c 128,-1,11
 209 122 209 122 159.5 109 c 128,-1,12
 110 96 110 96 55 96 c 2,13,-1
 0 96 l 2,14,15
 -11 96 -11 96 -23.5 98.5 c 128,-1,16
 -36 101 -36 101 -46.5 106 c 128,-1,17
 -57 111 -57 111 -63.5 117 c 128,-1,18
 -70 123 -70 123 -70 131 c 2,19,-1
 -70 288 l 1,20,-1
 39 288 l 2,21,22
 91 288 91 288 138.5 298.5 c 128,-1,23
 186 309 186 309 222.5 335 c 128,-1,24
 259 361 259 361 281 405 c 128,-1,25
 303 449 303 449 303 517 c 2,26,-1
 303 674 l 1,27,-1
 410 674 l 1,28,-1
 412 514 l 2,29,30
 413 445 413 445 429 401 c 128,-1,31
 445 357 445 357 475 332 c 128,-1,32
 505 307 505 307 548.5 297.5 c 128,-1,33
 592 288 592 288 646 288 c 2,34,-1
 704 288 l 1,35,-1
 704 96 l 1,0,-1
EndSplineSet
Validated: 1
EndChar

StartChar: Js
Encoding: 65545 -1 97
Width: 1508
GlyphClass: 2
Flags: W
LayerCount: 2
Fore
SplineSet
1046 674 m 2,0,1
 953 673 953 673 862.5 653.5 c 128,-1,2
 772 634 772 634 691 600 c 128,-1,3
 610 566 610 566 541 519.5 c 128,-1,4
 472 473 472 473 422 418 c 128,-1,5
 372 363 372 363 344 300.5 c 128,-1,6
 316 238 316 238 316 172 c 0,7,8
 316 -23 316 -23 461.5 -127 c 128,-1,9
 607 -231 607 -231 888 -231 c 0,10,11
 946 -231 946 -231 998.5 -228.5 c 128,-1,12
 1051 -226 1051 -226 1102 -220.5 c 128,-1,13
 1153 -215 1153 -215 1204 -206.5 c 128,-1,14
 1255 -198 1255 -198 1312 -186 c 0,15,16
 1313 -186 1313 -186 1303.5 -206 c 128,-1,17
 1294 -226 1294 -226 1283 -250.5 c 128,-1,18
 1272 -275 1272 -275 1262.5 -295 c 128,-1,19
 1253 -315 1253 -315 1253 -314 c 1,20,21
 1197 -328 1197 -328 1129.5 -341 c 128,-1,22
 1062 -354 1062 -354 993 -363.5 c 128,-1,23
 924 -373 924 -373 859 -378.5 c 128,-1,24
 794 -384 794 -384 743 -384 c 0,25,26
 616 -384 616 -384 501.5 -353.5 c 128,-1,27
 387 -323 387 -323 300 -260.5 c 128,-1,28
 213 -198 213 -198 162 -103.5 c 128,-1,29
 111 -9 111 -9 111 119 c 0,30,31
 111 204 111 204 140.5 279.5 c 128,-1,32
 170 355 170 355 221.5 420 c 128,-1,33
 273 485 273 485 341.5 538.5 c 128,-1,34
 410 592 410 592 489 632 c 128,-1,35
 568 672 568 672 653 697.5 c 128,-1,36
 738 723 738 723 821 732 c 1,37,38
 796 743 796 743 763.5 762.5 c 128,-1,39
 731 782 731 782 694 805.5 c 128,-1,40
 657 829 657 829 616.5 853 c 128,-1,41
 576 877 576 877 536 896.5 c 128,-1,42
 496 916 496 916 456.5 928.5 c 128,-1,43
 417 941 417 941 382 941 c 0,44,45
 367 941 367 941 351 929.5 c 128,-1,46
 335 918 335 918 319 904 c 2,47,-1
 203 799 l 1,48,-1
 161 839 l 1,49,-1
 277 1037 l 2,50,51
 290 1060 290 1060 307 1075 c 128,-1,52
 324 1090 324 1090 341.5 1099 c 128,-1,53
 359 1108 359 1108 376 1111.5 c 128,-1,54
 393 1115 393 1115 406 1115 c 0,55,56
 450 1115 450 1115 504.5 1094.5 c 128,-1,57
 559 1074 559 1074 619.5 1043 c 128,-1,58
 680 1012 680 1012 744.5 976 c 128,-1,59
 809 940 809 940 873 909 c 128,-1,60
 937 878 937 878 999 857.5 c 128,-1,61
 1061 837 1061 837 1117 837 c 0,62,63
 1174 837 1174 837 1212.5 837.5 c 128,-1,64
 1251 838 1251 838 1278.5 839.5 c 128,-1,65
 1306 841 1306 841 1326 843.5 c 128,-1,66
 1346 846 1346 846 1364 850 c 1,67,68
 1364 849 1364 849 1361.5 841 c 128,-1,69
 1359 833 1359 833 1355 820.5 c 128,-1,70
 1351 808 1351 808 1346.5 793 c 128,-1,71
 1342 778 1342 778 1338 762 c 2,72,-1
 1314 678 l 1,73,-1
 1046 674 l 2,0,1
EndSplineSet
Validated: 1
EndChar

StartChar: Jf
Encoding: 65546 -1 98
Width: 1508
GlyphClass: 2
Flags: W
LayerCount: 2
Fore
SplineSet
1508 96 m 1,0,-1
 1478 96 l 2,1,2
 1417 96 1417 96 1353 132 c 128,-1,3
 1289 168 1289 168 1234 240 c 128,-1,4
 1179 312 1179 312 1138.5 420.5 c 128,-1,5
 1098 529 1098 529 1084 674 c 1,6,-1
 1046 674 l 2,7,8
 953 674 953 674 862.5 655 c 128,-1,9
 772 636 772 636 691 602 c 128,-1,10
 610 568 610 568 541 521.5 c 128,-1,11
 472 475 472 475 422 419 c 128,-1,12
 372 363 372 363 344 300.5 c 128,-1,13
 316 238 316 238 316 172 c 0,14,15
 316 -23 316 -23 461.5 -127 c 128,-1,16
 607 -231 607 -231 888 -231 c 0,17,18
 946 -231 946 -231 998.5 -228.5 c 128,-1,19
 1051 -226 1051 -226 1102 -220.5 c 128,-1,20
 1153 -215 1153 -215 1204 -206.5 c 128,-1,21
 1255 -198 1255 -198 1312 -186 c 0,22,23
 1313 -186 1313 -186 1303.5 -206 c 128,-1,24
 1294 -226 1294 -226 1283 -250.5 c 128,-1,25
 1272 -275 1272 -275 1262.5 -295 c 128,-1,26
 1253 -315 1253 -315 1253 -314 c 1,27,28
 1197 -328 1197 -328 1129.5 -341 c 128,-1,29
 1062 -354 1062 -354 993 -363.5 c 128,-1,30
 924 -373 924 -373 859 -378.5 c 128,-1,31
 794 -384 794 -384 743 -384 c 0,32,33
 616 -384 616 -384 501.5 -353.5 c 128,-1,34
 387 -323 387 -323 300 -260.5 c 128,-1,35
 213 -198 213 -198 162 -103.5 c 128,-1,36
 111 -9 111 -9 111 119 c 0,37,38
 111 204 111 204 140.5 279.5 c 128,-1,39
 170 355 170 355 221.5 420 c 128,-1,40
 273 485 273 485 341.5 538.5 c 128,-1,41
 410 592 410 592 489 632 c 128,-1,42
 568 672 568 672 653 697.5 c 128,-1,43
 738 723 738 723 821 732 c 1,44,45
 796 743 796 743 763.5 762.5 c 128,-1,46
 731 782 731 782 694 805.5 c 128,-1,47
 657 829 657 829 616.5 853 c 128,-1,48
 576 877 576 877 536 896.5 c 128,-1,49
 496 916 496 916 456.5 928.5 c 128,-1,50
 417 941 417 941 382 941 c 0,51,52
 367 941 367 941 351 929.5 c 128,-1,53
 335 918 335 918 319 904 c 2,54,-1
 203 799 l 1,55,-1
 161 839 l 1,56,-1
 277 1037 l 2,57,58
 290 1060 290 1060 307 1075 c 128,-1,59
 324 1090 324 1090 341.5 1099 c 128,-1,60
 359 1108 359 1108 376 1111.5 c 128,-1,61
 393 1115 393 1115 406 1115 c 0,62,63
 450 1115 450 1115 504.5 1094.5 c 128,-1,64
 559 1074 559 1074 619.5 1043 c 128,-1,65
 680 1012 680 1012 744.5 976 c 128,-1,66
 809 940 809 940 873 909 c 128,-1,67
 937 878 937 878 999 857.5 c 128,-1,68
 1061 837 1061 837 1117 837 c 0,69,70
 1200 837 1200 837 1264 839.5 c 128,-1,71
 1328 842 1328 842 1365 850 c 1,72,73
 1365 849 1365 849 1362.5 841 c 128,-1,74
 1360 833 1360 833 1356 820.5 c 128,-1,75
 1352 808 1352 808 1347.5 793 c 128,-1,76
 1343 778 1343 778 1338 762 c 2,77,-1
 1312 678 l 1,78,-1
 1173 679 l 1,79,80
 1191 570 1191 570 1222.5 495.5 c 128,-1,81
 1254 421 1254 421 1294.5 375 c 128,-1,82
 1335 329 1335 329 1382 308.5 c 128,-1,83
 1429 288 1429 288 1478 288 c 2,84,-1
 1508 288 l 1,85,-1
 1508 96 l 1,0,-1
EndSplineSet
Validated: 1
EndChar

StartChar: Ji
Encoding: 65547 -1 99
Width: 1508
GlyphClass: 2
Flags: W
LayerCount: 2
Fore
SplineSet
1329 469 m 1,0,1
 1302 469 1302 469 1263.5 467 c 128,-1,2
 1225 465 1225 465 1186 461 c 128,-1,3
 1147 457 1147 457 1113 450 c 128,-1,4
 1079 443 1079 443 1061 432 c 0,5,6
 1015 404 1015 404 968.5 368 c 128,-1,7
 922 332 922 332 873.5 295 c 128,-1,8
 825 258 825 258 774 222 c 128,-1,9
 723 186 723 186 667 158 c 128,-1,10
 611 130 611 130 549 113 c 128,-1,11
 487 96 487 96 418 96 c 2,12,-1
 0 96 l 2,13,14
 -11 96 -11 96 -23.5 98.5 c 128,-1,15
 -36 101 -36 101 -46.5 106 c 128,-1,16
 -57 111 -57 111 -63.5 117 c 128,-1,17
 -70 123 -70 123 -70 131 c 2,18,-1
 -70 288 l 1,19,-1
 412 288 l 2,20,21
 450 288 450 288 498 296.5 c 128,-1,22
 546 305 546 305 597 320.5 c 128,-1,23
 648 336 648 336 699 356 c 128,-1,24
 750 376 750 376 795 399.5 c 128,-1,25
 840 423 840 423 876.5 448 c 128,-1,26
 913 473 913 473 934 498 c 1,27,28
 885 516 885 516 834.5 542.5 c 128,-1,29
 784 569 784 569 734.5 598 c 128,-1,30
 685 627 685 627 637 656.5 c 128,-1,31
 589 686 589 686 544.5 709.5 c 128,-1,32
 500 733 500 733 459 747.5 c 128,-1,33
 418 762 418 762 383 762 c 0,34,35
 368 762 368 762 352 750.5 c 128,-1,36
 336 739 336 739 320 725 c 2,37,-1
 204 620 l 1,38,-1
 162 660 l 1,39,-1
 278 858 l 2,40,41
 291 881 291 881 308 896 c 128,-1,42
 325 911 325 911 342.5 920 c 128,-1,43
 360 929 360 929 377 932.5 c 128,-1,44
 394 936 394 936 407 936 c 0,45,46
 463 936 463 936 523 912.5 c 128,-1,47
 583 889 583 889 644.5 854 c 128,-1,48
 706 819 706 819 769 778 c 128,-1,49
 832 737 832 737 893.5 702 c 128,-1,50
 955 667 955 667 1014.5 643.5 c 128,-1,51
 1074 620 1074 620 1130 620 c 0,52,53
 1154 620 1154 620 1184 620.5 c 128,-1,54
 1214 621 1214 621 1247 623.5 c 128,-1,55
 1280 626 1280 626 1313.5 630 c 128,-1,56
 1347 634 1347 634 1379 641 c 1,57,-1
 1329 469 l 1,0,1
EndSplineSet
Validated: 1
EndChar

StartChar: Jm
Encoding: 65548 -1 100
Width: 1539
GlyphClass: 2
Flags: W
LayerCount: 2
Fore
SplineSet
1539 96 m 1,0,-1
 1452 96 l 2,1,2
 1383 96 1383 96 1317 118 c 128,-1,3
 1251 140 1251 140 1197.5 182.5 c 128,-1,4
 1144 225 1144 225 1108 288 c 128,-1,5
 1072 351 1072 351 1065 434 c 1,6,7
 1018 406 1018 406 971.5 370.5 c 128,-1,8
 925 335 925 335 876.5 297 c 128,-1,9
 828 259 828 259 776 223 c 128,-1,10
 724 187 724 187 668 159 c 128,-1,11
 612 131 612 131 550 113.5 c 128,-1,12
 488 96 488 96 418 96 c 2,13,-1
 0 96 l 2,14,15
 -11 96 -11 96 -23.5 98.5 c 128,-1,16
 -36 101 -36 101 -46.5 106 c 128,-1,17
 -57 111 -57 111 -63.5 117 c 128,-1,18
 -70 123 -70 123 -70 131 c 2,19,-1
 -70 288 l 1,20,-1
 412 288 l 2,21,22
 450 288 450 288 498 296.5 c 128,-1,23
 546 305 546 305 597 320.5 c 128,-1,24
 648 336 648 336 699 356 c 128,-1,25
 750 376 750 376 795 399.5 c 128,-1,26
 840 423 840 423 876.5 448 c 128,-1,27
 913 473 913 473 934 498 c 1,28,29
 885 516 885 516 834.5 542.5 c 128,-1,30
 784 569 784 569 734.5 598 c 128,-1,31
 685 627 685 627 637 656.5 c 128,-1,32
 589 686 589 686 544.5 709.5 c 128,-1,33
 500 733 500 733 459 747.5 c 128,-1,34
 418 762 418 762 383 762 c 0,35,36
 368 762 368 762 351.5 755.5 c 128,-1,37
 335 749 335 749 312 723 c 2,38,-1
 196 618 l 1,39,-1
 154 658 l 1,40,-1
 270 856 l 1,41,42
 280 881 280 881 298 896.5 c 128,-1,43
 316 912 316 912 335.5 921 c 128,-1,44
 355 930 355 930 374.5 933 c 128,-1,45
 394 936 394 936 407 936 c 0,46,47
 463 936 463 936 523 912.5 c 128,-1,48
 583 889 583 889 644.5 854 c 128,-1,49
 706 819 706 819 769 778 c 128,-1,50
 832 737 832 737 893.5 702 c 128,-1,51
 955 667 955 667 1014.5 643.5 c 128,-1,52
 1074 620 1074 620 1130 620 c 0,53,54
 1154 620 1154 620 1184 620.5 c 128,-1,55
 1214 621 1214 621 1247 623.5 c 128,-1,56
 1280 626 1280 626 1313.5 630 c 128,-1,57
 1347 634 1347 634 1379 641 c 1,58,-1
 1329 469 l 1,59,60
 1313 469 1313 469 1292 468 c 128,-1,61
 1271 467 1271 467 1247.5 465.5 c 128,-1,62
 1224 464 1224 464 1199.5 462 c 128,-1,63
 1175 460 1175 460 1153 457 c 1,64,65
 1162 405 1162 405 1188 372 c 128,-1,66
 1214 339 1214 339 1255.5 320.5 c 128,-1,67
 1297 302 1297 302 1353.5 295 c 128,-1,68
 1410 288 1410 288 1481 288 c 2,69,-1
 1539 288 l 1,70,-1
 1539 96 l 1,0,-1
EndSplineSet
Validated: 1
EndChar

StartChar: Ds
Encoding: 65549 -1 101
Width: 1151
GlyphClass: 2
Flags: W
LayerCount: 2
Fore
SplineSet
238 342 m 1,0,1
 247 319 247 319 260.5 302 c 128,-1,2
 274 285 274 285 298.5 274 c 128,-1,3
 323 263 323 263 360.5 257 c 128,-1,4
 398 251 398 251 454 251 c 0,5,6
 491 251 491 251 535 255.5 c 128,-1,7
 579 260 579 260 625.5 268.5 c 128,-1,8
 672 277 672 277 717.5 290 c 128,-1,9
 763 303 763 303 802.5 320 c 128,-1,10
 842 337 842 337 873 358 c 128,-1,11
 904 379 904 379 921 404 c 1,12,13
 895 488 895 488 862.5 558 c 128,-1,14
 830 628 830 628 787 693 c 128,-1,15
 744 758 744 758 690.5 821 c 128,-1,16
 637 884 637 884 570 953 c 1,17,-1
 682 1124 l 1,18,19
 745 1069 745 1069 794 1006 c 128,-1,20
 843 943 843 943 879.5 878 c 128,-1,21
 916 813 916 813 941 748.5 c 128,-1,22
 966 684 966 684 981.5 625.5 c 128,-1,23
 997 567 997 567 1004 518 c 128,-1,24
 1011 469 1011 469 1011 435 c 0,25,26
 1011 402 1011 402 1010 377.5 c 128,-1,27
 1009 353 1009 353 1005.5 331 c 128,-1,28
 1002 309 1002 309 996 288 c 128,-1,29
 990 267 990 267 980 242 c 1,30,31
 938 201 938 201 869.5 169 c 128,-1,32
 801 137 801 137 724.5 114 c 128,-1,33
 648 91 648 91 572 79 c 128,-1,34
 496 67 496 67 438 67 c 0,35,36
 356 67 356 67 302 77.5 c 128,-1,37
 248 88 248 88 225 96 c 1,38,-1
 139 303 l 1,39,-1
 238 342 l 1,0,1
EndSplineSet
Validated: 1
EndChar

StartChar: Df
Encoding: 65550 -1 102
Width: 1349
GlyphClass: 2
Flags: W
LayerCount: 2
Fore
SplineSet
1349 96 m 1,0,-1
 1231 96 l 2,1,2
 1200 96 1200 96 1164.5 108.5 c 128,-1,3
 1129 121 1129 121 1091.5 152.5 c 128,-1,4
 1054 184 1054 184 1015.5 238.5 c 128,-1,5
 977 293 977 293 940 376 c 1,6,7
 940 364 940 364 940 342.5 c 128,-1,8
 940 321 940 321 939 296.5 c 128,-1,9
 938 272 938 272 936 247.5 c 128,-1,10
 934 223 934 223 931 205 c 1,11,12
 888 174 888 174 824 149 c 128,-1,13
 760 124 760 124 691 106 c 128,-1,14
 622 88 622 88 554.5 78.5 c 128,-1,15
 487 69 487 69 436 69 c 0,16,17
 390 69 390 69 355.5 72 c 128,-1,18
 321 75 321 75 295.5 79.5 c 128,-1,19
 270 84 270 84 252.5 89 c 128,-1,20
 235 94 235 94 224 98 c 1,21,-1
 138 305 l 1,22,-1
 237 344 l 1,23,24
 246 321 246 321 258.5 304 c 128,-1,25
 271 287 271 287 294.5 276 c 128,-1,26
 318 265 318 265 356 259 c 128,-1,27
 394 253 394 253 453 253 c 0,28,29
 490 253 490 253 534 257.5 c 128,-1,30
 578 262 578 262 624.5 270.5 c 128,-1,31
 671 279 671 279 716.5 292 c 128,-1,32
 762 305 762 305 801.5 322 c 128,-1,33
 841 339 841 339 872 360 c 128,-1,34
 903 381 903 381 920 406 c 1,35,36
 902 452 902 452 874 510 c 128,-1,37
 846 568 846 568 810.5 639.5 c 128,-1,38
 775 711 775 711 733.5 796 c 128,-1,39
 692 881 692 881 647 983 c 1,40,-1
 718 1157 l 1,41,42
 789 1003 789 1003 844.5 879 c 128,-1,43
 900 755 900 755 945.5 658.5 c 128,-1,44
 991 562 991 562 1029 492 c 128,-1,45
 1067 422 1067 422 1104.5 376.5 c 128,-1,46
 1142 331 1142 331 1181.5 309.5 c 128,-1,47
 1221 288 1221 288 1269 288 c 2,48,-1
 1349 288 l 1,49,-1
 1349 96 l 1,0,-1
EndSplineSet
Validated: 1
EndChar

StartChar: Rs
Encoding: 65551 -1 103
Width: 1078
GlyphClass: 2
Flags: W
LayerCount: 2
Fore
SplineSet
807 797 m 1,0,1
 841 725 841 725 862 668 c 128,-1,2
 883 611 883 611 897 557.5 c 128,-1,3
 911 504 911 504 920 448.5 c 128,-1,4
 929 393 929 393 938 323 c 1,5,6
 933 256 933 256 924 196 c 128,-1,7
 915 136 915 136 894 79.5 c 128,-1,8
 873 23 873 23 836 -31 c 128,-1,9
 799 -85 799 -85 739 -141 c 128,-1,10
 679 -197 679 -197 592.5 -257 c 128,-1,11
 506 -317 506 -317 385 -384 c 1,12,13
 340 -382 340 -382 281.5 -374.5 c 128,-1,14
 223 -367 223 -367 167.5 -355 c 128,-1,15
 112 -343 112 -343 66 -328 c 128,-1,16
 20 -313 20 -313 0 -297 c 1,17,18
 161 -253 161 -253 281 -208 c 128,-1,19
 401 -163 401 -163 487.5 -116.5 c 128,-1,20
 574 -70 574 -70 631.5 -23 c 128,-1,21
 689 24 689 24 724.5 71.5 c 128,-1,22
 760 119 760 119 777 166 c 128,-1,23
 794 213 794 213 801 259 c 1,24,25
 792 296 792 296 783 331.5 c 128,-1,26
 774 367 774 367 759 407 c 128,-1,27
 744 447 744 447 720.5 493.5 c 128,-1,28
 697 540 697 540 659 599 c 1,29,-1
 807 797 l 1,0,1
EndSplineSet
Validated: 1
EndChar

StartChar: Rf
Encoding: 65552 -1 104
Width: 1256
GlyphClass: 2
Flags: W
LayerCount: 2
Fore
SplineSet
1256 96 m 1,0,-1
 1169 96 l 2,1,2
 1131 96 1131 96 1100 103 c 128,-1,3
 1069 110 1069 110 1042 125.5 c 128,-1,4
 1015 141 1015 141 990 165 c 128,-1,5
 965 189 965 189 938 223 c 1,6,-1
 929 223 l 1,7,8
 918 136 918 136 887 61.5 c 128,-1,9
 856 -13 856 -13 794 -84.5 c 128,-1,10
 732 -156 732 -156 632.5 -228.5 c 128,-1,11
 533 -301 533 -301 385 -384 c 1,12,13
 340 -382 340 -382 281.5 -374.5 c 128,-1,14
 223 -367 223 -367 167.5 -355 c 128,-1,15
 112 -343 112 -343 66 -328 c 128,-1,16
 20 -313 20 -313 0 -297 c 1,17,18
 181 -247 181 -247 310 -196 c 128,-1,19
 439 -145 439 -145 527.5 -93.5 c 128,-1,20
 616 -42 616 -42 669.5 9.5 c 128,-1,21
 723 61 723 61 753 112.5 c 128,-1,22
 783 164 783 164 795.5 215.5 c 128,-1,23
 808 267 808 267 814 317 c 1,24,25
 803 385 803 385 783 453 c 128,-1,26
 763 521 763 521 731 590 c 1,27,-1
 893 765 l 1,28,-1
 942 512 l 2,29,30
 956 440 956 440 975.5 396 c 128,-1,31
 995 352 995 352 1024.5 328 c 128,-1,32
 1054 304 1054 304 1096 296 c 128,-1,33
 1138 288 1138 288 1198 288 c 2,34,-1
 1256 288 l 1,35,-1
 1256 96 l 1,0,-1
EndSplineSet
Validated: 1
EndChar

StartChar: Ss
Encoding: 65553 -1 105
Width: 2564
GlyphClass: 2
Flags: W
LayerCount: 2
Fore
SplineSet
1804 275 m 1,0,1
 1792 236 1792 236 1771 203.5 c 128,-1,2
 1750 171 1750 171 1720 147 c 128,-1,3
 1690 123 1690 123 1651.5 109.5 c 128,-1,4
 1613 96 1613 96 1567 96 c 0,5,6
 1504 96 1504 96 1462.5 108.5 c 128,-1,7
 1421 121 1421 121 1395 149 c 1,8,9
 1395 103 1395 103 1384.5 58.5 c 128,-1,10
 1374 14 1374 14 1358 -26.5 c 128,-1,11
 1342 -67 1342 -67 1324 -102 c 128,-1,12
 1306 -137 1306 -137 1290 -164 c 1,13,14
 1250 -197 1250 -197 1195.5 -226 c 128,-1,15
 1141 -255 1141 -255 1078 -279.5 c 128,-1,16
 1015 -304 1015 -304 947.5 -323 c 128,-1,17
 880 -342 880 -342 814 -355.5 c 128,-1,18
 748 -369 748 -369 686 -376 c 128,-1,19
 624 -383 624 -383 573 -383 c 0,20,21
 473 -383 473 -383 390 -361.5 c 128,-1,22
 307 -340 307 -340 247 -296.5 c 128,-1,23
 187 -253 187 -253 153.5 -187.5 c 128,-1,24
 120 -122 120 -122 120 -34 c 0,25,26
 120 7 120 7 130 65 c 128,-1,27
 140 123 140 123 160.5 191 c 128,-1,28
 181 259 181 259 213.5 334.5 c 128,-1,29
 246 410 246 410 291 487 c 1,30,-1
 384 438 l 1,31,32
 358 394 358 394 337 345.5 c 128,-1,33
 316 297 316 297 301 249.5 c 128,-1,34
 286 202 286 202 278 157.5 c 128,-1,35
 270 113 270 113 270 76 c 0,36,37
 270 -51 270 -51 361.5 -115.5 c 128,-1,38
 453 -180 453 -180 618 -180 c 0,39,40
 689 -180 689 -180 777 -165 c 128,-1,41
 865 -150 865 -150 954.5 -124 c 128,-1,42
 1044 -98 1044 -98 1126.5 -62 c 128,-1,43
 1209 -26 1209 -26 1269 16 c 1,44,45
 1268 63 1268 63 1260 109.5 c 128,-1,46
 1252 156 1252 156 1234.5 204.5 c 128,-1,47
 1217 253 1217 253 1188.5 306 c 128,-1,48
 1160 359 1160 359 1118 420 c 1,49,50
 1118 420 1118 420 1127 435 c 128,-1,51
 1136 450 1136 450 1149.5 472.5 c 128,-1,52
 1163 495 1163 495 1178.5 521 c 128,-1,53
 1194 547 1194 547 1207.5 569.5 c 128,-1,54
 1221 592 1221 592 1229.5 607 c 128,-1,55
 1238 622 1238 622 1238 622 c 1,56,57
 1284 519 1284 519 1319 454 c 128,-1,58
 1354 389 1354 389 1387.5 352 c 128,-1,59
 1421 315 1421 315 1457 301.5 c 128,-1,60
 1493 288 1493 288 1541 288 c 0,61,62
 1588 288 1588 288 1623 303 c 128,-1,63
 1658 318 1658 318 1683 343 c 128,-1,64
 1708 368 1708 368 1725 400.5 c 128,-1,65
 1742 433 1742 433 1752 469 c 128,-1,66
 1762 505 1762 505 1766.5 541 c 128,-1,67
 1771 577 1771 577 1772 610 c 1,68,-1
 1877 604 l 1,69,70
 1875 589 1875 589 1875 557.5 c 128,-1,71
 1875 526 1875 526 1875 461 c 0,72,73
 1875 428 1875 428 1888.5 397 c 128,-1,74
 1902 366 1902 366 1926.5 341.5 c 128,-1,75
 1951 317 1951 317 1985 302.5 c 128,-1,76
 2019 288 2019 288 2060 288 c 0,77,78
 2120 288 2120 288 2160.5 295.5 c 128,-1,79
 2201 303 2201 303 2229 317.5 c 128,-1,80
 2257 332 2257 332 2274.5 354 c 128,-1,81
 2292 376 2292 376 2307 406 c 1,82,83
 2303 446 2303 446 2287 489 c 128,-1,84
 2271 532 2271 532 2249.5 572 c 128,-1,85
 2228 612 2228 612 2204 644.5 c 128,-1,86
 2180 677 2180 677 2161 696 c 1,87,-1
 2273 916 l 1,88,89
 2294 886 2294 886 2313 848.5 c 128,-1,90
 2332 811 2332 811 2347.5 770 c 128,-1,91
 2363 729 2363 729 2376 686 c 128,-1,92
 2389 643 2389 643 2398.5 602.5 c 128,-1,93
 2408 562 2408 562 2414.5 526.5 c 128,-1,94
 2421 491 2421 491 2424 464 c 1,95,96
 2410 381 2410 381 2382.5 313 c 128,-1,97
 2355 245 2355 245 2311.5 197 c 128,-1,98
 2268 149 2268 149 2208 122.5 c 128,-1,99
 2148 96 2148 96 2069 96 c 0,100,101
 2033 96 2033 96 1990.5 108 c 128,-1,102
 1948 120 1948 120 1910 143 c 128,-1,103
 1872 166 1872 166 1843.5 199 c 128,-1,104
 1815 232 1815 232 1808 275 c 1,105,-1
 1804 275 l 1,0,1
EndSplineSet
Validated: 1
EndChar

StartChar: Sf
Encoding: 65554 -1 106
Width: 2676
GlyphClass: 2
Flags: W
LayerCount: 2
Fore
SplineSet
2676 96 m 1,0,-1
 2571 96 l 2,1,2
 2535 96 2535 96 2492.5 108 c 128,-1,3
 2450 120 2450 120 2412 143 c 128,-1,4
 2374 166 2374 166 2345.5 199 c 128,-1,5
 2317 232 2317 232 2310 275 c 1,6,-1
 2306 275 l 1,7,8
 2294 236 2294 236 2273 203.5 c 128,-1,9
 2252 171 2252 171 2222 147 c 128,-1,10
 2192 123 2192 123 2153.5 109.5 c 128,-1,11
 2115 96 2115 96 2069 96 c 0,12,13
 2033 96 2033 96 1990.5 108 c 128,-1,14
 1948 120 1948 120 1910 143 c 128,-1,15
 1872 166 1872 166 1843.5 199 c 128,-1,16
 1815 232 1815 232 1808 275 c 1,17,-1
 1804 275 l 1,18,19
 1792 236 1792 236 1771 203.5 c 128,-1,20
 1750 171 1750 171 1720 147 c 128,-1,21
 1690 123 1690 123 1651.5 109.5 c 128,-1,22
 1613 96 1613 96 1567 96 c 0,23,24
 1504 96 1504 96 1462.5 108.5 c 128,-1,25
 1421 121 1421 121 1395 149 c 1,26,27
 1395 103 1395 103 1384.5 58.5 c 128,-1,28
 1374 14 1374 14 1358 -26.5 c 128,-1,29
 1342 -67 1342 -67 1324 -102 c 128,-1,30
 1306 -137 1306 -137 1290 -164 c 1,31,32
 1250 -197 1250 -197 1195.5 -226 c 128,-1,33
 1141 -255 1141 -255 1078 -279.5 c 128,-1,34
 1015 -304 1015 -304 947.5 -323 c 128,-1,35
 880 -342 880 -342 814 -355.5 c 128,-1,36
 748 -369 748 -369 686 -376 c 128,-1,37
 624 -383 624 -383 573 -383 c 0,38,39
 473 -383 473 -383 390 -361.5 c 128,-1,40
 307 -340 307 -340 247 -296.5 c 128,-1,41
 187 -253 187 -253 153.5 -187.5 c 128,-1,42
 120 -122 120 -122 120 -34 c 0,43,44
 120 7 120 7 130 65 c 128,-1,45
 140 123 140 123 160.5 191 c 128,-1,46
 181 259 181 259 213.5 334.5 c 128,-1,47
 246 410 246 410 291 487 c 1,48,-1
 384 438 l 1,49,50
 358 394 358 394 337 345.5 c 128,-1,51
 316 297 316 297 301 249.5 c 128,-1,52
 286 202 286 202 278 157.5 c 128,-1,53
 270 113 270 113 270 76 c 0,54,55
 270 -51 270 -51 361.5 -115.5 c 128,-1,56
 453 -180 453 -180 618 -180 c 0,57,58
 689 -180 689 -180 777 -165 c 128,-1,59
 865 -150 865 -150 954.5 -124 c 128,-1,60
 1044 -98 1044 -98 1126.5 -62 c 128,-1,61
 1209 -26 1209 -26 1269 16 c 1,62,63
 1268 63 1268 63 1260 109.5 c 128,-1,64
 1252 156 1252 156 1234.5 204.5 c 128,-1,65
 1217 253 1217 253 1188.5 306 c 128,-1,66
 1160 359 1160 359 1118 420 c 1,67,68
 1118 420 1118 420 1127 435 c 128,-1,69
 1136 450 1136 450 1149.5 472.5 c 128,-1,70
 1163 495 1163 495 1178.5 521 c 128,-1,71
 1194 547 1194 547 1207.5 569.5 c 128,-1,72
 1221 592 1221 592 1229.5 607 c 128,-1,73
 1238 622 1238 622 1238 622 c 1,74,75
 1284 519 1284 519 1319 454 c 128,-1,76
 1354 389 1354 389 1387.5 352 c 128,-1,77
 1421 315 1421 315 1457 301.5 c 128,-1,78
 1493 288 1493 288 1541 288 c 0,79,80
 1588 288 1588 288 1623 303 c 128,-1,81
 1658 318 1658 318 1683 343 c 128,-1,82
 1708 368 1708 368 1725 400.5 c 128,-1,83
 1742 433 1742 433 1752 469 c 128,-1,84
 1762 505 1762 505 1766.5 541 c 128,-1,85
 1771 577 1771 577 1772 610 c 1,86,-1
 1877 604 l 1,87,88
 1875 589 1875 589 1875 557.5 c 128,-1,89
 1875 526 1875 526 1875 461 c 0,90,91
 1875 428 1875 428 1888.5 397 c 128,-1,92
 1902 366 1902 366 1926.5 341.5 c 128,-1,93
 1951 317 1951 317 1985 302.5 c 128,-1,94
 2019 288 2019 288 2060 288 c 0,95,96
 2113 288 2113 288 2152.5 312.5 c 128,-1,97
 2192 337 2192 337 2218.5 380.5 c 128,-1,98
 2245 424 2245 424 2258.5 483 c 128,-1,99
 2272 542 2272 542 2274 610 c 1,100,-1
 2379 604 l 1,101,102
 2377 589 2377 589 2377 557.5 c 128,-1,103
 2377 526 2377 526 2377 461 c 0,104,105
 2377 428 2377 428 2390.5 397 c 128,-1,106
 2404 366 2404 366 2428.5 341.5 c 128,-1,107
 2453 317 2453 317 2487 302.5 c 128,-1,108
 2521 288 2521 288 2562 288 c 2,109,-1
 2676 288 l 1,110,-1
 2676 96 l 1,0,-1
EndSplineSet
Validated: 1
EndChar

StartChar: Si
Encoding: 65555 -1 107
Width: 1903
GlyphClass: 2
Flags: W
LayerCount: 2
Fore
SplineSet
1143 275 m 1,0,1
 1131 236 1131 236 1110 203.5 c 128,-1,2
 1089 171 1089 171 1059 147 c 128,-1,3
 1029 123 1029 123 990.5 109.5 c 128,-1,4
 952 96 952 96 906 96 c 0,5,6
 870 96 870 96 827.5 108 c 128,-1,7
 785 120 785 120 747 143 c 128,-1,8
 709 166 709 166 680.5 199 c 128,-1,9
 652 232 652 232 645 275 c 1,10,-1
 641 275 l 1,11,12
 629 236 629 236 600.5 203.5 c 128,-1,13
 572 171 572 171 532 147 c 128,-1,14
 492 123 492 123 442 109.5 c 128,-1,15
 392 96 392 96 338 96 c 2,16,-1
 0 96 l 2,17,18
 -11 96 -11 96 -23.5 98.5 c 128,-1,19
 -36 101 -36 101 -46.5 106 c 128,-1,20
 -57 111 -57 111 -63.5 117 c 128,-1,21
 -70 123 -70 123 -70 131 c 2,22,-1
 -70 288 l 1,23,-1
 329 288 l 2,24,25
 391 288 391 288 442 312.5 c 128,-1,26
 493 337 493 337 529.5 380.5 c 128,-1,27
 566 424 566 424 586.5 483 c 128,-1,28
 607 542 607 542 609 610 c 1,29,-1
 714 604 l 1,30,31
 712 589 712 589 712 557.5 c 128,-1,32
 712 526 712 526 712 461 c 0,33,34
 712 428 712 428 725.5 397 c 128,-1,35
 739 366 739 366 763.5 341.5 c 128,-1,36
 788 317 788 317 822 302.5 c 128,-1,37
 856 288 856 288 897 288 c 0,38,39
 950 288 950 288 989.5 312.5 c 128,-1,40
 1029 337 1029 337 1055.5 380.5 c 128,-1,41
 1082 424 1082 424 1095.5 483 c 128,-1,42
 1109 542 1109 542 1111 610 c 1,43,-1
 1216 604 l 1,44,45
 1214 589 1214 589 1214 557.5 c 128,-1,46
 1214 526 1214 526 1214 461 c 0,47,48
 1214 428 1214 428 1227.5 397 c 128,-1,49
 1241 366 1241 366 1265.5 341.5 c 128,-1,50
 1290 317 1290 317 1324 302.5 c 128,-1,51
 1358 288 1358 288 1399 288 c 0,52,53
 1459 288 1459 288 1499.5 295.5 c 128,-1,54
 1540 303 1540 303 1568 317.5 c 128,-1,55
 1596 332 1596 332 1613.5 354 c 128,-1,56
 1631 376 1631 376 1646 406 c 1,57,58
 1642 446 1642 446 1626 489 c 128,-1,59
 1610 532 1610 532 1588.5 572 c 128,-1,60
 1567 612 1567 612 1543 644.5 c 128,-1,61
 1519 677 1519 677 1500 696 c 1,62,-1
 1612 916 l 1,63,64
 1633 886 1633 886 1652 848.5 c 128,-1,65
 1671 811 1671 811 1686.5 770 c 128,-1,66
 1702 729 1702 729 1715 686 c 128,-1,67
 1728 643 1728 643 1737.5 602.5 c 128,-1,68
 1747 562 1747 562 1753.5 526.5 c 128,-1,69
 1760 491 1760 491 1763 464 c 1,70,71
 1749 381 1749 381 1721.5 313 c 128,-1,72
 1694 245 1694 245 1650.5 197 c 128,-1,73
 1607 149 1607 149 1547 122.5 c 128,-1,74
 1487 96 1487 96 1408 96 c 0,75,76
 1372 96 1372 96 1329.5 108 c 128,-1,77
 1287 120 1287 120 1249 143 c 128,-1,78
 1211 166 1211 166 1182.5 199 c 128,-1,79
 1154 232 1154 232 1147 275 c 1,80,-1
 1143 275 l 1,0,1
EndSplineSet
Validated: 1
EndChar

StartChar: Sm
Encoding: 65556 -1 108
Width: 2015
GlyphClass: 2
Flags: W
LayerCount: 2
Fore
SplineSet
2015 96 m 1,0,-1
 1910 96 l 2,1,2
 1874 96 1874 96 1831.5 108 c 128,-1,3
 1789 120 1789 120 1751 143 c 128,-1,4
 1713 166 1713 166 1684.5 199 c 128,-1,5
 1656 232 1656 232 1649 275 c 1,6,-1
 1645 275 l 1,7,8
 1633 236 1633 236 1612 203.5 c 128,-1,9
 1591 171 1591 171 1561 147 c 128,-1,10
 1531 123 1531 123 1492.5 109.5 c 128,-1,11
 1454 96 1454 96 1408 96 c 0,12,13
 1372 96 1372 96 1329.5 108 c 128,-1,14
 1287 120 1287 120 1249 143 c 128,-1,15
 1211 166 1211 166 1182.5 199 c 128,-1,16
 1154 232 1154 232 1147 275 c 1,17,-1
 1143 275 l 1,18,19
 1131 236 1131 236 1110 203.5 c 128,-1,20
 1089 171 1089 171 1059 147 c 128,-1,21
 1029 123 1029 123 990.5 109.5 c 128,-1,22
 952 96 952 96 906 96 c 0,23,24
 870 96 870 96 827.5 108 c 128,-1,25
 785 120 785 120 747 143 c 128,-1,26
 709 166 709 166 680.5 199 c 128,-1,27
 652 232 652 232 645 275 c 1,28,-1
 641 275 l 1,29,30
 629 236 629 236 600.5 203.5 c 128,-1,31
 572 171 572 171 532 147 c 128,-1,32
 492 123 492 123 442 109.5 c 128,-1,33
 392 96 392 96 338 96 c 2,34,-1
 0 96 l 2,35,36
 -11 96 -11 96 -23.5 98.5 c 128,-1,37
 -36 101 -36 101 -46.5 106 c 128,-1,38
 -57 111 -57 111 -63.5 117 c 128,-1,39
 -70 123 -70 123 -70 131 c 2,40,-1
 -70 288 l 1,41,-1
 329 288 l 2,42,43
 391 288 391 288 442 312.5 c 128,-1,44
 493 337 493 337 529.5 380.5 c 128,-1,45
 566 424 566 424 586.5 483 c 128,-1,46
 607 542 607 542 609 610 c 1,47,-1
 714 604 l 1,48,49
 712 589 712 589 712 557.5 c 128,-1,50
 712 526 712 526 712 461 c 0,51,52
 712 428 712 428 725.5 397 c 128,-1,53
 739 366 739 366 763.5 341.5 c 128,-1,54
 788 317 788 317 822 302.5 c 128,-1,55
 856 288 856 288 897 288 c 0,56,57
 950 288 950 288 989.5 312.5 c 128,-1,58
 1029 337 1029 337 1055.5 380.5 c 128,-1,59
 1082 424 1082 424 1095.5 483 c 128,-1,60
 1109 542 1109 542 1111 610 c 1,61,-1
 1216 604 l 1,62,63
 1214 589 1214 589 1214 557.5 c 128,-1,64
 1214 526 1214 526 1214 461 c 0,65,66
 1214 428 1214 428 1227.5 397 c 128,-1,67
 1241 366 1241 366 1265.5 341.5 c 128,-1,68
 1290 317 1290 317 1324 302.5 c 128,-1,69
 1358 288 1358 288 1399 288 c 0,70,71
 1452 288 1452 288 1491.5 312.5 c 128,-1,72
 1531 337 1531 337 1557.5 380.5 c 128,-1,73
 1584 424 1584 424 1597.5 483 c 128,-1,74
 1611 542 1611 542 1613 610 c 1,75,-1
 1718 604 l 1,76,77
 1716 589 1716 589 1716 557.5 c 128,-1,78
 1716 526 1716 526 1716 461 c 0,79,80
 1716 428 1716 428 1729.5 397 c 128,-1,81
 1743 366 1743 366 1767.5 341.5 c 128,-1,82
 1792 317 1792 317 1826 302.5 c 128,-1,83
 1860 288 1860 288 1901 288 c 2,84,-1
 2015 288 l 1,85,-1
 2015 96 l 1,0,-1
EndSplineSet
Validated: 1
EndChar

StartChar: Zs
Encoding: 65557 -1 109
Width: 2732
GlyphClass: 2
Flags: W
LayerCount: 2
Fore
SplineSet
1567 96 m 2,0,1
 1504 96 1504 96 1462.5 108.5 c 128,-1,2
 1421 121 1421 121 1395 149 c 1,3,4
 1395 103 1395 103 1384.5 58.5 c 128,-1,5
 1374 14 1374 14 1358 -26.5 c 128,-1,6
 1342 -67 1342 -67 1324 -102 c 128,-1,7
 1306 -137 1306 -137 1290 -164 c 1,8,9
 1250 -197 1250 -197 1195.5 -226 c 128,-1,10
 1141 -255 1141 -255 1078 -279.5 c 128,-1,11
 1015 -304 1015 -304 947.5 -323 c 128,-1,12
 880 -342 880 -342 814 -355.5 c 128,-1,13
 748 -369 748 -369 686 -376 c 128,-1,14
 624 -383 624 -383 573 -383 c 0,15,16
 473 -383 473 -383 390 -361.5 c 128,-1,17
 307 -340 307 -340 247 -296.5 c 128,-1,18
 187 -253 187 -253 153.5 -187.5 c 128,-1,19
 120 -122 120 -122 120 -34 c 0,20,21
 120 7 120 7 130 65 c 128,-1,22
 140 123 140 123 160.5 191 c 128,-1,23
 181 259 181 259 213.5 334.5 c 128,-1,24
 246 410 246 410 291 487 c 1,25,-1
 384 438 l 1,26,27
 358 394 358 394 337 345.5 c 128,-1,28
 316 297 316 297 301 249.5 c 128,-1,29
 286 202 286 202 278 157.5 c 128,-1,30
 270 113 270 113 270 76 c 0,31,32
 270 -51 270 -51 361.5 -115.5 c 128,-1,33
 453 -180 453 -180 618 -180 c 0,34,35
 689 -180 689 -180 777 -165 c 128,-1,36
 865 -150 865 -150 954.5 -124 c 128,-1,37
 1044 -98 1044 -98 1126.5 -62 c 128,-1,38
 1209 -26 1209 -26 1269 16 c 1,39,40
 1268 63 1268 63 1260 109.5 c 128,-1,41
 1252 156 1252 156 1234.5 204.5 c 128,-1,42
 1217 253 1217 253 1188.5 306 c 128,-1,43
 1160 359 1160 359 1118 420 c 1,44,45
 1118 420 1118 420 1127 435 c 128,-1,46
 1136 450 1136 450 1149.5 472.5 c 128,-1,47
 1163 495 1163 495 1178.5 521 c 128,-1,48
 1194 547 1194 547 1207.5 569.5 c 128,-1,49
 1221 592 1221 592 1229.5 607 c 128,-1,50
 1238 622 1238 622 1238 622 c 1,51,52
 1286 515 1286 515 1321.5 449.5 c 128,-1,53
 1357 384 1357 384 1391.5 348 c 128,-1,54
 1426 312 1426 312 1465 300 c 128,-1,55
 1504 288 1504 288 1558 288 c 1,56,57
 1664 442 1664 442 1760 555 c 128,-1,58
 1856 668 1856 668 1946 741.5 c 128,-1,59
 2036 815 2036 815 2121.5 850.5 c 128,-1,60
 2207 886 2207 886 2293 886 c 0,61,62
 2365 886 2365 886 2423.5 851 c 128,-1,63
 2482 816 2482 816 2523.5 761 c 128,-1,64
 2565 706 2565 706 2588 638.5 c 128,-1,65
 2611 571 2611 571 2612 507 c 1,66,67
 2540 385 2540 385 2460 305.5 c 128,-1,68
 2380 226 2380 226 2279.5 179.5 c 128,-1,69
 2179 133 2179 133 2051 114.5 c 128,-1,70
 1923 96 1923 96 1755 96 c 2,71,-1
 1567 96 l 2,0,1
1982 288 m 2,72,73
 2066 288 2066 288 2139 299.5 c 128,-1,74
 2212 311 2212 311 2272 331 c 128,-1,75
 2332 351 2332 351 2378.5 377 c 128,-1,76
 2425 403 2425 403 2457 433 c 1,77,78
 2456 481 2456 481 2437 531.5 c 128,-1,79
 2418 582 2418 582 2386.5 622.5 c 128,-1,80
 2355 663 2355 663 2313.5 689 c 128,-1,81
 2272 715 2272 715 2225 715 c 0,82,83
 2163 715 2163 715 2100.5 684 c 128,-1,84
 2038 653 2038 653 1972 597 c 128,-1,85
 1906 541 1906 541 1835.5 462.5 c 128,-1,86
 1765 384 1765 384 1688 288 c 1,87,-1
 1982 288 l 2,72,73
EndSplineSet
Validated: 1
EndChar

StartChar: Zf
Encoding: 65558 -1 110
Width: 2799
GlyphClass: 2
Flags: W
LayerCount: 2
Fore
SplineSet
2799 96 m 1,0,-1
 2603 96 l 2,1,2
 2569 96 2569 96 2524.5 99.5 c 128,-1,3
 2480 103 2480 103 2429 111.5 c 128,-1,4
 2378 120 2378 120 2323.5 134 c 128,-1,5
 2269 148 2269 148 2216 170 c 1,6,7
 2160 149 2160 149 2111 135 c 128,-1,8
 2062 121 2062 121 2009.5 112.5 c 128,-1,9
 1957 104 1957 104 1895.5 100 c 128,-1,10
 1834 96 1834 96 1755 96 c 2,11,-1
 1567 96 l 2,12,13
 1504 96 1504 96 1462.5 108.5 c 128,-1,14
 1421 121 1421 121 1395 149 c 1,15,16
 1395 103 1395 103 1384.5 58.5 c 128,-1,17
 1374 14 1374 14 1358 -26.5 c 128,-1,18
 1342 -67 1342 -67 1324 -102 c 128,-1,19
 1306 -137 1306 -137 1290 -164 c 1,20,21
 1250 -197 1250 -197 1195.5 -226 c 128,-1,22
 1141 -255 1141 -255 1078 -279.5 c 128,-1,23
 1015 -304 1015 -304 947.5 -323 c 128,-1,24
 880 -342 880 -342 814 -355.5 c 128,-1,25
 748 -369 748 -369 686 -376 c 128,-1,26
 624 -383 624 -383 573 -383 c 0,27,28
 473 -383 473 -383 390 -361.5 c 128,-1,29
 307 -340 307 -340 247 -296.5 c 128,-1,30
 187 -253 187 -253 153.5 -187.5 c 128,-1,31
 120 -122 120 -122 120 -34 c 0,32,33
 120 7 120 7 130 65 c 128,-1,34
 140 123 140 123 160.5 191 c 128,-1,35
 181 259 181 259 213.5 334.5 c 128,-1,36
 246 410 246 410 291 487 c 1,37,-1
 384 438 l 1,38,39
 358 394 358 394 337 345.5 c 128,-1,40
 316 297 316 297 301 249.5 c 128,-1,41
 286 202 286 202 278 157.5 c 128,-1,42
 270 113 270 113 270 76 c 0,43,44
 270 -51 270 -51 361.5 -115.5 c 128,-1,45
 453 -180 453 -180 618 -180 c 0,46,47
 689 -180 689 -180 777 -165 c 128,-1,48
 865 -150 865 -150 954.5 -124 c 128,-1,49
 1044 -98 1044 -98 1126.5 -62 c 128,-1,50
 1209 -26 1209 -26 1269 16 c 1,51,52
 1268 63 1268 63 1260 109.5 c 128,-1,53
 1252 156 1252 156 1234.5 204.5 c 128,-1,54
 1217 253 1217 253 1188.5 306 c 128,-1,55
 1160 359 1160 359 1118 420 c 1,56,57
 1118 420 1118 420 1127 435 c 128,-1,58
 1136 450 1136 450 1149.5 472.5 c 128,-1,59
 1163 495 1163 495 1178.5 521 c 128,-1,60
 1194 547 1194 547 1207.5 569.5 c 128,-1,61
 1221 592 1221 592 1229.5 607 c 128,-1,62
 1238 622 1238 622 1238 622 c 1,63,64
 1286 515 1286 515 1321.5 449.5 c 128,-1,65
 1357 384 1357 384 1391.5 348 c 128,-1,66
 1426 312 1426 312 1465 300 c 128,-1,67
 1504 288 1504 288 1558 288 c 1,68,69
 1664 442 1664 442 1760 555 c 128,-1,70
 1856 668 1856 668 1946 741.5 c 128,-1,71
 2036 815 2036 815 2121.5 850.5 c 128,-1,72
 2207 886 2207 886 2293 886 c 0,73,74
 2365 886 2365 886 2423.5 851 c 128,-1,75
 2482 816 2482 816 2523.5 761 c 128,-1,76
 2565 706 2565 706 2588 638.5 c 128,-1,77
 2611 571 2611 571 2612 507 c 1,78,79
 2576 445 2576 445 2535 395.5 c 128,-1,80
 2494 346 2494 346 2447 305 c 1,81,82
 2467 292 2467 292 2496 290 c 128,-1,83
 2525 288 2525 288 2548 288 c 2,84,-1
 2799 288 l 1,85,-1
 2799 96 l 1,0,-1
1982 288 m 2,86,87
 2066 288 2066 288 2139 299.5 c 128,-1,88
 2212 311 2212 311 2272 331 c 128,-1,89
 2332 351 2332 351 2378.5 377 c 128,-1,90
 2425 403 2425 403 2457 433 c 1,91,92
 2456 481 2456 481 2437 531.5 c 128,-1,93
 2418 582 2418 582 2386.5 622.5 c 128,-1,94
 2355 663 2355 663 2313.5 689 c 128,-1,95
 2272 715 2272 715 2225 715 c 0,96,97
 2163 715 2163 715 2100.5 684 c 128,-1,98
 2038 653 2038 653 1972 597 c 128,-1,99
 1906 541 1906 541 1835.5 462.5 c 128,-1,100
 1765 384 1765 384 1688 288 c 1,101,-1
 1982 288 l 2,86,87
EndSplineSet
Validated: 1
EndChar

StartChar: Zi
Encoding: 65559 -1 111
Width: 1836
GlyphClass: 2
Flags: W
LayerCount: 2
Fore
SplineSet
752 96 m 2,0,1
 675 96 675 96 620 108 c 128,-1,2
 565 120 565 120 526.5 143 c 128,-1,3
 488 166 488 166 464.5 199 c 128,-1,4
 441 232 441 232 426 274 c 1,5,-1
 420 275 l 1,6,7
 408 236 408 236 379.5 203.5 c 128,-1,8
 351 171 351 171 311 147 c 128,-1,9
 271 123 271 123 221 109.5 c 128,-1,10
 171 96 171 96 117 96 c 2,11,-1
 0 96 l 2,12,13
 -11 96 -11 96 -23.5 98.5 c 128,-1,14
 -36 101 -36 101 -46.5 106 c 128,-1,15
 -57 111 -57 111 -63.5 117 c 128,-1,16
 -70 123 -70 123 -70 131 c 2,17,-1
 -70 288 l 1,18,-1
 108 288 l 2,19,20
 170 288 170 288 221 314.5 c 128,-1,21
 272 341 272 341 308.5 386 c 128,-1,22
 345 431 345 431 365.5 491.5 c 128,-1,23
 386 552 386 552 388 620 c 1,24,-1
 493 614 l 1,25,26
 491 599 491 599 491 562.5 c 128,-1,27
 491 526 491 526 491 461 c 0,28,29
 491 428 491 428 498.5 397 c 128,-1,30
 506 366 506 366 525.5 341.5 c 128,-1,31
 545 317 545 317 578 302.5 c 128,-1,32
 611 288 611 288 662 288 c 1,33,34
 768 442 768 442 864 555 c 128,-1,35
 960 668 960 668 1050 741.5 c 128,-1,36
 1140 815 1140 815 1225.5 850.5 c 128,-1,37
 1311 886 1311 886 1397 886 c 0,38,39
 1469 886 1469 886 1527.5 851 c 128,-1,40
 1586 816 1586 816 1627.5 761 c 128,-1,41
 1669 706 1669 706 1692 638.5 c 128,-1,42
 1715 571 1715 571 1716 507 c 1,43,44
 1644 385 1644 385 1564 305.5 c 128,-1,45
 1484 226 1484 226 1383.5 179.5 c 128,-1,46
 1283 133 1283 133 1155 114.5 c 128,-1,47
 1027 96 1027 96 859 96 c 2,48,-1
 752 96 l 2,0,1
1086 288 m 2,49,50
 1170 288 1170 288 1243 299.5 c 128,-1,51
 1316 311 1316 311 1376 331 c 128,-1,52
 1436 351 1436 351 1482.5 377 c 128,-1,53
 1529 403 1529 403 1561 433 c 1,54,55
 1560 481 1560 481 1541 531.5 c 128,-1,56
 1522 582 1522 582 1490.5 622.5 c 128,-1,57
 1459 663 1459 663 1417.5 689 c 128,-1,58
 1376 715 1376 715 1329 715 c 0,59,60
 1267 715 1267 715 1204.5 684 c 128,-1,61
 1142 653 1142 653 1076 597 c 128,-1,62
 1010 541 1010 541 939.5 462.5 c 128,-1,63
 869 384 869 384 792 288 c 1,64,-1
 1086 288 l 2,49,50
EndSplineSet
Validated: 1
EndChar

StartChar: Zm
Encoding: 65560 -1 112
Width: 1903
GlyphClass: 2
Flags: W
LayerCount: 2
Fore
SplineSet
1903 96 m 1,0,-1
 1707 96 l 2,1,2
 1673 96 1673 96 1628.5 99.5 c 128,-1,3
 1584 103 1584 103 1533.5 111.5 c 128,-1,4
 1483 120 1483 120 1429 134 c 128,-1,5
 1375 148 1375 148 1322 170 c 1,6,7
 1266 149 1266 149 1217 135 c 128,-1,8
 1168 121 1168 121 1114.5 112.5 c 128,-1,9
 1061 104 1061 104 999.5 100 c 128,-1,10
 938 96 938 96 859 96 c 2,11,-1
 752 96 l 2,12,13
 675 96 675 96 620 108 c 128,-1,14
 565 120 565 120 526.5 143 c 128,-1,15
 488 166 488 166 464.5 199 c 128,-1,16
 441 232 441 232 426 274 c 1,17,-1
 420 275 l 1,18,19
 408 236 408 236 379.5 203.5 c 128,-1,20
 351 171 351 171 311 147 c 128,-1,21
 271 123 271 123 221 109.5 c 128,-1,22
 171 96 171 96 117 96 c 2,23,-1
 0 96 l 2,24,25
 -11 96 -11 96 -23.5 98.5 c 128,-1,26
 -36 101 -36 101 -46.5 106 c 128,-1,27
 -57 111 -57 111 -63.5 117 c 128,-1,28
 -70 123 -70 123 -70 131 c 2,29,-1
 -70 288 l 1,30,-1
 108 288 l 2,31,32
 170 288 170 288 221 314.5 c 128,-1,33
 272 341 272 341 308.5 386 c 128,-1,34
 345 431 345 431 365.5 491.5 c 128,-1,35
 386 552 386 552 388 620 c 1,36,-1
 493 614 l 1,37,38
 491 599 491 599 491 562.5 c 128,-1,39
 491 526 491 526 491 461 c 0,40,41
 491 428 491 428 498.5 397 c 128,-1,42
 506 366 506 366 525.5 341.5 c 128,-1,43
 545 317 545 317 578 302.5 c 128,-1,44
 611 288 611 288 662 288 c 1,45,46
 768 442 768 442 864 555 c 128,-1,47
 960 668 960 668 1050 741.5 c 128,-1,48
 1140 815 1140 815 1225.5 850.5 c 128,-1,49
 1311 886 1311 886 1397 886 c 0,50,51
 1469 886 1469 886 1527.5 851 c 128,-1,52
 1586 816 1586 816 1627.5 761 c 128,-1,53
 1669 706 1669 706 1692 638.5 c 128,-1,54
 1715 571 1715 571 1716 507 c 1,55,56
 1680 445 1680 445 1639 395.5 c 128,-1,57
 1598 346 1598 346 1551 305 c 1,58,59
 1571 292 1571 292 1600 290 c 128,-1,60
 1629 288 1629 288 1652 288 c 2,61,-1
 1903 288 l 1,62,-1
 1903 96 l 1,0,-1
1086 288 m 2,63,64
 1170 288 1170 288 1243 299.5 c 128,-1,65
 1316 311 1316 311 1376 331 c 128,-1,66
 1436 351 1436 351 1482.5 377 c 128,-1,67
 1529 403 1529 403 1561 433 c 1,68,69
 1560 481 1560 481 1541 531.5 c 128,-1,70
 1522 582 1522 582 1490.5 622.5 c 128,-1,71
 1459 663 1459 663 1417.5 689 c 128,-1,72
 1376 715 1376 715 1329 715 c 0,73,74
 1267 715 1267 715 1204.5 684 c 128,-1,75
 1142 653 1142 653 1076 597 c 128,-1,76
 1010 541 1010 541 939.5 462.5 c 128,-1,77
 869 384 869 384 792 288 c 1,78,-1
 1086 288 l 2,63,64
EndSplineSet
Validated: 1
EndChar

StartChar: Ts
Encoding: 65561 -1 113
Width: 1600
GlyphClass: 2
Flags: W
LayerCount: 2
Fore
SplineSet
196 328 m 1,0,1
 238 317 238 317 282.5 302.5 c 128,-1,2
 327 288 327 288 372 288 c 1,3,4
 372 505 372 505 364 705 c 128,-1,5
 356 905 356 905 342 1068 c 128,-1,6
 328 1231 328 1231 309.5 1347.5 c 128,-1,7
 291 1464 291 1464 269 1515 c 1,8,9
 303 1556 303 1556 336.5 1596 c 128,-1,10
 370 1636 370 1636 402 1676 c 1,11,-1
 572 1334 l 1,12,-1
 528 1302 l 1,13,-1
 451 1349 l 1,14,15
 454 1313 454 1313 458.5 1250.5 c 128,-1,16
 463 1188 463 1188 467.5 1109.5 c 128,-1,17
 472 1031 472 1031 476 942 c 128,-1,18
 480 853 480 853 483 764 c 128,-1,19
 486 675 486 675 488 592 c 128,-1,20
 490 509 490 509 490 443 c 1,21,22
 596 569 596 569 688.5 653.5 c 128,-1,23
 781 738 781 738 863.5 790 c 128,-1,24
 946 842 946 842 1019.5 864 c 128,-1,25
 1093 886 1093 886 1161 886 c 0,26,27
 1233 886 1233 886 1291.5 851 c 128,-1,28
 1350 816 1350 816 1391.5 761 c 128,-1,29
 1433 706 1433 706 1456 638.5 c 128,-1,30
 1479 571 1479 571 1480 507 c 1,31,32
 1408 385 1408 385 1316 305.5 c 128,-1,33
 1224 226 1224 226 1109 179.5 c 128,-1,34
 994 133 994 133 854 114.5 c 128,-1,35
 714 96 714 96 546 96 c 0,36,37
 504 96 504 96 465 96.5 c 128,-1,38
 426 97 426 97 388 99 c 1,39,40
 358 115 358 115 321 143.5 c 128,-1,41
 284 172 284 172 248 205 c 128,-1,42
 212 238 212 238 180.5 271.5 c 128,-1,43
 149 305 149 305 131 331 c 1,44,-1
 196 328 l 1,0,1
773 288 m 2,45,46
 857 288 857 288 942 299.5 c 128,-1,47
 1027 311 1027 311 1101.5 331 c 128,-1,48
 1176 351 1176 351 1234.5 377 c 128,-1,49
 1293 403 1293 403 1325 433 c 1,50,51
 1324 481 1324 481 1305 531.5 c 128,-1,52
 1286 582 1286 582 1254.5 622.5 c 128,-1,53
 1223 663 1223 663 1181.5 689 c 128,-1,54
 1140 715 1140 715 1093 715 c 0,55,56
 1031 715 1031 715 956.5 684 c 128,-1,57
 882 653 882 653 801.5 597 c 128,-1,58
 721 541 721 541 638.5 462.5 c 128,-1,59
 556 384 556 384 479 288 c 1,60,-1
 773 288 l 2,45,46
EndSplineSet
Validated: 1
EndChar

StartChar: Tf
Encoding: 65562 -1 114
Width: 1669
GlyphClass: 2
Flags: W
LayerCount: 2
Fore
SplineSet
1669 96 m 1,0,-1
 1473 96 l 2,1,2
 1439 96 1439 96 1393.5 99.5 c 128,-1,3
 1348 103 1348 103 1296.5 111.5 c 128,-1,4
 1245 120 1245 120 1190 134.5 c 128,-1,5
 1135 149 1135 149 1082 172 c 1,6,7
 970 130 970 130 837 113 c 128,-1,8
 704 96 704 96 543 96 c 0,9,10
 501 96 501 96 462 96.5 c 128,-1,11
 423 97 423 97 385 99 c 1,12,13
 355 115 355 115 318 143.5 c 128,-1,14
 281 172 281 172 245 205 c 128,-1,15
 209 238 209 238 177.5 271.5 c 128,-1,16
 146 305 146 305 128 331 c 1,17,-1
 193 328 l 1,18,19
 235 317 235 317 279.5 302.5 c 128,-1,20
 324 288 324 288 369 288 c 1,21,22
 369 505 369 505 361 705 c 128,-1,23
 353 905 353 905 339 1068 c 128,-1,24
 325 1231 325 1231 306.5 1347.5 c 128,-1,25
 288 1464 288 1464 266 1515 c 1,26,27
 300 1556 300 1556 333.5 1596 c 128,-1,28
 367 1636 367 1636 399 1676 c 1,29,-1
 569 1334 l 1,30,-1
 525 1302 l 1,31,-1
 448 1349 l 1,32,33
 451 1313 451 1313 455.5 1250.5 c 128,-1,34
 460 1188 460 1188 464.5 1109.5 c 128,-1,35
 469 1031 469 1031 473 942 c 128,-1,36
 477 853 477 853 480 764 c 128,-1,37
 483 675 483 675 485 592 c 128,-1,38
 487 509 487 509 487 443 c 1,39,40
 593 569 593 569 685.5 653.5 c 128,-1,41
 778 738 778 738 860.5 790 c 128,-1,42
 943 842 943 842 1016.5 864 c 128,-1,43
 1090 886 1090 886 1158 886 c 0,44,45
 1230 886 1230 886 1288.5 851 c 128,-1,46
 1347 816 1347 816 1388.5 761 c 128,-1,47
 1430 706 1430 706 1453 638.5 c 128,-1,48
 1476 571 1476 571 1477 507 c 1,49,50
 1462 472 1462 472 1443 443.5 c 128,-1,51
 1424 415 1424 415 1402 390.5 c 128,-1,52
 1380 366 1380 366 1355.5 344.5 c 128,-1,53
 1331 323 1331 323 1306 302 c 1,54,55
 1338 289 1338 289 1366.5 287 c 128,-1,56
 1395 285 1395 285 1418 285 c 2,57,-1
 1669 285 l 1,58,-1
 1669 96 l 1,0,-1
770 288 m 2,59,60
 854 288 854 288 939 299.5 c 128,-1,61
 1024 311 1024 311 1098.5 331 c 128,-1,62
 1173 351 1173 351 1231.5 377 c 128,-1,63
 1290 403 1290 403 1322 433 c 1,64,65
 1321 481 1321 481 1302 531.5 c 128,-1,66
 1283 582 1283 582 1251.5 622.5 c 128,-1,67
 1220 663 1220 663 1178.5 689 c 128,-1,68
 1137 715 1137 715 1090 715 c 0,69,70
 1028 715 1028 715 953.5 684 c 128,-1,71
 879 653 879 653 798.5 597 c 128,-1,72
 718 541 718 541 635.5 462.5 c 128,-1,73
 553 384 553 384 476 288 c 1,74,-1
 770 288 l 2,59,60
EndSplineSet
Validated: 1
EndChar

StartChar: Ti
Encoding: 65563 -1 115
Width: 1467
GlyphClass: 2
Flags: W
LayerCount: 2
Fore
SplineSet
239 288 m 1,0,1
 239 505 239 505 231 705 c 128,-1,2
 223 905 223 905 209 1068 c 128,-1,3
 195 1231 195 1231 176.5 1347.5 c 128,-1,4
 158 1464 158 1464 136 1515 c 1,5,6
 170 1556 170 1556 203.5 1596 c 128,-1,7
 237 1636 237 1636 269 1676 c 1,8,-1
 439 1334 l 1,9,-1
 395 1302 l 1,10,-1
 318 1349 l 1,11,12
 321 1313 321 1313 325.5 1250.5 c 128,-1,13
 330 1188 330 1188 334.5 1109.5 c 128,-1,14
 339 1031 339 1031 343 942 c 128,-1,15
 347 853 347 853 350 764 c 128,-1,16
 353 675 353 675 355 592 c 128,-1,17
 357 509 357 509 357 443 c 1,18,19
 463 569 463 569 555.5 653.5 c 128,-1,20
 648 738 648 738 730.5 790 c 128,-1,21
 813 842 813 842 886.5 864 c 128,-1,22
 960 886 960 886 1028 886 c 0,23,24
 1100 886 1100 886 1158.5 851 c 128,-1,25
 1217 816 1217 816 1258.5 761 c 128,-1,26
 1300 706 1300 706 1323 638.5 c 128,-1,27
 1346 571 1346 571 1347 507 c 1,28,29
 1275 385 1275 385 1183 305.5 c 128,-1,30
 1091 226 1091 226 976 179.5 c 128,-1,31
 861 133 861 133 721 114.5 c 128,-1,32
 581 96 581 96 413 96 c 2,33,-1
 0 96 l 2,34,35
 -11 96 -11 96 -23.5 98.5 c 128,-1,36
 -36 101 -36 101 -46.5 106 c 128,-1,37
 -57 111 -57 111 -63.5 117 c 128,-1,38
 -70 123 -70 123 -70 131 c 2,39,-1
 -70 288 l 1,40,-1
 239 288 l 1,0,1
640 288 m 2,41,42
 724 288 724 288 809 299.5 c 128,-1,43
 894 311 894 311 968.5 331 c 128,-1,44
 1043 351 1043 351 1101.5 377 c 128,-1,45
 1160 403 1160 403 1192 433 c 1,46,47
 1191 481 1191 481 1172 531.5 c 128,-1,48
 1153 582 1153 582 1121.5 622.5 c 128,-1,49
 1090 663 1090 663 1048.5 689 c 128,-1,50
 1007 715 1007 715 960 715 c 0,51,52
 898 715 898 715 823.5 684 c 128,-1,53
 749 653 749 653 668.5 597 c 128,-1,54
 588 541 588 541 505.5 462.5 c 128,-1,55
 423 384 423 384 346 288 c 1,56,-1
 640 288 l 2,41,42
EndSplineSet
Validated: 1
EndChar

StartChar: Tm
Encoding: 65564 -1 116
Width: 1539
GlyphClass: 2
Flags: W
LayerCount: 2
Fore
SplineSet
1539 96 m 1,0,-1
 1343 96 l 2,1,2
 1309 96 1309 96 1263.5 99.5 c 128,-1,3
 1218 103 1218 103 1166.5 111.5 c 128,-1,4
 1115 120 1115 120 1060 134.5 c 128,-1,5
 1005 149 1005 149 952 172 c 1,6,7
 840 130 840 130 707 113 c 128,-1,8
 574 96 574 96 413 96 c 2,9,-1
 0 96 l 2,10,11
 -11 96 -11 96 -23.5 98.5 c 128,-1,12
 -36 101 -36 101 -46.5 106 c 128,-1,13
 -57 111 -57 111 -63.5 117 c 128,-1,14
 -70 123 -70 123 -70 131 c 2,15,-1
 -70 288 l 1,16,-1
 239 288 l 1,17,18
 239 505 239 505 231 705 c 128,-1,19
 223 905 223 905 209 1068 c 128,-1,20
 195 1231 195 1231 176.5 1347.5 c 128,-1,21
 158 1464 158 1464 136 1515 c 1,22,23
 170 1556 170 1556 203.5 1596 c 128,-1,24
 237 1636 237 1636 269 1676 c 1,25,-1
 439 1334 l 1,26,-1
 395 1302 l 1,27,-1
 318 1349 l 1,28,29
 321 1313 321 1313 325.5 1250.5 c 128,-1,30
 330 1188 330 1188 334.5 1109.5 c 128,-1,31
 339 1031 339 1031 343 942 c 128,-1,32
 347 853 347 853 350 764 c 128,-1,33
 353 675 353 675 355 592 c 128,-1,34
 357 509 357 509 357 443 c 1,35,36
 463 569 463 569 555.5 653.5 c 128,-1,37
 648 738 648 738 730.5 790 c 128,-1,38
 813 842 813 842 886.5 864 c 128,-1,39
 960 886 960 886 1028 886 c 0,40,41
 1100 886 1100 886 1158.5 851 c 128,-1,42
 1217 816 1217 816 1258.5 761 c 128,-1,43
 1300 706 1300 706 1323 638.5 c 128,-1,44
 1346 571 1346 571 1347 507 c 1,45,46
 1332 472 1332 472 1313 444 c 128,-1,47
 1294 416 1294 416 1272 392 c 128,-1,48
 1250 368 1250 368 1225.5 347 c 128,-1,49
 1201 326 1201 326 1176 305 c 1,50,51
 1208 292 1208 292 1236.5 290 c 128,-1,52
 1265 288 1265 288 1288 288 c 2,53,-1
 1539 288 l 1,54,-1
 1539 96 l 1,0,-1
640 288 m 2,55,56
 724 288 724 288 809 299.5 c 128,-1,57
 894 311 894 311 968.5 331 c 128,-1,58
 1043 351 1043 351 1101.5 377 c 128,-1,59
 1160 403 1160 403 1192 433 c 1,60,61
 1191 481 1191 481 1172 531.5 c 128,-1,62
 1153 582 1153 582 1121.5 622.5 c 128,-1,63
 1090 663 1090 663 1048.5 689 c 128,-1,64
 1007 715 1007 715 960 715 c 0,65,66
 898 715 898 715 823.5 684 c 128,-1,67
 749 653 749 653 668.5 597 c 128,-1,68
 588 541 588 541 505.5 462.5 c 128,-1,69
 423 384 423 384 346 288 c 1,70,-1
 640 288 l 2,55,56
EndSplineSet
Validated: 1
EndChar

StartChar: Is
Encoding: 65565 -1 117
Width: 1256
GlyphClass: 2
Flags: W
LayerCount: 2
Fore
SplineSet
1001 640 m 1,0,1
 834 620 834 620 702 571.5 c 128,-1,2
 570 523 570 523 478 454.5 c 128,-1,3
 386 386 386 386 337.5 303 c 128,-1,4
 289 220 289 220 289 130 c 0,5,6
 289 38 289 38 336 -31.5 c 128,-1,7
 383 -101 383 -101 468.5 -148 c 128,-1,8
 554 -195 554 -195 674 -218.5 c 128,-1,9
 794 -242 794 -242 940 -242 c 0,10,11
 995 -242 995 -242 1042.5 -234.5 c 128,-1,12
 1090 -227 1090 -227 1122 -213 c 1,13,14
 1101 -253 1101 -253 1085 -285 c 0,15,16
 1078 -299 1078 -299 1071.5 -312 c 128,-1,17
 1065 -325 1065 -325 1059.5 -335 c 128,-1,18
 1054 -345 1054 -345 1051 -351 c 128,-1,19
 1048 -357 1048 -357 1048 -357 c 1,20,21
 1034 -363 1034 -363 997.5 -367.5 c 128,-1,22
 961 -372 961 -372 913.5 -376 c 128,-1,23
 866 -380 866 -380 813.5 -382 c 128,-1,24
 761 -384 761 -384 715 -384 c 0,25,26
 581 -384 581 -384 470 -357.5 c 128,-1,27
 359 -331 359 -331 279.5 -277.5 c 128,-1,28
 200 -224 200 -224 156 -144 c 128,-1,29
 112 -64 112 -64 112 44 c 0,30,31
 112 125 112 125 144 204 c 128,-1,32
 176 283 176 283 228.5 353.5 c 128,-1,33
 281 424 281 424 348.5 483.5 c 128,-1,34
 416 543 416 543 486 586 c 1,35,36
 376 632 376 632 323.5 709.5 c 128,-1,37
 271 787 271 787 271 901 c 1,38,39
 299 983 299 983 339.5 1046 c 128,-1,40
 380 1109 380 1109 426.5 1152 c 128,-1,41
 473 1195 473 1195 523.5 1217 c 128,-1,42
 574 1239 574 1239 621 1239 c 0,43,44
 705 1239 705 1239 783.5 1191 c 128,-1,45
 862 1143 862 1143 923 1055 c 1,46,47
 894 1063 894 1063 867.5 1068 c 128,-1,48
 841 1073 841 1073 813.5 1076 c 128,-1,49
 786 1079 786 1079 756 1080.5 c 128,-1,50
 726 1082 726 1082 691 1082 c 0,51,52
 659 1082 659 1082 618.5 1075 c 128,-1,53
 578 1068 578 1068 537.5 1055 c 128,-1,54
 497 1042 497 1042 459.5 1024 c 128,-1,55
 422 1006 422 1006 396 985 c 1,56,57
 396 943 396 943 413 899.5 c 128,-1,58
 430 856 430 856 461.5 817.5 c 128,-1,59
 493 779 493 779 538.5 749.5 c 128,-1,60
 584 720 584 720 640 707 c 1,61,62
 656 710 656 710 689.5 719 c 128,-1,63
 723 728 723 728 765.5 740.5 c 128,-1,64
 808 753 808 753 855 767 c 128,-1,65
 902 781 902 781 945 794.5 c 128,-1,66
 988 808 988 808 1022.5 818.5 c 128,-1,67
 1057 829 1057 829 1074 835 c 1,68,-1
 1001 640 l 1,0,1
EndSplineSet
Validated: 1
EndChar

StartChar: If
Encoding: 65566 -1 118
Width: 1256
GlyphClass: 2
Flags: W
LayerCount: 2
Fore
SplineSet
1256 96 m 1,0,-1
 1176 96 l 2,1,2
 1098 96 1098 96 1031.5 134.5 c 128,-1,3
 965 173 965 173 913 239 c 128,-1,4
 861 305 861 305 825 392 c 128,-1,5
 789 479 789 479 771 577 c 1,6,7
 669 545 669 545 586 490 c 128,-1,8
 503 435 503 435 444.5 370.5 c 128,-1,9
 386 306 386 306 354 240.5 c 128,-1,10
 322 175 322 175 322 123 c 0,11,12
 322 27 322 27 363 -41.5 c 128,-1,13
 404 -110 404 -110 483.5 -154 c 128,-1,14
 563 -198 563 -198 680 -218.5 c 128,-1,15
 797 -239 797 -239 948 -239 c 0,16,17
 1009 -239 1009 -239 1052 -236.5 c 128,-1,18
 1095 -234 1095 -234 1133 -229 c 1,19,20
 1113 -266 1113 -266 1097 -296 c 0,21,22
 1090 -309 1090 -309 1083.5 -321 c 128,-1,23
 1077 -333 1077 -333 1072 -342.5 c 128,-1,24
 1067 -352 1067 -352 1064 -357.5 c 128,-1,25
 1061 -363 1061 -363 1061 -363 c 1,26,27
 1026 -371 1026 -371 947 -377 c 128,-1,28
 868 -383 868 -383 761 -383 c 0,29,30
 632 -383 632 -383 519 -361 c 128,-1,31
 406 -339 406 -339 323 -290 c 128,-1,32
 240 -241 240 -241 192 -161.5 c 128,-1,33
 144 -82 144 -82 144 34 c 0,34,35
 144 113 144 113 184.5 204 c 128,-1,36
 225 295 225 295 302 381.5 c 128,-1,37
 379 468 379 468 490.5 543 c 128,-1,38
 602 618 602 618 745 666 c 1,39,40
 731 703 731 703 710 725.5 c 128,-1,41
 689 748 689 748 662.5 760 c 128,-1,42
 636 772 636 772 604 776 c 128,-1,43
 572 780 572 780 536 780 c 0,44,45
 528 780 528 780 520.5 780 c 128,-1,46
 513 780 513 780 505 779 c 1,47,48
 525 818 525 818 540 858 c 128,-1,49
 555 898 555 898 576 936 c 1,50,51
 617 956 617 956 650 968 c 128,-1,52
 683 980 683 980 711.5 986 c 128,-1,53
 740 992 740 992 767 994 c 128,-1,54
 794 996 794 996 824 996 c 0,55,56
 869 996 869 996 905 992 c 128,-1,57
 941 988 941 988 970 979 c 128,-1,58
 999 970 999 970 1022.5 955 c 128,-1,59
 1046 940 1046 940 1068 918 c 1,60,61
 1068 885 1068 885 1054 842 c 128,-1,62
 1040 799 1040 799 1013 755.5 c 128,-1,63
 986 712 986 712 945.5 673.5 c 128,-1,64
 905 635 905 635 853 612 c 1,65,66
 898 443 898 443 970.5 365.5 c 128,-1,67
 1043 288 1043 288 1143 288 c 2,68,-1
 1256 288 l 1,69,-1
 1256 96 l 1,0,-1
EndSplineSet
Validated: 1
EndChar

StartChar: Ii
Encoding: 65567 -1 119
Width: 1151
GlyphClass: 2
Flags: W
LayerCount: 2
Fore
SplineSet
371 322 m 1,0,1
 328 332 328 332 292.5 360.5 c 128,-1,2
 257 389 257 389 231.5 428 c 128,-1,3
 206 467 206 467 192 514 c 128,-1,4
 178 561 178 561 178 608 c 0,5,6
 178 631 178 631 180 654 c 128,-1,7
 182 677 182 677 189 700 c 1,8,9
 233 772 233 772 280.5 824.5 c 128,-1,10
 328 877 328 877 376 910.5 c 128,-1,11
 424 944 424 944 472 960 c 128,-1,12
 520 976 520 976 565 976 c 0,13,14
 607 976 607 976 650.5 964.5 c 128,-1,15
 694 953 694 953 736 928 c 128,-1,16
 778 903 778 903 816 864.5 c 128,-1,17
 854 826 854 826 885 772 c 1,18,19
 834 792 834 792 776 803.5 c 128,-1,20
 718 815 718 815 666 815 c 0,21,22
 558 815 558 815 473.5 796.5 c 128,-1,23
 389 778 389 778 314 743 c 1,24,25
 312 729 312 729 312.5 717 c 128,-1,26
 313 705 313 705 311 692 c 0,27,28
 312 647 312 647 332 598.5 c 128,-1,29
 352 550 352 550 388 506.5 c 128,-1,30
 424 463 424 463 475 429.5 c 128,-1,31
 526 396 526 396 589 380 c 1,32,33
 604 383 604 383 638 393 c 128,-1,34
 672 403 672 403 715.5 416 c 128,-1,35
 759 429 759 429 807.5 443.5 c 128,-1,36
 856 458 856 458 900 472 c 128,-1,37
 944 486 944 486 979 497.5 c 128,-1,38
 1014 509 1014 509 1031 515 c 1,39,40
 1005 462 1005 462 988.5 409 c 128,-1,41
 972 356 972 356 947 301 c 1,42,43
 836 275 836 275 726 240 c 128,-1,44
 616 205 616 205 501 173 c 128,-1,45
 386 141 386 141 262.5 118.5 c 128,-1,46
 139 96 139 96 0 96 c 0,47,48
 -11 96 -11 96 -23.5 98.5 c 128,-1,49
 -36 101 -36 101 -46.5 106 c 128,-1,50
 -57 111 -57 111 -63.5 117 c 128,-1,51
 -70 123 -70 123 -70 131 c 2,52,-1
 -70 288 l 1,53,-1
 0 288 l 2,54,55
 56 288 56 288 114 290.5 c 128,-1,56
 172 293 172 293 223 297 c 128,-1,57
 274 301 274 301 313 306 c 128,-1,58
 352 311 352 311 371 317 c 1,59,-1
 371 322 l 1,0,1
EndSplineSet
Validated: 1
EndChar

StartChar: Im
Encoding: 65568 -1 120
Width: 896
GlyphClass: 2
Flags: W
LayerCount: 2
Fore
SplineSet
896 96 m 1,0,-1
 852 96 l 2,1,2
 785 96 785 96 730.5 111 c 128,-1,3
 676 126 676 126 630.5 154 c 128,-1,4
 585 182 585 182 545 220.5 c 128,-1,5
 505 259 505 259 468 306 c 1,6,7
 432 270 432 270 391.5 233 c 128,-1,8
 351 196 351 196 306 165.5 c 128,-1,9
 261 135 261 135 212 115.5 c 128,-1,10
 163 96 163 96 111 96 c 2,11,-1
 0 96 l 2,12,13
 -11 96 -11 96 -23.5 98.5 c 128,-1,14
 -36 101 -36 101 -46.5 106 c 128,-1,15
 -57 111 -57 111 -63.5 117 c 128,-1,16
 -70 123 -70 123 -70 131 c 2,17,-1
 -70 288 l 1,18,-1
 102 288 l 2,19,20
 134 288 134 288 172 297 c 128,-1,21
 210 306 210 306 249 322 c 128,-1,22
 288 338 288 338 324 360.5 c 128,-1,23
 360 383 360 383 388 410 c 1,24,25
 358 454 358 454 334.5 483 c 128,-1,26
 311 512 311 512 288 529.5 c 128,-1,27
 265 547 265 547 238 554.5 c 128,-1,28
 211 562 211 562 175 562 c 0,29,30
 167 562 167 562 159.5 562 c 128,-1,31
 152 562 152 562 144 561 c 1,32,33
 164 600 164 600 179 640 c 128,-1,34
 194 680 194 680 215 718 c 1,35,36
 298 759 298 759 366.5 772.5 c 128,-1,37
 435 786 435 786 495 786 c 0,38,39
 540 786 540 786 576 782 c 128,-1,40
 612 778 612 778 641 769 c 128,-1,41
 670 760 670 760 693.5 745 c 128,-1,42
 717 730 717 730 739 708 c 1,43,44
 739 675 739 675 725.5 635.5 c 128,-1,45
 712 596 712 596 689.5 555.5 c 128,-1,46
 667 515 667 515 637 476.5 c 128,-1,47
 607 438 607 438 575 407 c 1,48,49
 593 385 593 385 616.5 363.5 c 128,-1,50
 640 342 640 342 672.5 325.5 c 128,-1,51
 705 309 705 309 748.5 298.5 c 128,-1,52
 792 288 792 288 850 288 c 2,53,-1
 896 288 l 1,54,-1
 896 96 l 1,0,-1
EndSplineSet
Validated: 1
EndChar

StartChar: Fs
Encoding: 65569 -1 121
Width: 2110
GlyphClass: 2
Flags: W
LayerCount: 2
Fore
SplineSet
372 765 m 1,0,1
 354 734 354 734 339.5 702 c 128,-1,2
 325 670 325 670 315 639.5 c 128,-1,3
 305 609 305 609 300 582 c 128,-1,4
 295 555 295 555 295 535 c 0,5,6
 295 479 295 479 326 429.5 c 128,-1,7
 357 380 357 380 417 342.5 c 128,-1,8
 477 305 477 305 565.5 283.5 c 128,-1,9
 654 262 654 262 769 262 c 0,10,11
 888 262 888 262 1004.5 267 c 128,-1,12
 1121 272 1121 272 1228.5 280.5 c 128,-1,13
 1336 289 1336 289 1432.5 300 c 128,-1,14
 1529 311 1529 311 1607.5 323.5 c 128,-1,15
 1686 336 1686 336 1744 348.5 c 128,-1,16
 1802 361 1802 361 1834 372 c 1,17,18
 1855 414 1855 414 1865 464 c 128,-1,19
 1875 514 1875 514 1876 553 c 1,20,21
 1850 535 1850 535 1821.5 523.5 c 128,-1,22
 1793 512 1793 512 1764 505.5 c 128,-1,23
 1735 499 1735 499 1706.5 496.5 c 128,-1,24
 1678 494 1678 494 1654 494 c 0,25,26
 1624 494 1624 494 1590.5 497 c 128,-1,27
 1557 500 1557 500 1525 505 c 128,-1,28
 1493 510 1493 510 1464.5 517 c 128,-1,29
 1436 524 1436 524 1416 532 c 1,30,31
 1402 578 1402 578 1396 624.5 c 128,-1,32
 1390 671 1390 671 1390 719 c 0,33,34
 1390 777 1390 777 1404.5 835.5 c 128,-1,35
 1419 894 1419 894 1446.5 948.5 c 128,-1,36
 1474 1003 1474 1003 1515.5 1051.5 c 128,-1,37
 1557 1100 1557 1100 1611 1139 c 1,38,39
 1702 1130 1702 1130 1770 1089 c 128,-1,40
 1838 1048 1838 1048 1882 984.5 c 128,-1,41
 1926 921 1926 921 1948 840 c 128,-1,42
 1970 759 1970 759 1970 669 c 0,43,44
 1970 537 1970 537 1953 427 c 128,-1,45
 1936 317 1936 317 1898 212 c 1,46,47
 1808 180 1808 180 1677 152.5 c 128,-1,48
 1546 125 1546 125 1390 104.5 c 128,-1,49
 1234 84 1234 84 1059.5 72 c 128,-1,50
 885 60 885 60 707 60 c 0,51,52
 563 60 563 60 457 90 c 128,-1,53
 351 120 351 120 281.5 170.5 c 128,-1,54
 212 221 212 221 178 288 c 128,-1,55
 144 355 144 355 144 429 c 0,56,57
 144 516 144 516 182 615.5 c 128,-1,58
 220 715 220 715 279 814 c 1,59,-1
 372 765 l 1,0,1
1859 725 m 1,60,61
 1856 765 1856 765 1836.5 805 c 128,-1,62
 1817 845 1817 845 1783.5 876 c 128,-1,63
 1750 907 1750 907 1702.5 926.5 c 128,-1,64
 1655 946 1655 946 1597 946 c 1,65,66
 1553 906 1553 906 1529 864 c 128,-1,67
 1505 822 1505 822 1505 768 c 0,68,69
 1505 754 1505 754 1506 739 c 128,-1,70
 1507 724 1507 724 1509 707 c 1,71,72
 1547 692 1547 692 1580.5 685.5 c 128,-1,73
 1614 679 1614 679 1648 679 c 0,74,75
 1724 679 1724 679 1773.5 687 c 128,-1,76
 1823 695 1823 695 1859 725 c 1,60,61
EndSplineSet
Validated: 1
EndChar

StartChar: Ff
Encoding: 65570 -1 122
Width: 2110
GlyphClass: 2
Flags: W
LayerCount: 2
Fore
SplineSet
1676 368 m 1,0,1
 1715 381 1715 381 1744 403.5 c 128,-1,2
 1773 426 1773 426 1792 453.5 c 128,-1,3
 1811 481 1811 481 1820.5 511 c 128,-1,4
 1830 541 1830 541 1830 570 c 0,5,6
 1830 613 1830 613 1801.5 662.5 c 128,-1,7
 1773 712 1773 712 1711 748 c 1,8,9
 1670 739 1670 739 1636.5 719 c 128,-1,10
 1603 699 1603 699 1578 671 c 128,-1,11
 1553 643 1553 643 1536 609 c 128,-1,12
 1519 575 1519 575 1510 540 c 1,13,14
 1517 516 1517 516 1537 488.5 c 128,-1,15
 1557 461 1557 461 1581.5 437 c 128,-1,16
 1606 413 1606 413 1631.5 394 c 128,-1,17
 1657 375 1657 375 1676 368 c 1,0,1
2110 96 m 1,18,-1
 2039 96 l 2,19,20
 1995 96 1995 96 1946.5 104.5 c 128,-1,21
 1898 113 1898 113 1849.5 128 c 128,-1,22
 1801 143 1801 143 1756 165 c 128,-1,23
 1711 187 1711 187 1674 214 c 1,24,25
 1637 181 1637 181 1543.5 153 c 128,-1,26
 1450 125 1450 125 1319.5 104.5 c 128,-1,27
 1189 84 1189 84 1031 72 c 128,-1,28
 873 60 873 60 707 60 c 0,29,30
 563 60 563 60 457 90 c 128,-1,31
 351 120 351 120 281.5 170.5 c 128,-1,32
 212 221 212 221 178 288 c 128,-1,33
 144 355 144 355 144 429 c 0,34,35
 144 516 144 516 182 615.5 c 128,-1,36
 220 715 220 715 279 814 c 1,37,-1
 372 765 l 1,38,39
 354 734 354 734 339.5 702 c 128,-1,40
 325 670 325 670 315 639.5 c 128,-1,41
 305 609 305 609 300 582 c 128,-1,42
 295 555 295 555 295 535 c 0,43,44
 295 479 295 479 326 429.5 c 128,-1,45
 357 380 357 380 417 342.5 c 128,-1,46
 477 305 477 305 565.5 283.5 c 128,-1,47
 654 262 654 262 769 262 c 0,48,49
 828 262 828 262 901 264.5 c 128,-1,50
 974 267 974 267 1050.5 271.5 c 128,-1,51
 1127 276 1127 276 1202 282 c 128,-1,52
 1277 288 1277 288 1341 294 c 128,-1,53
 1405 300 1405 300 1452.5 305.5 c 128,-1,54
 1500 311 1500 311 1521 316 c 1,55,56
 1467 355 1467 355 1437 418.5 c 128,-1,57
 1407 482 1407 482 1407 552 c 0,58,59
 1407 618 1407 618 1429.5 678.5 c 128,-1,60
 1452 739 1452 739 1495 791.5 c 128,-1,61
 1538 844 1538 844 1600.5 886.5 c 128,-1,62
 1663 929 1663 929 1743 958 c 1,63,64
 1851 884 1851 884 1900 792 c 128,-1,65
 1949 700 1949 700 1949 606 c 0,66,67
 1949 572 1949 572 1939 535 c 128,-1,68
 1929 498 1929 498 1910.5 461 c 128,-1,69
 1892 424 1892 424 1865.5 389.5 c 128,-1,70
 1839 355 1839 355 1806 327 c 1,71,72
 1829 317 1829 317 1858.5 310 c 128,-1,73
 1888 303 1888 303 1919 298 c 128,-1,74
 1950 293 1950 293 1979.5 290.5 c 128,-1,75
 2009 288 2009 288 2033 288 c 2,76,-1
 2110 288 l 1,77,-1
 2110 96 l 1,18,-1
EndSplineSet
Validated: 1
EndChar

StartChar: Fi
Encoding: 65571 -1 123
Width: 896
GlyphClass: 2
Flags: W
LayerCount: 2
Fore
SplineSet
0 96 m 2,0,1
 -11 96 -11 96 -23.5 98.5 c 128,-1,2
 -36 101 -36 101 -46.5 106 c 128,-1,3
 -57 111 -57 111 -63.5 117 c 128,-1,4
 -70 123 -70 123 -70 131 c 2,5,-1
 -70 288 l 1,6,-1
 102 288 l 2,7,8
 136 288 136 288 184 290.5 c 128,-1,9
 232 293 232 293 284.5 297.5 c 128,-1,10
 337 302 337 302 391 309 c 128,-1,11
 445 316 445 316 491.5 325.5 c 128,-1,12
 538 335 538 335 572 346.5 c 128,-1,13
 606 358 606 358 620 372 c 1,14,15
 641 414 641 414 651 464 c 128,-1,16
 661 514 661 514 662 553 c 1,17,18
 636 535 636 535 607.5 523.5 c 128,-1,19
 579 512 579 512 550 505.5 c 128,-1,20
 521 499 521 499 492.5 496.5 c 128,-1,21
 464 494 464 494 440 494 c 0,22,23
 410 494 410 494 376.5 497 c 128,-1,24
 343 500 343 500 311 505 c 128,-1,25
 279 510 279 510 250.5 517 c 128,-1,26
 222 524 222 524 202 532 c 1,27,28
 188 578 188 578 182 624.5 c 128,-1,29
 176 671 176 671 176 719 c 0,30,31
 176 777 176 777 190.5 835.5 c 128,-1,32
 205 894 205 894 232.5 948.5 c 128,-1,33
 260 1003 260 1003 301.5 1051.5 c 128,-1,34
 343 1100 343 1100 397 1139 c 1,35,36
 488 1130 488 1130 556 1089 c 128,-1,37
 624 1048 624 1048 668 984.5 c 128,-1,38
 712 921 712 921 734 840 c 128,-1,39
 756 759 756 759 756 669 c 0,40,41
 756 603 756 603 753 545 c 128,-1,42
 750 487 750 487 742.5 434 c 128,-1,43
 735 381 735 381 722 329.5 c 128,-1,44
 709 278 709 278 690 226 c 1,45,46
 660 204 660 204 615.5 186 c 128,-1,47
 571 168 571 168 518.5 153.5 c 128,-1,48
 466 139 466 139 408.5 128.5 c 128,-1,49
 351 118 351 118 295 110.5 c 128,-1,50
 239 103 239 103 187.5 99.5 c 128,-1,51
 136 96 136 96 96 96 c 2,52,-1
 0 96 l 2,0,1
645 725 m 1,53,54
 642 765 642 765 622.5 805 c 128,-1,55
 603 845 603 845 569.5 876 c 128,-1,56
 536 907 536 907 488.5 926.5 c 128,-1,57
 441 946 441 946 383 946 c 1,58,59
 339 906 339 906 315 864 c 128,-1,60
 291 822 291 822 291 768 c 0,61,62
 291 754 291 754 292 739 c 128,-1,63
 293 724 293 724 295 707 c 1,64,65
 333 692 333 692 366.5 685.5 c 128,-1,66
 400 679 400 679 434 679 c 0,67,68
 510 679 510 679 559.5 687 c 128,-1,69
 609 695 609 695 645 725 c 1,53,54
EndSplineSet
Validated: 1
EndChar

StartChar: Fm
Encoding: 65572 -1 124
Width: 896
GlyphClass: 2
Flags: W
LayerCount: 2
Fore
SplineSet
896 96 m 1,0,-1
 814 96 l 2,1,2
 771 96 771 96 722 104.5 c 128,-1,3
 673 113 673 113 624.5 128 c 128,-1,4
 576 143 576 143 530 165 c 128,-1,5
 484 187 484 187 448 214 c 1,6,7
 407 180 407 180 363.5 157.5 c 128,-1,8
 320 135 320 135 272 121.5 c 128,-1,9
 224 108 224 108 171 102 c 128,-1,10
 118 96 118 96 59 96 c 2,11,-1
 0 96 l 2,12,13
 -11 96 -11 96 -23.5 98.5 c 128,-1,14
 -36 101 -36 101 -46.5 106 c 128,-1,15
 -57 111 -57 111 -63.5 117 c 128,-1,16
 -70 123 -70 123 -70 131 c 2,17,-1
 -70 288 l 1,18,-1
 61 288 l 2,19,20
 136 288 136 288 197 295.5 c 128,-1,21
 258 303 258 303 294 317 c 1,22,23
 243 355 243 355 211.5 415.5 c 128,-1,24
 180 476 180 476 180 545 c 0,25,26
 180 687 180 687 268 791.5 c 128,-1,27
 356 896 356 896 515 957 c 1,28,29
 617 883 617 883 669.5 799.5 c 128,-1,30
 722 716 722 716 722 616 c 0,31,32
 722 580 722 580 713 542 c 128,-1,33
 704 504 704 504 686.5 466.5 c 128,-1,34
 669 429 669 429 642.5 394.5 c 128,-1,35
 616 360 616 360 580 330 c 1,36,37
 603 320 603 320 633 312.5 c 128,-1,38
 663 305 663 305 695 299.5 c 128,-1,39
 727 294 727 294 757.5 291 c 128,-1,40
 788 288 788 288 811 288 c 2,41,-1
 896 288 l 1,42,-1
 896 96 l 1,0,-1
447 365 m 1,43,44
 486 377 486 377 516 400 c 128,-1,45
 546 423 546 423 565.5 451 c 128,-1,46
 585 479 585 479 595 510 c 128,-1,47
 605 541 605 541 605 570 c 0,48,49
 605 612 605 612 576 661.5 c 128,-1,50
 547 711 547 711 484 747 c 1,51,52
 443 738 443 738 410 717.5 c 128,-1,53
 377 697 377 697 351.5 669 c 128,-1,54
 326 641 326 641 309 607.5 c 128,-1,55
 292 574 292 574 283 540 c 1,56,57
 290 515 290 515 309.5 487.5 c 128,-1,58
 329 460 329 460 353 435 c 128,-1,59
 377 410 377 410 402.5 391 c 128,-1,60
 428 372 428 372 447 365 c 1,43,44
EndSplineSet
Validated: 1
EndChar

StartChar: Gs
Encoding: 65573 -1 125
Width: 1574
GlyphClass: 2
Flags: W
LayerCount: 2
Fore
SplineSet
376 437 m 1,0,1
 350 393 350 393 329 344.5 c 128,-1,2
 308 296 308 296 293 248.5 c 128,-1,3
 278 201 278 201 270 156.5 c 128,-1,4
 262 112 262 112 262 75 c 0,5,6
 262 -52 262 -52 353.5 -116.5 c 128,-1,7
 445 -181 445 -181 610 -181 c 0,8,9
 705 -181 705 -181 800 -173 c 128,-1,10
 895 -165 895 -165 986 -143 c 128,-1,11
 1077 -121 1077 -121 1161 -83.5 c 128,-1,12
 1245 -46 1245 -46 1319 14 c 1,13,14
 1321 25 1321 25 1322 37.5 c 128,-1,15
 1323 50 1323 50 1323 64 c 0,16,17
 1323 93 1323 93 1323 127.5 c 128,-1,18
 1323 162 1323 162 1321.5 195 c 128,-1,19
 1320 228 1320 228 1317 256.5 c 128,-1,20
 1314 285 1314 285 1309 303 c 1,21,22
 1283 285 1283 285 1254.5 273.5 c 128,-1,23
 1226 262 1226 262 1196.5 255.5 c 128,-1,24
 1167 249 1167 249 1138.5 246.5 c 128,-1,25
 1110 244 1110 244 1086 244 c 0,26,27
 1056 244 1056 244 1022.5 247 c 128,-1,28
 989 250 989 250 957 255 c 128,-1,29
 925 260 925 260 896.5 267 c 128,-1,30
 868 274 868 274 848 282 c 1,31,32
 834 328 834 328 828 374.5 c 128,-1,33
 822 421 822 421 822 469 c 0,34,35
 822 527 822 527 836.5 585.5 c 128,-1,36
 851 644 851 644 878.5 698.5 c 128,-1,37
 906 753 906 753 947.5 801.5 c 128,-1,38
 989 850 989 850 1043 889 c 1,39,40
 1127 869 1127 869 1188.5 831 c 128,-1,41
 1250 793 1250 793 1293.5 742 c 128,-1,42
 1337 691 1337 691 1364.5 631 c 128,-1,43
 1392 571 1392 571 1407.5 507 c 128,-1,44
 1423 443 1423 443 1428.5 378.5 c 128,-1,45
 1434 314 1434 314 1434 255 c 0,46,47
 1434 211 1434 211 1430.5 154 c 128,-1,48
 1427 97 1427 97 1417.5 38.5 c 128,-1,49
 1408 -20 1408 -20 1391.5 -73.5 c 128,-1,50
 1375 -127 1375 -127 1350 -164 c 0,51,52
 1328 -191 1328 -191 1283 -217.5 c 128,-1,53
 1238 -244 1238 -244 1176 -268.5 c 128,-1,54
 1114 -293 1114 -293 1039.5 -314 c 128,-1,55
 965 -335 965 -335 884.5 -350.5 c 128,-1,56
 804 -366 804 -366 721.5 -375 c 128,-1,57
 639 -384 639 -384 561 -384 c 0,58,59
 461 -384 461 -384 378.5 -362.5 c 128,-1,60
 296 -341 296 -341 236.5 -297.5 c 128,-1,61
 177 -254 177 -254 144.5 -188.5 c 128,-1,62
 112 -123 112 -123 112 -35 c 0,63,64
 112 6 112 6 122 64 c 128,-1,65
 132 122 132 122 152.5 190 c 128,-1,66
 173 258 173 258 205.5 333.5 c 128,-1,67
 238 409 238 409 283 486 c 1,68,-1
 376 437 l 1,0,1
1286 475 m 1,69,70
 1273 525 1273 525 1253.5 565.5 c 128,-1,71
 1234 606 1234 606 1203.5 635 c 128,-1,72
 1173 664 1173 664 1130 680 c 128,-1,73
 1087 696 1087 696 1029 696 c 1,74,75
 985 656 985 656 961 614 c 128,-1,76
 937 572 937 572 937 518 c 0,77,78
 937 504 937 504 938 489 c 128,-1,79
 939 474 939 474 941 457 c 1,80,81
 979 442 979 442 1012.5 435.5 c 128,-1,82
 1046 429 1046 429 1080 429 c 0,83,84
 1118 429 1118 429 1148.5 430.5 c 128,-1,85
 1179 432 1179 432 1203.5 437 c 128,-1,86
 1228 442 1228 442 1248 451 c 128,-1,87
 1268 460 1268 460 1286 475 c 1,69,70
EndSplineSet
Validated: 1
EndChar

StartChar: Gf
Encoding: 65574 -1 126
Width: 1652
GlyphClass: 2
Flags: W
LayerCount: 2
Fore
SplineSet
1652 96 m 1,0,1
 1634 96 1634 96 1603.5 96 c 128,-1,2
 1573 96 1573 96 1541 96.5 c 128,-1,3
 1509 97 1509 97 1481 97.5 c 128,-1,4
 1453 98 1453 98 1438 99 c 1,5,6
 1436 37 1436 37 1416.5 -28.5 c 128,-1,7
 1397 -94 1397 -94 1349 -164 c 0,8,9
 1327 -191 1327 -191 1282 -217.5 c 128,-1,10
 1237 -244 1237 -244 1175 -268.5 c 128,-1,11
 1113 -293 1113 -293 1038.5 -314 c 128,-1,12
 964 -335 964 -335 883.5 -350.5 c 128,-1,13
 803 -366 803 -366 720.5 -375 c 128,-1,14
 638 -384 638 -384 560 -384 c 0,15,16
 460 -384 460 -384 377.5 -362.5 c 128,-1,17
 295 -341 295 -341 235.5 -297.5 c 128,-1,18
 176 -254 176 -254 143.5 -188.5 c 128,-1,19
 111 -123 111 -123 111 -35 c 0,20,21
 111 6 111 6 121 64 c 128,-1,22
 131 122 131 122 151.5 190 c 128,-1,23
 172 258 172 258 204.5 333.5 c 128,-1,24
 237 409 237 409 282 486 c 1,25,-1
 375 437 l 1,26,27
 349 393 349 393 328 344.5 c 128,-1,28
 307 296 307 296 292 248.5 c 128,-1,29
 277 201 277 201 269 156.5 c 128,-1,30
 261 112 261 112 261 75 c 0,31,32
 261 -52 261 -52 352.5 -116.5 c 128,-1,33
 444 -181 444 -181 609 -181 c 0,34,35
 704 -181 704 -181 801 -172.5 c 128,-1,36
 898 -164 898 -164 990.5 -142 c 128,-1,37
 1083 -120 1083 -120 1168.5 -82 c 128,-1,38
 1254 -44 1254 -44 1328 16 c 1,39,40
 1330 27 1330 27 1331 39.5 c 128,-1,41
 1332 52 1332 52 1332 66 c 2,42,-1
 1332 109 l 1,43,44
 1266 118 1266 118 1193 133 c 128,-1,45
 1120 148 1120 148 1055.5 167 c 128,-1,46
 991 186 991 186 941 207.5 c 128,-1,47
 891 229 891 229 872 252 c 1,48,49
 868 276 868 276 866.5 302 c 128,-1,50
 865 328 865 328 865 353 c 0,51,52
 865 422 865 422 880 491 c 128,-1,53
 895 560 895 560 927 622.5 c 128,-1,54
 959 685 959 685 1009 738.5 c 128,-1,55
 1059 792 1059 792 1129 829 c 1,56,57
 1226 803 1226 803 1285.5 750 c 128,-1,58
 1345 697 1345 697 1377.5 625.5 c 128,-1,59
 1410 554 1410 554 1422 468 c 128,-1,60
 1434 382 1434 382 1437 291 c 1,61,62
 1451 290 1451 290 1479.5 289.5 c 128,-1,63
 1508 289 1508 289 1540 288.5 c 128,-1,64
 1572 288 1572 288 1602.5 288 c 128,-1,65
 1633 288 1633 288 1652 288 c 1,66,-1
 1652 96 l 1,0,1
989 416 m 1,67,68
 1004 396 1004 396 1042 378 c 128,-1,69
 1080 360 1080 360 1128.5 345 c 128,-1,70
 1177 330 1177 330 1229.5 318.5 c 128,-1,71
 1282 307 1282 307 1327 301 c 1,72,73
 1322 364 1322 364 1309 424 c 128,-1,74
 1296 484 1296 484 1269 531.5 c 128,-1,75
 1242 579 1242 579 1198.5 608.5 c 128,-1,76
 1155 638 1155 638 1089 640 c 1,77,78
 1062 618 1062 618 1043 595.5 c 128,-1,79
 1024 573 1024 573 1012 546 c 128,-1,80
 1000 519 1000 519 994.5 487.5 c 128,-1,81
 989 456 989 456 989 416 c 1,67,68
EndSplineSet
Validated: 1
EndChar

StartChar: Qs
Encoding: 65575 -1 127
Width: 1600
GlyphClass: 2
Flags: W
LayerCount: 2
Fore
SplineSet
1474 1335 m 1,0,-1
 1430 1303 l 1,1,-1
 1356 1350 l 1,2,3
 1358 1317 1358 1317 1362 1259 c 128,-1,4
 1366 1201 1366 1201 1369.5 1128 c 128,-1,5
 1373 1055 1373 1055 1377 971.5 c 128,-1,6
 1381 888 1381 888 1384 804.5 c 128,-1,7
 1387 721 1387 721 1389 641 c 128,-1,8
 1391 561 1391 561 1391 496 c 0,9,10
 1391 402 1391 402 1370 329 c 128,-1,11
 1349 256 1349 256 1317 205.5 c 128,-1,12
 1285 155 1285 155 1245.5 126.5 c 128,-1,13
 1206 98 1206 98 1170 93 c 0,14,15
 1139 89 1139 89 1090 84.5 c 128,-1,16
 1041 80 1041 80 980.5 76.5 c 128,-1,17
 920 73 920 73 851 71 c 128,-1,18
 782 69 782 69 711 69 c 0,19,20
 652 69 652 69 587 71 c 128,-1,21
 522 73 522 73 460 76.5 c 128,-1,22
 398 80 398 80 344 86 c 128,-1,23
 290 92 290 92 253 100 c 0,24,25
 226 106 226 106 205 118 c 128,-1,26
 184 130 184 130 169 146 c 128,-1,27
 154 162 154 162 144.5 179.5 c 128,-1,28
 135 197 135 197 131 213 c 1,29,-1
 155 347 l 1,30,31
 181 327 181 327 237 312 c 128,-1,32
 293 297 293 297 365 287 c 128,-1,33
 437 277 437 277 519 271.5 c 128,-1,34
 601 266 601 266 680 266 c 0,35,36
 779 266 779 266 876.5 271.5 c 128,-1,37
 974 277 974 277 1053.5 286 c 128,-1,38
 1133 295 1133 295 1187 307 c 128,-1,39
 1241 319 1241 319 1253 333 c 0,40,41
 1264 346 1264 346 1268.5 387.5 c 128,-1,42
 1273 429 1273 429 1273 492 c 0,43,44
 1273 688 1273 688 1264 857.5 c 128,-1,45
 1255 1027 1255 1027 1240.5 1159.5 c 128,-1,46
 1226 1292 1226 1292 1208.5 1383.5 c 128,-1,47
 1191 1475 1191 1475 1174 1516 c 1,48,-1
 1170 1516 l 1,49,-1
 1304 1677 l 1,50,-1
 1474 1335 l 1,0,-1
831 1005 m 1,51,52
 821 1005 821 1005 804 994.5 c 128,-1,53
 787 984 787 984 770.5 969 c 128,-1,54
 754 954 754 954 742 938 c 128,-1,55
 730 922 730 922 730 911 c 0,56,57
 730 899 730 899 741 891 c 128,-1,58
 752 883 752 883 769 876 c 128,-1,59
 786 869 786 869 805 862.5 c 128,-1,60
 824 856 824 856 841 847.5 c 128,-1,61
 858 839 858 839 869 828 c 128,-1,62
 880 817 880 817 880 801 c 0,63,64
 880 795 880 795 879 792 c 0,65,66
 868 742 868 742 851 709 c 128,-1,67
 834 676 834 676 813.5 656.5 c 128,-1,68
 793 637 793 637 770 628.5 c 128,-1,69
 747 620 747 620 723 620 c 0,70,71
 693 620 693 620 664.5 630.5 c 128,-1,72
 636 641 636 641 614 655 c 128,-1,73
 592 669 592 669 578.5 683 c 128,-1,74
 565 697 565 697 565 705 c 0,75,76
 565 708 565 708 568 710 c 0,77,78
 611 707 611 707 648 707 c 0,79,80
 713 707 713 707 750.5 717 c 128,-1,81
 788 727 788 727 788 747 c 0,82,83
 788 753 788 753 777 759 c 128,-1,84
 766 765 766 765 749.5 771.5 c 128,-1,85
 733 778 733 778 713.5 786.5 c 128,-1,86
 694 795 694 795 677.5 805.5 c 128,-1,87
 661 816 661 816 650 830.5 c 128,-1,88
 639 845 639 845 639 864 c 0,89,90
 639 886 639 886 653.5 919 c 128,-1,91
 668 952 668 952 692.5 985 c 128,-1,92
 717 1018 717 1018 750 1044.5 c 128,-1,93
 783 1071 783 1071 821 1081 c 1,94,-1
 831 1005 l 1,51,52
EndSplineSet
Validated: 1
EndChar

StartChar: Qf
Encoding: 65576 -1 128
Width: 1686
GlyphClass: 2
Flags: W
LayerCount: 2
Fore
SplineSet
831 1005 m 1,0,1
 821 1005 821 1005 804 994.5 c 128,-1,2
 787 984 787 984 770.5 969 c 128,-1,3
 754 954 754 954 742 938 c 128,-1,4
 730 922 730 922 730 911 c 0,5,6
 730 899 730 899 741 891 c 128,-1,7
 752 883 752 883 769 876 c 128,-1,8
 786 869 786 869 805 862.5 c 128,-1,9
 824 856 824 856 841 847.5 c 128,-1,10
 858 839 858 839 869 828 c 128,-1,11
 880 817 880 817 880 801 c 0,12,13
 880 795 880 795 879 792 c 0,14,15
 868 742 868 742 851 709 c 128,-1,16
 834 676 834 676 813.5 656.5 c 128,-1,17
 793 637 793 637 770 628.5 c 128,-1,18
 747 620 747 620 723 620 c 0,19,20
 693 620 693 620 664.5 630.5 c 128,-1,21
 636 641 636 641 614 655 c 128,-1,22
 592 669 592 669 578.5 683 c 128,-1,23
 565 697 565 697 565 705 c 0,24,25
 565 708 565 708 568 710 c 0,26,27
 611 707 611 707 648 707 c 0,28,29
 713 707 713 707 750.5 717 c 128,-1,30
 788 727 788 727 788 747 c 0,31,32
 788 753 788 753 777 759 c 128,-1,33
 766 765 766 765 749.5 771.5 c 128,-1,34
 733 778 733 778 713.5 786.5 c 128,-1,35
 694 795 694 795 677.5 805.5 c 128,-1,36
 661 816 661 816 650 830.5 c 128,-1,37
 639 845 639 845 639 864 c 0,38,39
 639 886 639 886 653.5 919 c 128,-1,40
 668 952 668 952 692.5 985 c 128,-1,41
 717 1018 717 1018 750 1044.5 c 128,-1,42
 783 1071 783 1071 821 1081 c 1,43,-1
 831 1005 l 1,0,1
1686 96 m 1,44,-1
 1610 96 l 2,45,46
 1559 96 1559 96 1513 113.5 c 128,-1,47
 1467 131 1467 131 1432.5 157 c 128,-1,48
 1398 183 1398 183 1377 214.5 c 128,-1,49
 1356 246 1356 246 1353 273 c 1,50,-1
 1346 273 l 1,51,52
 1329 232 1329 232 1308 200 c 128,-1,53
 1287 168 1287 168 1263 145.5 c 128,-1,54
 1239 123 1239 123 1214 110 c 128,-1,55
 1189 97 1189 97 1165 94 c 0,56,57
 1134 89 1134 89 1086 85 c 128,-1,58
 1038 81 1038 81 978 77 c 128,-1,59
 918 73 918 73 850 71 c 128,-1,60
 782 69 782 69 711 69 c 0,61,62
 652 69 652 69 587 71 c 128,-1,63
 522 73 522 73 460 76.5 c 128,-1,64
 398 80 398 80 344 86 c 128,-1,65
 290 92 290 92 253 100 c 0,66,67
 226 106 226 106 205 118 c 128,-1,68
 184 130 184 130 169 146 c 128,-1,69
 154 162 154 162 144.5 179.5 c 128,-1,70
 135 197 135 197 131 213 c 1,71,-1
 155 347 l 1,72,73
 181 327 181 327 237 312 c 128,-1,74
 293 297 293 297 365 287 c 128,-1,75
 437 277 437 277 519 271.5 c 128,-1,76
 601 266 601 266 680 266 c 0,77,78
 779 266 779 266 876.5 271.5 c 128,-1,79
 974 277 974 277 1053.5 286 c 128,-1,80
 1133 295 1133 295 1187 307 c 128,-1,81
 1241 319 1241 319 1253 333 c 0,82,83
 1264 346 1264 346 1268.5 387.5 c 128,-1,84
 1273 429 1273 429 1273 492 c 0,85,86
 1273 688 1273 688 1264 857.5 c 128,-1,87
 1255 1027 1255 1027 1240.5 1159.5 c 128,-1,88
 1226 1292 1226 1292 1208.5 1383.5 c 128,-1,89
 1191 1475 1191 1475 1174 1516 c 1,90,-1
 1170 1516 l 1,91,-1
 1304 1677 l 1,92,-1
 1474 1335 l 1,93,-1
 1430 1303 l 1,94,-1
 1356 1350 l 1,95,96
 1358 1318 1358 1318 1362 1261.5 c 128,-1,97
 1366 1205 1366 1205 1369.5 1134 c 128,-1,98
 1373 1063 1373 1063 1377 982 c 128,-1,99
 1381 901 1381 901 1384 818.5 c 128,-1,100
 1387 736 1387 736 1389 657.5 c 128,-1,101
 1391 579 1391 579 1392 513 c 0,102,103
 1393 444 1393 444 1409 400 c 128,-1,104
 1425 356 1425 356 1455 331.5 c 128,-1,105
 1485 307 1485 307 1528 297.5 c 128,-1,106
 1571 288 1571 288 1625 288 c 2,107,-1
 1686 288 l 1,108,-1
 1686 96 l 1,44,-1
EndSplineSet
Validated: 1
EndChar

StartChar: Ks
Encoding: 65577 -1 129
Width: 2208
GlyphClass: 2
Flags: W
LayerCount: 2
Fore
SplineSet
2084 1309 m 1,0,-1
 2043 1318 l 1,1,2
 2043 1330 2043 1330 2042.5 1343.5 c 128,-1,3
 2042 1357 2042 1357 2040 1368.5 c 128,-1,4
 2038 1380 2038 1380 2033.5 1387.5 c 128,-1,5
 2029 1395 2029 1395 2021 1395 c 0,6,7
 1979 1377 1979 1377 1923.5 1349.5 c 128,-1,8
 1868 1322 1868 1322 1807 1289.5 c 128,-1,9
 1746 1257 1746 1257 1683 1222 c 128,-1,10
 1620 1187 1620 1187 1563.5 1154 c 128,-1,11
 1507 1121 1507 1121 1461 1091.5 c 128,-1,12
 1415 1062 1415 1062 1388 1041 c 1,13,14
 1500 979 1500 979 1584 920.5 c 128,-1,15
 1668 862 1668 862 1725.5 806 c 128,-1,16
 1783 750 1783 750 1817 696 c 128,-1,17
 1851 642 1851 642 1863 590 c 1,18,19
 1860 561 1860 561 1856 525 c 128,-1,20
 1852 489 1852 489 1847 452.5 c 128,-1,21
 1842 416 1842 416 1836.5 381 c 128,-1,22
 1831 346 1831 346 1825 318 c 1,23,24
 1778 260 1778 260 1704.5 218.5 c 128,-1,25
 1631 177 1631 177 1542.5 148 c 128,-1,26
 1454 119 1454 119 1354.5 102 c 128,-1,27
 1255 85 1255 85 1155.5 75.5 c 128,-1,28
 1056 66 1056 66 961 63 c 128,-1,29
 866 60 866 60 787 60 c 0,30,31
 613 60 613 60 491 87.5 c 128,-1,32
 369 115 369 115 291.5 164.5 c 128,-1,33
 214 214 214 214 179 281.5 c 128,-1,34
 144 349 144 349 144 429 c 0,35,36
 144 516 144 516 182 615.5 c 128,-1,37
 220 715 220 715 279 814 c 1,38,-1
 372 765 l 1,39,40
 354 734 354 734 339.5 702 c 128,-1,41
 325 670 325 670 315 639.5 c 128,-1,42
 305 609 305 609 300 582 c 128,-1,43
 295 555 295 555 295 535 c 0,44,45
 295 473 295 473 327 422.5 c 128,-1,46
 359 372 359 372 426.5 336.5 c 128,-1,47
 494 301 494 301 599 281.5 c 128,-1,48
 704 262 704 262 849 262 c 0,49,50
 1031 262 1031 262 1183 275.5 c 128,-1,51
 1335 289 1335 289 1451 313.5 c 128,-1,52
 1567 338 1567 338 1643.5 372 c 128,-1,53
 1720 406 1720 406 1751 447 c 1,54,55
 1746 499 1746 499 1724.5 549 c 128,-1,56
 1703 599 1703 599 1652 653.5 c 128,-1,57
 1601 708 1601 708 1513.5 769 c 128,-1,58
 1426 830 1426 830 1290 904 c 0,59,60
 1290 907 1290 907 1292 928 c 128,-1,61
 1294 949 1294 949 1297 978 c 128,-1,62
 1300 1007 1300 1007 1303.5 1040.5 c 128,-1,63
 1307 1074 1307 1074 1310 1102.5 c 128,-1,64
 1313 1131 1313 1131 1315.5 1150.5 c 128,-1,65
 1318 1170 1318 1170 1318 1172 c 0,66,67
 1370 1209 1370 1209 1438.5 1253.5 c 128,-1,68
 1507 1298 1507 1298 1583.5 1344 c 128,-1,69
 1660 1390 1660 1390 1740.5 1435 c 128,-1,70
 1821 1480 1821 1480 1895.5 1518.5 c 128,-1,71
 1970 1557 1970 1557 2035.5 1587 c 128,-1,72
 2101 1617 2101 1617 2148 1633 c 1,73,-1
 2084 1309 l 1,0,-1
EndSplineSet
Validated: 1
EndChar

StartChar: Kf
Encoding: 65578 -1 130
Width: 2338
GlyphClass: 2
Flags: W
LayerCount: 2
Fore
SplineSet
2338 96 m 1,0,-1
 2288 96 l 2,1,2
 2219 96 2219 96 2167.5 123 c 128,-1,3
 2116 150 2116 150 2076 192 c 128,-1,4
 2036 234 2036 234 2005 286.5 c 128,-1,5
 1974 339 1974 339 1945.5 390.5 c 128,-1,6
 1917 442 1917 442 1888.5 486 c 128,-1,7
 1860 530 1860 530 1826 557 c 1,8,-1
 1821 553 l 1,9,10
 1827 526 1827 526 1829 500 c 128,-1,11
 1831 474 1831 474 1831 453 c 0,12,13
 1831 423 1831 423 1825.5 385 c 128,-1,14
 1820 347 1820 347 1813 318 c 1,15,16
 1766 260 1766 260 1693.5 218.5 c 128,-1,17
 1621 177 1621 177 1533.5 148 c 128,-1,18
 1446 119 1446 119 1348.5 102 c 128,-1,19
 1251 85 1251 85 1152.5 75.5 c 128,-1,20
 1054 66 1054 66 960 63 c 128,-1,21
 866 60 866 60 787 60 c 0,22,23
 613 60 613 60 491 87.5 c 128,-1,24
 369 115 369 115 291.5 164.5 c 128,-1,25
 214 214 214 214 179 281.5 c 128,-1,26
 144 349 144 349 144 429 c 0,27,28
 144 516 144 516 182 615.5 c 128,-1,29
 220 715 220 715 279 814 c 1,30,-1
 372 765 l 1,31,32
 354 734 354 734 339.5 702 c 128,-1,33
 325 670 325 670 315 639.5 c 128,-1,34
 305 609 305 609 300 582 c 128,-1,35
 295 555 295 555 295 535 c 0,36,37
 295 473 295 473 327 422.5 c 128,-1,38
 359 372 359 372 426.5 336.5 c 128,-1,39
 494 301 494 301 599 281.5 c 128,-1,40
 704 262 704 262 849 262 c 0,41,42
 1031 262 1031 262 1180.5 275.5 c 128,-1,43
 1330 289 1330 289 1442.5 313 c 128,-1,44
 1555 337 1555 337 1629 370.5 c 128,-1,45
 1703 404 1703 404 1734 445 c 1,46,47
 1729 498 1729 498 1709 549 c 128,-1,48
 1689 600 1689 600 1640 654.5 c 128,-1,49
 1591 709 1591 709 1505.5 769.5 c 128,-1,50
 1420 830 1420 830 1285 902 c 1,51,52
 1291 971 1291 971 1298.5 1039 c 128,-1,53
 1306 1107 1306 1107 1314 1170 c 1,54,-1
 1313 1171 l 1,55,56
 1365 1208 1365 1208 1433.5 1252.5 c 128,-1,57
 1502 1297 1502 1297 1578.5 1343 c 128,-1,58
 1655 1389 1655 1389 1735.5 1434 c 128,-1,59
 1816 1479 1816 1479 1890.5 1517.5 c 128,-1,60
 1965 1556 1965 1556 2030.5 1586 c 128,-1,61
 2096 1616 2096 1616 2143 1632 c 1,62,-1
 2079 1308 l 1,63,-1
 2038 1317 l 1,64,65
 2038 1329 2038 1329 2037.5 1342.5 c 128,-1,66
 2037 1356 2037 1356 2035 1367.5 c 128,-1,67
 2033 1379 2033 1379 2028.5 1386.5 c 128,-1,68
 2024 1394 2024 1394 2016 1394 c 0,69,70
 1974 1375 1974 1375 1918.5 1347.5 c 128,-1,71
 1863 1320 1863 1320 1801.5 1288 c 128,-1,72
 1740 1256 1740 1256 1677.5 1221 c 128,-1,73
 1615 1186 1615 1186 1558.5 1153 c 128,-1,74
 1502 1120 1502 1120 1456 1090.5 c 128,-1,75
 1410 1061 1410 1061 1383 1040 c 1,76,77
 1448 1002 1448 1002 1508.5 963 c 128,-1,78
 1569 924 1569 924 1629 881 c 128,-1,79
 1689 838 1689 838 1749.5 789.5 c 128,-1,80
 1810 741 1810 741 1874 686 c 0,81,82
 1932 636 1932 636 1972 586.5 c 128,-1,83
 2012 537 2012 537 2041.5 493 c 128,-1,84
 2071 449 2071 449 2094.5 411.5 c 128,-1,85
 2118 374 2118 374 2144.5 346.5 c 128,-1,86
 2171 319 2171 319 2204 303.5 c 128,-1,87
 2237 288 2237 288 2285 288 c 2,88,-1
 2338 288 l 1,89,-1
 2338 96 l 1,0,-1
EndSplineSet
Validated: 1
EndChar

StartChar: Ki
Encoding: 65579 -1 131
Width: 1020
GlyphClass: 2
Flags: W
LayerCount: 2
Fore
SplineSet
0 96 m 2,0,1
 -11 96 -11 96 -23.5 98.5 c 128,-1,2
 -36 101 -36 101 -46.5 106 c 128,-1,3
 -57 111 -57 111 -63.5 117 c 128,-1,4
 -70 123 -70 123 -70 131 c 2,5,-1
 -70 288 l 1,6,-1
 110 288 l 2,7,8
 196 288 196 288 264 298.5 c 128,-1,9
 332 309 332 309 385.5 329.5 c 128,-1,10
 439 350 439 350 478.5 379.5 c 128,-1,11
 518 409 518 409 548 447 c 1,12,13
 543 499 543 499 523 549 c 128,-1,14
 503 599 503 599 454 653.5 c 128,-1,15
 405 708 405 708 319 769 c 128,-1,16
 233 830 233 830 97 904 c 0,17,18
 97 907 97 907 99 928 c 128,-1,19
 101 949 101 949 104 978 c 128,-1,20
 107 1007 107 1007 110.5 1040.5 c 128,-1,21
 114 1074 114 1074 117 1102.5 c 128,-1,22
 120 1131 120 1131 122.5 1150.5 c 128,-1,23
 125 1170 125 1170 125 1172 c 0,24,25
 177 1209 177 1209 245.5 1253.5 c 128,-1,26
 314 1298 314 1298 390.5 1344 c 128,-1,27
 467 1390 467 1390 547.5 1435 c 128,-1,28
 628 1480 628 1480 702.5 1518.5 c 128,-1,29
 777 1557 777 1557 842.5 1587 c 128,-1,30
 908 1617 908 1617 955 1633 c 1,31,-1
 891 1309 l 1,32,-1
 850 1318 l 1,33,34
 850 1330 850 1330 849.5 1343.5 c 128,-1,35
 849 1357 849 1357 847 1368.5 c 128,-1,36
 845 1380 845 1380 840.5 1387.5 c 128,-1,37
 836 1395 836 1395 828 1395 c 0,38,39
 786 1377 786 1377 730.5 1349.5 c 128,-1,40
 675 1322 675 1322 614 1289.5 c 128,-1,41
 553 1257 553 1257 490 1222 c 128,-1,42
 427 1187 427 1187 370.5 1154 c 128,-1,43
 314 1121 314 1121 268 1091.5 c 128,-1,44
 222 1062 222 1062 195 1041 c 1,45,46
 420 917 420 917 537.5 806 c 128,-1,47
 655 695 655 695 680 590 c 1,48,49
 677 561 677 561 673 525 c 128,-1,50
 669 489 669 489 664 452.5 c 128,-1,51
 659 416 659 416 653 381 c 128,-1,52
 647 346 647 346 641 319 c 1,53,54
 581 256 581 256 518 213.5 c 128,-1,55
 455 171 455 171 385 144.5 c 128,-1,56
 315 118 315 118 237 107 c 128,-1,57
 159 96 159 96 68 96 c 2,58,-1
 0 96 l 2,0,1
EndSplineSet
Validated: 1
EndChar

StartChar: Km
Encoding: 65580 -1 132
Width: 1151
GlyphClass: 2
Flags: W
LayerCount: 2
Fore
SplineSet
1151 96 m 1,0,-1
 1096 96 l 2,1,2
 1027 96 1027 96 975.5 123 c 128,-1,3
 924 150 924 150 884 192 c 128,-1,4
 844 234 844 234 812.5 286.5 c 128,-1,5
 781 339 781 339 753 390.5 c 128,-1,6
 725 442 725 442 696 486 c 128,-1,7
 667 530 667 530 633 557 c 1,8,-1
 628 553 l 1,9,10
 634 526 634 526 636 500 c 128,-1,11
 638 474 638 474 638 453 c 0,12,13
 638 423 638 423 632.5 385 c 128,-1,14
 627 347 627 347 621 318 c 1,15,16
 562 255 562 255 501.5 212.5 c 128,-1,17
 441 170 441 170 373 144 c 128,-1,18
 305 118 305 118 227 107 c 128,-1,19
 149 96 149 96 57 96 c 2,20,-1
 0 96 l 2,21,22
 -11 96 -11 96 -23.5 98.5 c 128,-1,23
 -36 101 -36 101 -46.5 106 c 128,-1,24
 -57 111 -57 111 -63.5 117 c 128,-1,25
 -70 123 -70 123 -70 131 c 2,26,-1
 -70 288 l 1,27,-1
 101 288 l 2,28,29
 273 288 273 288 381 329 c 128,-1,30
 489 370 489 370 546 445 c 1,31,32
 541 498 541 498 520.5 549 c 128,-1,33
 500 600 500 600 449.5 654.5 c 128,-1,34
 399 709 399 709 313 769.5 c 128,-1,35
 227 830 227 830 92 902 c 1,36,37
 98 971 98 971 105.5 1039 c 128,-1,38
 113 1107 113 1107 120 1171 c 1,39,40
 172 1208 172 1208 240.5 1252.5 c 128,-1,41
 309 1297 309 1297 385.5 1343 c 128,-1,42
 462 1389 462 1389 542.5 1434 c 128,-1,43
 623 1479 623 1479 697.5 1517.5 c 128,-1,44
 772 1556 772 1556 837.5 1586 c 128,-1,45
 903 1616 903 1616 950 1632 c 1,46,-1
 886 1308 l 1,47,-1
 845 1317 l 1,48,49
 845 1329 845 1329 844.5 1342.5 c 128,-1,50
 844 1356 844 1356 842 1367.5 c 128,-1,51
 840 1379 840 1379 835.5 1386.5 c 128,-1,52
 831 1394 831 1394 823 1394 c 0,53,54
 781 1376 781 1376 725.5 1348.5 c 128,-1,55
 670 1321 670 1321 609 1288.5 c 128,-1,56
 548 1256 548 1256 485 1221 c 128,-1,57
 422 1186 422 1186 365.5 1153 c 128,-1,58
 309 1120 309 1120 263 1090.5 c 128,-1,59
 217 1061 217 1061 190 1040 c 1,60,61
 255 1002 255 1002 315.5 963 c 128,-1,62
 376 924 376 924 436 881 c 128,-1,63
 496 838 496 838 556.5 789.5 c 128,-1,64
 617 741 617 741 681 686 c 0,65,66
 739 636 739 636 779 586.5 c 128,-1,67
 819 537 819 537 849 493 c 128,-1,68
 879 449 879 449 902.5 411.5 c 128,-1,69
 926 374 926 374 952.5 346.5 c 128,-1,70
 979 319 979 319 1012 303.5 c 128,-1,71
 1045 288 1045 288 1093 288 c 2,72,-1
 1151 288 l 1,73,-1
 1151 96 l 1,0,-1
EndSplineSet
Validated: 1
EndChar

StartChar: Ls
Encoding: 65581 -1 133
Width: 1584
GlyphClass: 2
Flags: W
LayerCount: 2
Fore
SplineSet
1376 131 m 1,0,1
 1367 99 1367 99 1356.5 60.5 c 128,-1,2
 1346 22 1346 22 1334 -18 c 128,-1,3
 1322 -58 1322 -58 1309 -96 c 128,-1,4
 1296 -134 1296 -134 1282 -165 c 1,5,6
 1242 -198 1242 -198 1187.5 -227 c 128,-1,7
 1133 -256 1133 -256 1070 -280.5 c 128,-1,8
 1007 -305 1007 -305 939.5 -324 c 128,-1,9
 872 -343 872 -343 806 -356.5 c 128,-1,10
 740 -370 740 -370 678 -377 c 128,-1,11
 616 -384 616 -384 565 -384 c 0,12,13
 465 -384 465 -384 382 -362.5 c 128,-1,14
 299 -341 299 -341 239 -297.5 c 128,-1,15
 179 -254 179 -254 145.5 -188.5 c 128,-1,16
 112 -123 112 -123 112 -35 c 0,17,18
 112 6 112 6 122 64 c 128,-1,19
 132 122 132 122 152.5 190 c 128,-1,20
 173 258 173 258 205.5 333.5 c 128,-1,21
 238 409 238 409 283 486 c 1,22,-1
 376 437 l 1,23,24
 350 393 350 393 329 344.5 c 128,-1,25
 308 296 308 296 293 248.5 c 128,-1,26
 278 201 278 201 270 156.5 c 128,-1,27
 262 112 262 112 262 75 c 0,28,29
 262 -52 262 -52 353.5 -116.5 c 128,-1,30
 445 -181 445 -181 610 -181 c 0,31,32
 681 -181 681 -181 769 -166 c 128,-1,33
 857 -151 857 -151 946.5 -125 c 128,-1,34
 1036 -99 1036 -99 1118.5 -63 c 128,-1,35
 1201 -27 1201 -27 1261 15 c 1,36,37
 1259 165 1259 165 1254 326 c 128,-1,38
 1249 487 1249 487 1241.5 643.5 c 128,-1,39
 1234 800 1234 800 1224 943.5 c 128,-1,40
 1214 1087 1214 1087 1202.5 1203.5 c 128,-1,41
 1191 1320 1191 1320 1178 1401.5 c 128,-1,42
 1165 1483 1165 1483 1152 1515 c 1,43,-1
 1287 1676 l 1,44,-1
 1457 1334 l 1,45,-1
 1413 1302 l 1,46,-1
 1339 1349 l 1,47,48
 1344 1290 1344 1290 1348.5 1207 c 128,-1,49
 1353 1124 1353 1124 1357 1026.5 c 128,-1,50
 1361 929 1361 929 1364.5 823 c 128,-1,51
 1368 717 1368 717 1370.5 612.5 c 128,-1,52
 1373 508 1373 508 1374.5 410.5 c 128,-1,53
 1376 313 1376 313 1376 233 c 2,54,-1
 1376 131 l 1,0,1
EndSplineSet
Validated: 1
EndChar

StartChar: Lf
Encoding: 65582 -1 134
Width: 1686
GlyphClass: 2
Flags: W
LayerCount: 2
Fore
SplineSet
1686 96 m 1,0,-1
 1581 96 l 2,1,2
 1563 96 1563 96 1534.5 102 c 128,-1,3
 1506 108 1506 108 1477 122.5 c 128,-1,4
 1448 137 1448 137 1422 160.5 c 128,-1,5
 1396 184 1396 184 1383 219 c 1,6,-1
 1377 219 l 1,7,-1
 1376 131 l 1,8,9
 1367 98 1367 98 1356.5 59.5 c 128,-1,10
 1346 21 1346 21 1334 -19 c 128,-1,11
 1322 -59 1322 -59 1309 -96.5 c 128,-1,12
 1296 -134 1296 -134 1282 -165 c 1,13,14
 1242 -198 1242 -198 1187.5 -227 c 128,-1,15
 1133 -256 1133 -256 1070 -280.5 c 128,-1,16
 1007 -305 1007 -305 939.5 -324 c 128,-1,17
 872 -343 872 -343 806 -356.5 c 128,-1,18
 740 -370 740 -370 678 -377 c 128,-1,19
 616 -384 616 -384 565 -384 c 0,20,21
 465 -384 465 -384 382 -362.5 c 128,-1,22
 299 -341 299 -341 239 -297.5 c 128,-1,23
 179 -254 179 -254 145.5 -188.5 c 128,-1,24
 112 -123 112 -123 112 -35 c 0,25,26
 112 6 112 6 122 64 c 128,-1,27
 132 122 132 122 152.5 190 c 128,-1,28
 173 258 173 258 205.5 333.5 c 128,-1,29
 238 409 238 409 283 486 c 1,30,-1
 376 437 l 1,31,32
 350 393 350 393 329 344.5 c 128,-1,33
 308 296 308 296 293 248.5 c 128,-1,34
 278 201 278 201 270 156.5 c 128,-1,35
 262 112 262 112 262 75 c 0,36,37
 262 -52 262 -52 353.5 -116.5 c 128,-1,38
 445 -181 445 -181 610 -181 c 0,39,40
 681 -181 681 -181 769 -166 c 128,-1,41
 857 -151 857 -151 946.5 -125 c 128,-1,42
 1036 -99 1036 -99 1118.5 -63 c 128,-1,43
 1201 -27 1201 -27 1261 15 c 1,44,45
 1261 15 1261 15 1260.5 25 c 128,-1,46
 1260 35 1260 35 1259.5 67.5 c 128,-1,47
 1259 100 1259 100 1259 161 c 128,-1,48
 1259 222 1259 222 1259 325 c 0,49,50
 1259 464 1259 464 1254 604 c 128,-1,51
 1249 744 1249 744 1241.5 885.5 c 128,-1,52
 1234 1027 1234 1027 1224.5 1170.5 c 128,-1,53
 1215 1314 1215 1314 1205 1461 c 1,54,-1
 1339 1676 l 1,55,56
 1343 1578 1343 1578 1347.5 1448.5 c 128,-1,57
 1352 1319 1352 1319 1357.5 1174 c 128,-1,58
 1363 1029 1363 1029 1369 876.5 c 128,-1,59
 1375 724 1375 724 1382 581 c 0,60,61
 1386 485 1386 485 1405.5 427 c 128,-1,62
 1425 369 1425 369 1454 338.5 c 128,-1,63
 1483 308 1483 308 1518.5 298 c 128,-1,64
 1554 288 1554 288 1592 288 c 2,65,-1
 1686 288 l 1,66,-1
 1686 96 l 1,0,-1
EndSplineSet
Validated: 1
EndChar

StartChar: Li
Encoding: 65583 -1 135
Width: 651
GlyphClass: 2
Flags: W
LayerCount: 2
Fore
SplineSet
0 96 m 2,0,1
 -11 96 -11 96 -23.5 98.5 c 128,-1,2
 -36 101 -36 101 -46.5 106 c 128,-1,3
 -57 111 -57 111 -63.5 117 c 128,-1,4
 -70 123 -70 123 -70 131 c 2,5,-1
 -70 288 l 1,6,-1
 149 288 l 2,7,8
 200 288 200 288 248.5 309.5 c 128,-1,9
 297 331 297 331 325 363 c 1,10,11
 325 583 325 583 316.5 774 c 128,-1,12
 308 965 308 965 294 1115 c 128,-1,13
 280 1265 280 1265 262 1367.5 c 128,-1,14
 244 1470 244 1470 225 1515 c 1,15,-1
 221 1515 l 1,16,-1
 355 1676 l 1,17,-1
 525 1334 l 1,18,-1
 481 1302 l 1,19,-1
 407 1349 l 1,20,21
 410 1312 410 1312 413.5 1246 c 128,-1,22
 417 1180 417 1180 421 1096.5 c 128,-1,23
 425 1013 425 1013 429 919 c 128,-1,24
 433 825 433 825 436 734 c 128,-1,25
 439 643 439 643 441 561 c 128,-1,26
 443 479 443 479 443 420 c 0,27,28
 443 395 443 395 433 361 c 128,-1,29
 423 327 423 327 403 291 c 128,-1,30
 383 255 383 255 354 220 c 128,-1,31
 325 185 325 185 287 157.5 c 128,-1,32
 249 130 249 130 203 113 c 128,-1,33
 157 96 157 96 103 96 c 2,34,-1
 0 96 l 2,0,1
EndSplineSet
Validated: 1
EndChar

StartChar: Lm
Encoding: 65584 -1 136
Width: 704
GlyphClass: 2
Flags: W
LayerCount: 2
Fore
SplineSet
704 96 m 1,0,-1
 554 96 l 2,1,2
 514 96 514 96 476 106.5 c 128,-1,3
 438 117 438 117 406.5 138.5 c 128,-1,4
 375 160 375 160 351 192 c 128,-1,5
 327 224 327 224 314 268 c 1,6,7
 261 174 261 174 204.5 135 c 128,-1,8
 148 96 148 96 79 96 c 2,9,-1
 0 96 l 2,10,11
 -11 96 -11 96 -23.5 98.5 c 128,-1,12
 -36 101 -36 101 -46.5 106 c 128,-1,13
 -57 111 -57 111 -63.5 117 c 128,-1,14
 -70 123 -70 123 -70 131 c 2,15,-1
 -70 288 l 1,16,-1
 84 288 l 2,17,18
 141 288 141 288 187 310 c 128,-1,19
 233 332 233 332 262 370 c 1,20,21
 244 655 244 655 224 928 c 128,-1,22
 204 1201 204 1201 181 1461 c 1,23,-1
 320 1676 l 1,24,25
 322 1608 322 1608 325 1518 c 128,-1,26
 328 1428 328 1428 332 1325.5 c 128,-1,27
 336 1223 336 1223 340.5 1112 c 128,-1,28
 345 1001 345 1001 350.5 888.5 c 128,-1,29
 356 776 356 776 362 667 c 128,-1,30
 368 558 368 558 375 461 c 0,31,32
 379 405 379 405 393 371 c 128,-1,33
 407 337 407 337 430.5 318.5 c 128,-1,34
 454 300 454 300 485 294 c 128,-1,35
 516 288 516 288 554 288 c 2,36,-1
 704 288 l 1,37,-1
 704 96 l 1,0,-1
EndSplineSet
Validated: 1
EndChar

StartChar: Ms
Encoding: 65585 -1 137
Width: 1288
GlyphClass: 2
Flags: W
LayerCount: 2
Fore
SplineSet
552 797 m 1,0,1
 542 846 542 846 542 892 c 0,2,3
 542 1008 542 1008 610 1085 c 128,-1,4
 678 1162 678 1162 804 1207 c 1,5,6
 880 1178 880 1178 943.5 1126.5 c 128,-1,7
 1007 1075 1007 1075 1053 1015 c 128,-1,8
 1099 955 1099 955 1124 892.5 c 128,-1,9
 1149 830 1149 830 1149 780 c 0,10,11
 1149 735 1149 735 1141.5 693.5 c 128,-1,12
 1134 652 1134 652 1122.5 616 c 128,-1,13
 1111 580 1111 580 1097 551.5 c 128,-1,14
 1083 523 1083 523 1071 504 c 1,15,16
 1023 514 1023 514 971.5 525 c 128,-1,17
 920 536 920 536 868 545 c 128,-1,18
 816 554 816 554 764 560 c 128,-1,19
 712 566 712 566 662 566 c 0,20,21
 596 566 596 566 536 560 c 128,-1,22
 476 554 476 554 425.5 544.5 c 128,-1,23
 375 535 375 535 336.5 523 c 128,-1,24
 298 511 298 511 275 500 c 1,25,26
 280 474 280 474 287 413.5 c 128,-1,27
 294 353 294 353 301.5 274 c 128,-1,28
 309 195 309 195 316.5 105.5 c 128,-1,29
 324 16 324 16 330 -66.5 c 128,-1,30
 336 -149 336 -149 339.5 -216.5 c 128,-1,31
 343 -284 343 -284 343 -320 c 1,32,33
 334 -341 334 -341 320.5 -364 c 128,-1,34
 307 -387 307 -387 290.5 -408.5 c 128,-1,35
 274 -430 274 -430 256.5 -449.5 c 128,-1,36
 239 -469 239 -469 224 -484 c 1,37,38
 224 -441 224 -441 220 -366 c 128,-1,39
 216 -291 216 -291 210 -199 c 128,-1,40
 204 -107 204 -107 195.5 -5 c 128,-1,41
 187 97 187 97 178.5 193 c 128,-1,42
 170 289 170 289 161 372.5 c 128,-1,43
 152 456 152 456 144 511 c 1,44,-1
 226 668 l 2,45,46
 236 680 236 680 272.5 694 c 128,-1,47
 309 708 309 708 362.5 720.5 c 128,-1,48
 416 733 416 733 480 742 c 128,-1,49
 544 751 544 751 608 753 c 1,50,-1
 552 797 l 1,0,1
652 755 m 1,51,52
 695 755 695 755 749 748.5 c 128,-1,53
 803 742 803 742 857.5 732 c 128,-1,54
 912 722 912 722 961 711 c 128,-1,55
 1010 700 1010 700 1043 691 c 1,56,57
 1006 807 1006 807 940.5 891 c 128,-1,58
 875 975 875 975 770 1017 c 1,59,60
 744 1000 744 1000 722.5 980 c 128,-1,61
 701 960 701 960 684.5 934.5 c 128,-1,62
 668 909 668 909 659 877 c 128,-1,63
 650 845 650 845 650 803 c 0,64,65
 650 792 650 792 650 780 c 128,-1,66
 650 768 650 768 652 755 c 1,51,52
EndSplineSet
Validated: 1
EndChar

StartChar: Mf
Encoding: 65586 -1 138
Width: 1467
GlyphClass: 2
Flags: W
LayerCount: 2
Fore
SplineSet
1467 96 m 1,0,-1
 1395 96 l 2,1,2
 1366 96 1366 96 1346.5 100 c 128,-1,3
 1327 104 1327 104 1309.5 112 c 128,-1,4
 1292 120 1292 120 1273 132 c 128,-1,5
 1254 144 1254 144 1227 161 c 1,6,7
 1215 107 1215 107 1187.5 69 c 128,-1,8
 1160 31 1160 31 1120 6 c 128,-1,9
 1080 -19 1080 -19 1028.5 -32 c 128,-1,10
 977 -45 977 -45 916 -49 c 1,11,12
 858 -15 858 -15 819 24.5 c 128,-1,13
 780 64 780 64 756 106 c 128,-1,14
 732 148 732 148 721.5 191.5 c 128,-1,15
 711 235 711 235 711 277 c 0,16,17
 711 342 711 342 730.5 411.5 c 128,-1,18
 750 481 750 481 782 540 c 1,19,20
 761 559 761 559 722.5 576.5 c 128,-1,21
 684 594 684 594 642 606.5 c 128,-1,22
 600 619 600 619 561.5 626.5 c 128,-1,23
 523 634 523 634 503 634 c 0,24,25
 473 634 473 634 446 632.5 c 128,-1,26
 419 631 419 631 392 624.5 c 128,-1,27
 365 618 365 618 336.5 605 c 128,-1,28
 308 592 308 592 275 569 c 1,29,30
 279 550 279 550 284 507 c 128,-1,31
 289 464 289 464 295 406.5 c 128,-1,32
 301 349 301 349 307 280 c 128,-1,33
 313 211 313 211 319.5 139.5 c 128,-1,34
 326 68 326 68 331.5 -3 c 128,-1,35
 337 -74 337 -74 341 -135.5 c 128,-1,36
 345 -197 345 -197 347.5 -245.5 c 128,-1,37
 350 -294 350 -294 350 -321 c 1,38,39
 341 -342 341 -342 327.5 -365 c 128,-1,40
 314 -388 314 -388 297.5 -409.5 c 128,-1,41
 281 -431 281 -431 263.5 -450.5 c 128,-1,42
 246 -470 246 -470 231 -485 c 1,43,44
 231 -442 231 -442 226.5 -363.5 c 128,-1,45
 222 -285 222 -285 215 -188 c 128,-1,46
 208 -91 208 -91 199 16.5 c 128,-1,47
 190 124 190 124 180.5 225.5 c 128,-1,48
 171 327 171 327 161.5 413.5 c 128,-1,49
 152 500 152 500 144 555 c 1,50,-1
 226 712 l 2,51,52
 232 724 232 724 249 742.5 c 128,-1,53
 266 761 266 761 300 778.5 c 128,-1,54
 334 796 334 796 388 808.5 c 128,-1,55
 442 821 442 821 522 821 c 0,56,57
 546 821 546 821 585 812.5 c 128,-1,58
 624 804 624 804 665.5 790.5 c 128,-1,59
 707 777 707 777 745.5 760 c 128,-1,60
 784 743 784 743 808 726 c 1,61,-1
 876 927 l 1,62,63
 952 791 952 791 1011.5 690.5 c 128,-1,64
 1071 590 1071 590 1118.5 519 c 128,-1,65
 1166 448 1166 448 1203 403 c 128,-1,66
 1240 358 1240 358 1271 332.5 c 128,-1,67
 1302 307 1302 307 1329 297.5 c 128,-1,68
 1356 288 1356 288 1382 288 c 2,69,-1
 1467 288 l 1,70,-1
 1467 96 l 1,0,-1
983 132 m 1,71,72
 1037 137 1037 137 1077.5 157.5 c 128,-1,73
 1118 178 1118 178 1145 225 c 1,74,75
 1089 277 1089 277 1040 354 c 0,76,77
 1005 409 1005 409 973.5 463.5 c 128,-1,78
 942 518 942 518 910 568 c 1,79,80
 892 536 892 536 879 504 c 128,-1,81
 866 472 866 472 858.5 443 c 128,-1,82
 851 414 851 414 847.5 390.5 c 128,-1,83
 844 367 844 367 844 353 c 0,84,85
 844 214 844 214 983 132 c 1,71,72
EndSplineSet
Validated: 1
EndChar

StartChar: Mi
Encoding: 65587 -1 139
Width: 1090
GlyphClass: 2
Flags: W
LayerCount: 2
Fore
SplineSet
833 249 m 1,0,1
 821 309 821 309 807 354.5 c 128,-1,2
 793 400 793 400 771.5 437 c 128,-1,3
 750 474 750 474 718.5 506 c 128,-1,4
 687 538 687 538 641 570 c 1,5,6
 615 559 615 559 588.5 538.5 c 128,-1,7
 562 518 562 518 536 491 c 128,-1,8
 510 464 510 464 486.5 433 c 128,-1,9
 463 402 463 402 444 371 c 1,10,11
 519 319 519 319 611.5 284 c 128,-1,12
 704 249 704 249 803 249 c 2,13,-1
 833 249 l 1,0,1
359 266 m 1,14,15
 321 218 321 218 272.5 185.5 c 128,-1,16
 224 153 224 153 175 133 c 128,-1,17
 126 113 126 113 80 104.5 c 128,-1,18
 34 96 34 96 0 96 c 0,19,20
 -11 96 -11 96 -23.5 98.5 c 128,-1,21
 -36 101 -36 101 -46.5 106 c 128,-1,22
 -57 111 -57 111 -63.5 117 c 128,-1,23
 -70 123 -70 123 -70 131 c 2,24,-1
 -70 288 l 1,25,-1
 3 288 l 2,26,27
 68 288 68 288 116.5 301.5 c 128,-1,28
 165 315 165 315 203 338.5 c 128,-1,29
 241 362 241 362 272 392.5 c 128,-1,30
 303 423 303 423 334 457 c 0,31,32
 376 503 376 503 418 551.5 c 128,-1,33
 460 600 460 600 504.5 641 c 128,-1,34
 549 682 549 682 596.5 710.5 c 128,-1,35
 644 739 644 739 695 745 c 1,36,37
 758 705 758 705 802.5 660.5 c 128,-1,38
 847 616 847 616 877 569.5 c 128,-1,39
 907 523 907 523 924.5 475.5 c 128,-1,40
 942 428 942 428 951 380 c 1,41,42
 951 324 951 324 940 277.5 c 128,-1,43
 929 231 929 231 912.5 193 c 128,-1,44
 896 155 896 155 876.5 126 c 128,-1,45
 857 97 857 97 841 77 c 1,46,47
 827 76 827 76 814 75.5 c 128,-1,48
 801 75 801 75 788 75 c 0,49,50
 670 75 670 75 575 109.5 c 128,-1,51
 480 144 480 144 398 207 c 1,52,-1
 359 266 l 1,14,15
EndSplineSet
Validated: 1
EndChar

StartChar: Mm
Encoding: 65588 -1 140
Width: 1288
GlyphClass: 2
Flags: W
LayerCount: 2
Fore
SplineSet
770 201 m 1,0,1
 770 262 770 262 764.5 309.5 c 128,-1,2
 759 357 759 357 745 397 c 128,-1,3
 731 437 731 437 705.5 474 c 128,-1,4
 680 511 680 511 641 551 c 1,5,6
 614 545 614 545 584.5 529 c 128,-1,7
 555 513 555 513 526 490.5 c 128,-1,8
 497 468 497 468 470 440.5 c 128,-1,9
 443 413 443 413 421 385 c 1,10,11
 490 315 490 315 576.5 265 c 128,-1,12
 663 215 663 215 770 201 c 1,0,1
1288 96 m 1,13,-1
 1220 96 l 2,14,15
 1169 96 1169 96 1120.5 114 c 128,-1,16
 1072 132 1072 132 1029 160 c 128,-1,17
 986 188 986 188 950.5 221.5 c 128,-1,18
 915 255 915 255 890 286 c 1,19,20
 882 232 882 232 865.5 191 c 128,-1,21
 849 150 849 150 828.5 119 c 128,-1,22
 808 88 808 88 786 66.5 c 128,-1,23
 764 45 764 45 746 29 c 1,24,25
 678 37 678 37 619.5 50 c 128,-1,26
 561 63 561 63 510.5 83.5 c 128,-1,27
 460 104 460 104 416.5 134 c 128,-1,28
 373 164 373 164 335 206 c 1,29,-1
 324 261 l 1,30,31
 282 221 282 221 237.5 190 c 128,-1,32
 193 159 193 159 150.5 138 c 128,-1,33
 108 117 108 117 69 106.5 c 128,-1,34
 30 96 30 96 0 96 c 0,35,36
 -11 96 -11 96 -23.5 98.5 c 128,-1,37
 -36 101 -36 101 -46.5 106 c 128,-1,38
 -57 111 -57 111 -63.5 117 c 128,-1,39
 -70 123 -70 123 -70 131 c 2,40,-1
 -70 288 l 1,41,-1
 32 288 l 2,42,43
 74 288 74 288 117.5 311.5 c 128,-1,44
 161 335 161 335 203 369 c 128,-1,45
 245 403 245 403 284 441 c 128,-1,46
 323 479 323 479 356 509 c 0,47,48
 393 542 393 542 429.5 576 c 128,-1,49
 466 610 466 610 507.5 638.5 c 128,-1,50
 549 667 549 667 597 689 c 128,-1,51
 645 711 645 711 706 720 c 1,52,53
 731 697 731 697 763 656 c 128,-1,54
 795 615 795 615 833.5 567 c 128,-1,55
 872 519 872 519 916.5 469.5 c 128,-1,56
 961 420 961 420 1010.5 379.5 c 128,-1,57
 1060 339 1060 339 1114.5 313.5 c 128,-1,58
 1169 288 1169 288 1228 288 c 2,59,-1
 1288 288 l 1,60,-1
 1288 96 l 1,13,-1
EndSplineSet
Validated: 1
EndChar

StartChar: Ns
Encoding: 65589 -1 141
Width: 1508
GlyphClass: 2
Flags: W
LayerCount: 2
Fore
SplineSet
1239 754 m 1,0,1
 1271 682 1271 682 1297.5 598 c 128,-1,2
 1324 514 1324 514 1343 427 c 128,-1,3
 1362 340 1362 340 1372.5 254.5 c 128,-1,4
 1383 169 1383 169 1383 94 c 0,5,6
 1381 67 1381 67 1371.5 34 c 128,-1,7
 1362 1 1362 1 1348.5 -33.5 c 128,-1,8
 1335 -68 1335 -68 1320.5 -102 c 128,-1,9
 1306 -136 1306 -136 1294 -164 c 1,10,11
 1254 -197 1254 -197 1199.5 -226 c 128,-1,12
 1145 -255 1145 -255 1082 -279.5 c 128,-1,13
 1019 -304 1019 -304 951.5 -323 c 128,-1,14
 884 -342 884 -342 818 -355.5 c 128,-1,15
 752 -369 752 -369 690 -376 c 128,-1,16
 628 -383 628 -383 577 -383 c 0,17,18
 477 -383 477 -383 393 -361.5 c 128,-1,19
 309 -340 309 -340 248.5 -296.5 c 128,-1,20
 188 -253 188 -253 154 -187.5 c 128,-1,21
 120 -122 120 -122 120 -34 c 0,22,23
 120 7 120 7 130 65 c 128,-1,24
 140 123 140 123 160.5 191 c 128,-1,25
 181 259 181 259 213.5 334.5 c 128,-1,26
 246 410 246 410 291 487 c 1,27,-1
 384 438 l 1,28,29
 358 394 358 394 337 345.5 c 128,-1,30
 316 297 316 297 301 249.5 c 128,-1,31
 286 202 286 202 278 157.5 c 128,-1,32
 270 113 270 113 270 76 c 0,33,34
 270 -51 270 -51 363.5 -115.5 c 128,-1,35
 457 -180 457 -180 622 -180 c 0,36,37
 693 -180 693 -180 781 -165 c 128,-1,38
 869 -150 869 -150 958.5 -124 c 128,-1,39
 1048 -98 1048 -98 1130.5 -62 c 128,-1,40
 1213 -26 1213 -26 1273 16 c 1,41,42
 1273 43 1273 43 1266 84 c 128,-1,43
 1259 125 1259 125 1247 173.5 c 128,-1,44
 1235 222 1235 222 1218 274.5 c 128,-1,45
 1201 327 1201 327 1181 378 c 128,-1,46
 1161 429 1161 429 1138 475 c 128,-1,47
 1115 521 1115 521 1091 556 c 1,48,-1
 1239 754 l 1,0,1
EndSplineSet
Validated: 1
EndChar

StartChar: Nf
Encoding: 65590 -1 142
Width: 1625
GlyphClass: 2
Flags: W
LayerCount: 2
Fore
SplineSet
1625 96 m 1,0,-1
 1580 96 l 2,1,2
 1517 96 1517 96 1469 108.5 c 128,-1,3
 1421 121 1421 121 1395 149 c 1,4,5
 1395 103 1395 103 1384.5 58.5 c 128,-1,6
 1374 14 1374 14 1358 -26.5 c 128,-1,7
 1342 -67 1342 -67 1324 -102 c 128,-1,8
 1306 -137 1306 -137 1290 -164 c 1,9,10
 1250 -197 1250 -197 1195.5 -226 c 128,-1,11
 1141 -255 1141 -255 1078 -279.5 c 128,-1,12
 1015 -304 1015 -304 947.5 -323 c 128,-1,13
 880 -342 880 -342 814 -355.5 c 128,-1,14
 748 -369 748 -369 686 -376 c 128,-1,15
 624 -383 624 -383 573 -383 c 0,16,17
 473 -383 473 -383 390 -361.5 c 128,-1,18
 307 -340 307 -340 247 -296.5 c 128,-1,19
 187 -253 187 -253 153.5 -187.5 c 128,-1,20
 120 -122 120 -122 120 -34 c 0,21,22
 120 7 120 7 130 65 c 128,-1,23
 140 123 140 123 160.5 191 c 128,-1,24
 181 259 181 259 213.5 334.5 c 128,-1,25
 246 410 246 410 291 487 c 1,26,-1
 384 438 l 1,27,28
 358 394 358 394 337 345.5 c 128,-1,29
 316 297 316 297 301 249.5 c 128,-1,30
 286 202 286 202 278 157.5 c 128,-1,31
 270 113 270 113 270 76 c 0,32,33
 270 -51 270 -51 361.5 -115.5 c 128,-1,34
 453 -180 453 -180 618 -180 c 0,35,36
 689 -180 689 -180 777 -165 c 128,-1,37
 865 -150 865 -150 954.5 -124 c 128,-1,38
 1044 -98 1044 -98 1126.5 -62 c 128,-1,39
 1209 -26 1209 -26 1269 16 c 1,40,41
 1268 63 1268 63 1260 109.5 c 128,-1,42
 1252 156 1252 156 1234.5 204.5 c 128,-1,43
 1217 253 1217 253 1188.5 306 c 128,-1,44
 1160 359 1160 359 1118 420 c 1,45,46
 1118 420 1118 420 1127 435 c 128,-1,47
 1136 450 1136 450 1149.5 472.5 c 128,-1,48
 1163 495 1163 495 1178.5 521 c 128,-1,49
 1194 547 1194 547 1207.5 569.5 c 128,-1,50
 1221 592 1221 592 1229.5 607 c 128,-1,51
 1238 622 1238 622 1238 622 c 1,52,53
 1286 515 1286 515 1322.5 449.5 c 128,-1,54
 1359 384 1359 384 1396 348 c 128,-1,55
 1433 312 1433 312 1477.5 300 c 128,-1,56
 1522 288 1522 288 1585 288 c 2,57,-1
 1625 288 l 1,58,-1
 1625 96 l 1,0,-1
EndSplineSet
Validated: 1
EndChar

StartChar: Vs
Encoding: 65591 -1 143
Width: 1078
GlyphClass: 2
Flags: W
LayerCount: 2
Fore
SplineSet
798 410 m 1,0,1
 796 448 796 448 779.5 494.5 c 128,-1,2
 763 541 763 541 734.5 582.5 c 128,-1,3
 706 624 706 624 666.5 654 c 128,-1,4
 627 684 627 684 581 689 c 1,5,6
 518 653 518 653 479 588 c 128,-1,7
 440 523 440 523 440 443 c 1,8,9
 464 423 464 423 484.5 410 c 128,-1,10
 505 397 505 397 525.5 389 c 128,-1,11
 546 381 546 381 566.5 377.5 c 128,-1,12
 587 374 587 374 611 374 c 0,13,14
 636 374 636 374 665.5 377.5 c 128,-1,15
 695 381 695 381 721 386.5 c 128,-1,16
 747 392 747 392 768 398 c 128,-1,17
 789 404 789 404 798 410 c 1,0,1
938 323 m 1,18,19
 933 256 933 256 924 196 c 128,-1,20
 915 136 915 136 894 79.5 c 128,-1,21
 873 23 873 23 836 -31 c 128,-1,22
 799 -85 799 -85 739 -141 c 128,-1,23
 679 -197 679 -197 592.5 -257 c 128,-1,24
 506 -317 506 -317 385 -384 c 1,25,26
 340 -382 340 -382 281.5 -374.5 c 128,-1,27
 223 -367 223 -367 167.5 -355 c 128,-1,28
 112 -343 112 -343 66 -328 c 128,-1,29
 20 -313 20 -313 0 -297 c 1,30,31
 152 -256 152 -256 268 -213 c 128,-1,32
 384 -170 384 -170 469 -126 c 128,-1,33
 554 -82 554 -82 612.5 -37.5 c 128,-1,34
 671 7 671 7 709 51.5 c 128,-1,35
 747 96 747 96 767 140.5 c 128,-1,36
 787 185 787 185 796 229 c 1,37,38
 776 219 776 219 749 211.5 c 128,-1,39
 722 204 722 204 694.5 199 c 128,-1,40
 667 194 667 194 641 191.5 c 128,-1,41
 615 189 615 189 597 189 c 0,42,43
 568 189 568 189 531.5 196 c 128,-1,44
 495 203 495 203 457.5 215.5 c 128,-1,45
 420 228 420 228 385 245 c 128,-1,46
 350 262 350 262 323 282 c 1,47,48
 319 306 319 306 317.5 330.5 c 128,-1,49
 316 355 316 355 316 380 c 0,50,51
 316 449 316 449 333.5 523 c 128,-1,52
 351 597 351 597 388.5 665.5 c 128,-1,53
 426 734 426 734 483.5 790 c 128,-1,54
 541 846 541 846 621 878 c 1,55,56
 700 859 700 859 759.5 803 c 128,-1,57
 819 747 819 747 858.5 669.5 c 128,-1,58
 898 592 898 592 918 501.5 c 128,-1,59
 938 411 938 411 938 323 c 1,18,19
EndSplineSet
Validated: 1
EndChar

StartChar: Vf
Encoding: 65592 -1 144
Width: 1256
GlyphClass: 2
Flags: W
LayerCount: 2
Fore
SplineSet
1256 96 m 1,0,1
 1227 96 1227 96 1190.5 96.5 c 128,-1,2
 1154 97 1154 97 1117 97.5 c 128,-1,3
 1080 98 1080 98 1045.5 99 c 128,-1,4
 1011 100 1011 100 986 102 c 1,5,6
 966 42 966 42 930.5 -15 c 128,-1,7
 895 -72 895 -72 835 -130.5 c 128,-1,8
 775 -189 775 -189 685.5 -251.5 c 128,-1,9
 596 -314 596 -314 469 -384 c 1,10,11
 424 -382 424 -382 365.5 -374.5 c 128,-1,12
 307 -367 307 -367 251.5 -355 c 128,-1,13
 196 -343 196 -343 150 -328 c 128,-1,14
 104 -313 104 -313 84 -297 c 1,15,16
 265 -248 265 -248 395 -196.5 c 128,-1,17
 525 -145 525 -145 614 -92.5 c 128,-1,18
 703 -40 703 -40 757 13 c 128,-1,19
 811 66 811 66 840 119 c 1,20,21
 785 129 785 129 721.5 144 c 128,-1,22
 658 159 658 159 599.5 178.5 c 128,-1,23
 541 198 541 198 494 222.5 c 128,-1,24
 447 247 447 247 426 276 c 1,25,26
 422 300 422 300 420.5 326 c 128,-1,27
 419 352 419 352 419 377 c 0,28,29
 419 446 419 446 436.5 520 c 128,-1,30
 454 594 454 594 491.5 661.5 c 128,-1,31
 529 729 529 729 586.5 784.5 c 128,-1,32
 644 840 644 840 724 872 c 1,33,34
 786 862 786 862 840.5 815.5 c 128,-1,35
 895 769 895 769 935.5 700 c 128,-1,36
 976 631 976 631 999.5 546 c 128,-1,37
 1023 461 1023 461 1023 375 c 0,38,39
 1023 355 1023 355 1022 334.5 c 128,-1,40
 1021 314 1021 314 1019 294 c 1,41,42
 1040 292 1040 292 1069.5 291 c 128,-1,43
 1099 290 1099 290 1131 289.5 c 128,-1,44
 1163 289 1163 289 1195.5 288.5 c 128,-1,45
 1228 288 1228 288 1256 288 c 1,46,-1
 1256 96 l 1,0,1
883 305 m 1,47,48
 884 316 884 316 884.5 327 c 128,-1,49
 885 338 885 338 885 349 c 0,50,51
 885 415 885 415 868.5 471.5 c 128,-1,52
 852 528 852 528 824.5 571.5 c 128,-1,53
 797 615 797 615 760.5 643.5 c 128,-1,54
 724 672 724 672 684 683 c 1,55,56
 621 647 621 647 582 582 c 128,-1,57
 543 517 543 517 543 437 c 1,58,59
 548 411 548 411 580.5 390.5 c 128,-1,60
 613 370 613 370 661 353.5 c 128,-1,61
 709 337 709 337 767.5 325 c 128,-1,62
 826 313 826 313 883 305 c 1,47,48
EndSplineSet
Validated: 1
EndChar

StartChar: Hs
Encoding: 65593 -1 145
Width: 1095
GlyphClass: 2
Flags: W
LayerCount: 2
Fore
SplineSet
974 498 m 1,0,1
 960 431 960 431 944 370.5 c 128,-1,2
 928 310 928 310 900 250 c 1,3,4
 868 228 868 228 820.5 199.5 c 128,-1,5
 773 171 773 171 716 145.5 c 128,-1,6
 659 120 659 120 595.5 102.5 c 128,-1,7
 532 85 532 85 469 85 c 0,8,9
 394 85 394 85 334 101 c 128,-1,10
 274 117 274 117 232 152.5 c 128,-1,11
 190 188 190 188 167 245.5 c 128,-1,12
 144 303 144 303 144 386 c 0,13,14
 144 424 144 424 156.5 474 c 128,-1,15
 169 524 169 524 191 580.5 c 128,-1,16
 213 637 213 637 241.5 696 c 128,-1,17
 270 755 270 755 303 812.5 c 128,-1,18
 336 870 336 870 370.5 922 c 128,-1,19
 405 974 405 974 438 1015 c 1,20,21
 537 969 537 969 632 910 c 128,-1,22
 727 851 727 851 802 783.5 c 128,-1,23
 877 716 877 716 924 643.5 c 128,-1,24
 971 571 971 571 974 498 c 1,0,1
872 424 m 1,25,26
 872 460 872 460 835.5 509.5 c 128,-1,27
 799 559 799 559 739.5 611.5 c 128,-1,28
 680 664 680 664 603.5 713 c 128,-1,29
 527 762 527 762 448 797 c 1,30,31
 417 770 417 770 383.5 726.5 c 128,-1,32
 350 683 350 683 322.5 636.5 c 128,-1,33
 295 590 295 590 277 546.5 c 128,-1,34
 259 503 259 503 259 476 c 0,35,36
 259 367 259 367 320.5 316.5 c 128,-1,37
 382 266 382 266 517 266 c 0,38,39
 559 266 559 266 609.5 280.5 c 128,-1,40
 660 295 660 295 709 318 c 128,-1,41
 758 341 758 341 801 369 c 128,-1,42
 844 397 844 397 872 424 c 1,25,26
EndSplineSet
Validated: 1
EndChar

StartChar: Hf
Encoding: 65594 -1 146
Width: 1168
GlyphClass: 2
Flags: W
LayerCount: 2
Fore
SplineSet
1168 96 m 1,0,-1
 1077 96 l 2,1,2
 1022 96 1022 96 972.5 112 c 128,-1,3
 923 128 923 128 882 163.5 c 128,-1,4
 841 199 841 199 810 254.5 c 128,-1,5
 779 310 779 310 762 389 c 1,6,-1
 649 249 l 1,7,8
 542 249 542 249 461.5 253.5 c 128,-1,9
 381 258 381 258 320.5 269.5 c 128,-1,10
 260 281 260 281 217.5 300.5 c 128,-1,11
 175 320 175 320 144 350 c 1,12,13
 147 380 147 380 154 425 c 128,-1,14
 161 470 161 470 170 517.5 c 128,-1,15
 179 565 179 565 189 610 c 128,-1,16
 199 655 199 655 209 685 c 1,17,18
 239 718 239 718 282 757 c 128,-1,19
 325 796 325 796 380.5 834 c 128,-1,20
 436 872 436 872 504 905 c 128,-1,21
 572 938 572 938 653 958 c 1,22,-1
 626 1058 l 1,23,24
 649 1103 649 1103 674 1146.5 c 128,-1,25
 699 1190 699 1190 722 1235 c 1,26,27
 759 1030 759 1030 789 880 c 128,-1,28
 819 730 819 730 844.5 624.5 c 128,-1,29
 870 519 870 519 893.5 453.5 c 128,-1,30
 917 388 917 388 943 351 c 128,-1,31
 969 314 969 314 999 301 c 128,-1,32
 1029 288 1029 288 1068 288 c 2,33,-1
 1168 288 l 1,34,-1
 1168 96 l 1,0,-1
756 414 m 1,35,36
 750 435 750 435 743.5 468 c 128,-1,37
 737 501 737 501 729.5 540 c 128,-1,38
 722 579 722 579 714.5 621.5 c 128,-1,39
 707 664 707 664 700.5 704 c 128,-1,40
 694 744 694 744 688 778 c 128,-1,41
 682 812 682 812 678 836 c 1,42,43
 642 829 642 829 596.5 812 c 128,-1,44
 551 795 551 795 504.5 770.5 c 128,-1,45
 458 746 458 746 414 715.5 c 128,-1,46
 370 685 370 685 335.5 651 c 128,-1,47
 301 617 301 617 280 581 c 128,-1,48
 259 545 259 545 259 509 c 1,49,50
 272 484 272 484 304 466 c 128,-1,51
 336 448 336 448 376 436 c 128,-1,52
 416 424 416 424 458.5 418.5 c 128,-1,53
 501 413 501 413 534 413 c 2,54,-1
 756 414 l 1,35,36
EndSplineSet
Validated: 1
EndChar

StartChar: Hi
Encoding: 65595 -1 147
Width: 1256
GlyphClass: 2
Flags: W
LayerCount: 2
Fore
SplineSet
0 96 m 2,0,1
 -11 96 -11 96 -23 98.5 c 128,-1,2
 -35 101 -35 101 -45.5 104.5 c 128,-1,3
 -56 108 -56 108 -63 113.5 c 128,-1,4
 -70 119 -70 119 -70 125 c 2,5,-1
 -70 288 l 1,6,-1
 0 288 l 2,7,8
 66 288 66 288 107 288.5 c 128,-1,9
 148 289 148 289 173.5 292.5 c 128,-1,10
 199 296 199 296 216 303.5 c 128,-1,11
 233 311 233 311 251 325 c 1,12,13
 220 340 220 340 200.5 366 c 128,-1,14
 181 392 181 392 170 422.5 c 128,-1,15
 159 453 159 453 155 485 c 128,-1,16
 151 517 151 517 151 544 c 0,17,18
 151 616 151 616 170 683 c 128,-1,19
 189 750 189 750 220.5 804.5 c 128,-1,20
 252 859 252 859 294 897.5 c 128,-1,21
 336 936 336 936 383 951 c 1,22,-1
 232 1020 l 1,23,-1
 272 1238 l 1,24,25
 441 1139 441 1139 568 1050 c 128,-1,26
 695 961 695 961 787 881.5 c 128,-1,27
 879 802 879 802 940.5 732.5 c 128,-1,28
 1002 663 1002 663 1039.5 603.5 c 128,-1,29
 1077 544 1077 544 1094 495 c 128,-1,30
 1111 446 1111 446 1116 408 c 1,31,32
 1114 387 1114 387 1098 346.5 c 128,-1,33
 1082 306 1082 306 1057 257 c 128,-1,34
 1032 208 1032 208 1000 157 c 128,-1,35
 968 106 968 106 935 66 c 1,36,37
 906 69 906 69 863 77 c 128,-1,38
 820 85 820 85 770 97 c 128,-1,39
 720 109 720 109 667 123 c 128,-1,40
 614 137 614 137 566 151.5 c 128,-1,41
 518 166 518 166 478.5 180.5 c 128,-1,42
 439 195 439 195 416 208 c 1,43,44
 373 183 373 183 324.5 162.5 c 128,-1,45
 276 142 276 142 226.5 127 c 128,-1,46
 177 112 177 112 129.5 104 c 128,-1,47
 82 96 82 96 40 96 c 2,48,-1
 0 96 l 2,0,1
714 726 m 1,49,50
 717 718 717 718 719 697.5 c 128,-1,51
 721 677 721 677 722.5 654 c 128,-1,52
 724 631 724 631 725 610 c 128,-1,53
 726 589 726 589 726 579 c 0,54,55
 726 549 726 549 718.5 513 c 128,-1,56
 711 477 711 477 694.5 441.5 c 128,-1,57
 678 406 678 406 651.5 373.5 c 128,-1,58
 625 341 625 341 586 319 c 1,59,60
 620 304 620 304 669.5 288.5 c 128,-1,61
 719 273 719 273 771.5 259 c 128,-1,62
 824 245 824 245 872 235.5 c 128,-1,63
 920 226 920 226 951 223 c 1,64,65
 960 229 960 229 971 244 c 128,-1,66
 982 259 982 259 992.5 277 c 128,-1,67
 1003 295 1003 295 1010.5 313 c 128,-1,68
 1018 331 1018 331 1019 344 c 0,69,70
 1019 368 1019 368 998.5 413.5 c 128,-1,71
 978 459 978 459 940.5 514.5 c 128,-1,72
 903 570 903 570 850 628.5 c 128,-1,73
 797 687 797 687 733 736 c 1,74,-1
 714 726 l 1,49,50
451 364 m 1,75,76
 497 373 497 373 533 395.5 c 128,-1,77
 569 418 569 418 593.5 448.5 c 128,-1,78
 618 479 618 479 631.5 514 c 128,-1,79
 645 549 645 549 647 584 c 0,80,81
 647 612 647 612 639 653.5 c 128,-1,82
 631 695 631 695 617 736.5 c 128,-1,83
 603 778 603 778 582.5 814 c 128,-1,84
 562 850 562 850 537 868 c 1,85,86
 471 868 471 868 419.5 845 c 128,-1,87
 368 822 368 822 332 782 c 128,-1,88
 296 742 296 742 275.5 688 c 128,-1,89
 255 634 255 634 251 573 c 1,90,91
 251 502 251 502 304 448 c 128,-1,92
 357 394 357 394 451 364 c 1,75,76
EndSplineSet
Validated: 1
EndChar

StartChar: Hm
Encoding: 65596 -1 148
Width: 1090
GlyphClass: 2
Flags: W
LayerCount: 2
Fore
SplineSet
706 -413 m 1,0,1
 641 -378 641 -378 587.5 -345.5 c 128,-1,2
 534 -313 534 -313 490 -279 c 128,-1,3
 446 -245 446 -245 411 -207 c 128,-1,4
 376 -169 376 -169 347.5 -121.5 c 128,-1,5
 319 -74 319 -74 296.5 -15.5 c 128,-1,6
 274 43 274 43 256 118 c 1,7,8
 199 107 199 107 150.5 101.5 c 128,-1,9
 102 96 102 96 65 96 c 2,10,-1
 0 96 l 2,11,12
 -11 96 -11 96 -23.5 98.5 c 128,-1,13
 -36 101 -36 101 -46.5 106 c 128,-1,14
 -57 111 -57 111 -63.5 117 c 128,-1,15
 -70 123 -70 123 -70 131 c 2,16,-1
 -70 288 l 1,17,-1
 102 288 l 2,18,19
 112 288 112 288 128 288.5 c 128,-1,20
 144 289 144 289 160.5 290 c 128,-1,21
 177 291 177 291 191 292 c 128,-1,22
 205 293 205 293 213 294 c 1,23,24
 213 308 213 308 211.5 345.5 c 128,-1,25
 210 383 210 383 210 428 c 0,26,27
 210 510 210 510 222.5 600.5 c 128,-1,28
 235 691 235 691 257.5 775.5 c 128,-1,29
 280 860 280 860 312.5 933.5 c 128,-1,30
 345 1007 345 1007 385 1055 c 1,31,32
 469 1049 469 1049 534 1019.5 c 128,-1,33
 599 990 599 990 647 942.5 c 128,-1,34
 695 895 695 895 728 832 c 128,-1,35
 761 769 761 769 781 696 c 128,-1,36
 801 623 801 623 809.5 542 c 128,-1,37
 818 461 818 461 818 377 c 1,38,39
 807 363 807 363 778.5 342.5 c 128,-1,40
 750 322 750 322 711.5 299 c 128,-1,41
 673 276 673 276 627 252 c 128,-1,42
 581 228 581 228 534.5 207 c 128,-1,43
 488 186 488 186 444 169.5 c 128,-1,44
 400 153 400 153 366 145 c 1,45,46
 390 60 390 60 445 -10 c 128,-1,47
 500 -80 500 -80 575 -153 c 1,48,49
 581 -60 581 -60 622.5 21 c 128,-1,50
 664 102 664 102 726 161 c 128,-1,51
 788 220 788 220 865.5 254 c 128,-1,52
 943 288 943 288 1021 288 c 2,53,-1
 1090 288 l 1,54,-1
 1090 96 l 1,55,-1
 1023 96 l 2,56,57
 972 96 972 96 924 88.5 c 128,-1,58
 876 81 876 81 834.5 63.5 c 128,-1,59
 793 46 793 46 760 17 c 128,-1,60
 727 -12 727 -12 707 -55 c 1,61,62
 707 -90 707 -90 709.5 -122.5 c 128,-1,63
 712 -155 712 -155 719.5 -182 c 128,-1,64
 727 -209 727 -209 740 -228.5 c 128,-1,65
 753 -248 753 -248 774 -257 c 1,66,-1
 706 -413 l 1,0,1
710 472 m 1,67,68
 699 542 699 542 673 608 c 128,-1,69
 647 674 647 674 609.5 726 c 128,-1,70
 572 778 572 778 524 811 c 128,-1,71
 476 844 476 844 421 849 c 1,72,73
 403 824 403 824 383 774.5 c 128,-1,74
 363 725 363 725 347 667 c 128,-1,75
 331 609 331 609 320.5 551.5 c 128,-1,76
 310 494 310 494 310 452 c 0,77,78
 310 366 310 366 316 309 c 1,79,80
 345 310 345 310 382.5 319.5 c 128,-1,81
 420 329 420 329 460.5 343.5 c 128,-1,82
 501 358 501 358 541.5 376 c 128,-1,83
 582 394 582 394 616.5 411.5 c 128,-1,84
 651 429 651 429 675.5 445 c 128,-1,85
 700 461 700 461 710 472 c 1,67,68
EndSplineSet
Validated: 1
EndChar

StartChar: Ys
Encoding: 65597 -1 149
Width: 1793
GlyphClass: 2
Flags: W
LayerCount: 2
Fore
SplineSet
1579 493 m 1,0,-1
 1542 515 l 2,1,2
 1543 519 1543 519 1543 526 c 0,3,4
 1543 544 1543 544 1530.5 561 c 128,-1,5
 1518 578 1518 578 1498.5 591.5 c 128,-1,6
 1479 605 1479 605 1456 613.5 c 128,-1,7
 1433 622 1433 622 1413 622 c 0,8,9
 1365 622 1365 622 1315.5 615 c 128,-1,10
 1266 608 1266 608 1220.5 586 c 128,-1,11
 1175 564 1175 564 1134 521.5 c 128,-1,12
 1093 479 1093 479 1062 409 c 1,13,14
 1077 377 1077 377 1122.5 359.5 c 128,-1,15
 1168 342 1168 342 1231 329 c 0,16,17
 1312 313 1312 313 1364 293.5 c 128,-1,18
 1416 274 1416 274 1446.5 253 c 128,-1,19
 1477 232 1477 232 1491 209 c 128,-1,20
 1505 186 1505 186 1509 164 c 1,21,22
 1509 134 1509 134 1503 92 c 128,-1,23
 1497 50 1497 50 1489 6 c 128,-1,24
 1481 -38 1481 -38 1470.5 -78.5 c 128,-1,25
 1460 -119 1460 -119 1451 -145 c 1,26,27
 1401 -170 1401 -170 1337.5 -195 c 128,-1,28
 1274 -220 1274 -220 1201 -241.5 c 128,-1,29
 1128 -263 1128 -263 1048 -281.5 c 128,-1,30
 968 -300 968 -300 886 -313.5 c 128,-1,31
 804 -327 804 -327 721.5 -334.5 c 128,-1,32
 639 -342 639 -342 561 -342 c 0,33,34
 461 -342 461 -342 378.5 -320.5 c 128,-1,35
 296 -299 296 -299 236.5 -255.5 c 128,-1,36
 177 -212 177 -212 144.5 -146.5 c 128,-1,37
 112 -81 112 -81 112 7 c 0,38,39
 112 48 112 48 123.5 105 c 128,-1,40
 135 162 135 162 157.5 229 c 128,-1,41
 180 296 180 296 214 370.5 c 128,-1,42
 248 445 248 445 293 522 c 1,43,-1
 369 485 l 1,44,45
 343 441 343 441 323 391.5 c 128,-1,46
 303 342 303 342 289.5 293.5 c 128,-1,47
 276 245 276 245 269 199.5 c 128,-1,48
 262 154 262 154 262 117 c 0,49,50
 262 -10 262 -10 353.5 -74.5 c 128,-1,51
 445 -139 445 -139 610 -139 c 0,52,53
 688 -139 688 -139 789.5 -132 c 128,-1,54
 891 -125 891 -125 1000 -107.5 c 128,-1,55
 1109 -90 1109 -90 1216.5 -61.5 c 128,-1,56
 1324 -33 1324 -33 1414 10 c 1,57,58
 1414 32 1414 32 1402.5 54 c 128,-1,59
 1391 76 1391 76 1366.5 95.5 c 128,-1,60
 1342 115 1342 115 1304 130.5 c 128,-1,61
 1266 146 1266 146 1212 155 c 0,62,63
 1176 161 1176 161 1137.5 168.5 c 128,-1,64
 1099 176 1099 176 1063 188.5 c 128,-1,65
 1027 201 1027 201 996.5 219.5 c 128,-1,66
 966 238 966 238 945 267 c 1,67,68
 946 281 946 281 948.5 300 c 128,-1,69
 951 319 951 319 954 340 c 128,-1,70
 957 361 957 361 960.5 382.5 c 128,-1,71
 964 404 964 404 969 424 c 0,72,73
 1019 553 1019 553 1078 631 c 128,-1,74
 1137 709 1137 709 1199.5 752 c 128,-1,75
 1262 795 1262 795 1325 809 c 128,-1,76
 1388 823 1388 823 1446 823 c 0,77,78
 1487 823 1487 823 1521.5 805 c 128,-1,79
 1556 787 1556 787 1584 760 c 128,-1,80
 1612 733 1612 733 1632.5 701 c 128,-1,81
 1653 669 1653 669 1667 641 c 1,82,-1
 1579 493 l 1,0,-1
EndSplineSet
Validated: 1
EndChar

